<svg viewBox="0 0 200 200" xml:space="preserve" xmlns="http://www.w3.org/2000/svg">
  <path d="M167.8 169.5H31.5c-2.1 0-3.8-1.7-3.8-3.8V52c0-2.1 1.7-3.8 3.8-3.8h136.4c2.1 0 3.8 1.7 3.8 3.8v113.6c0 2.2-1.7 3.9-3.9 3.9m-132.5-7.7H164v-106H35.3z" fill="#686e7a" class="fill-000000"/>
  <path d="M45.2 59c-2.1 0-3.8-1.7-3.8-3.8v-6.4c0-2.1 1.7-3.8 3.8-3.8s3.8 1.7 3.8 3.8v6.4c0 2.1-1.7 3.8-3.8 3.8m12.1 0c-2.1 0-3.8-1.7-3.8-3.8v-6.4c0-2.1 1.7-3.8 3.8-3.8s3.8 1.7 3.8 3.8v6.4c0 2.1-1.7 3.8-3.8 3.8m12.1 0c-2.1 0-3.8-1.7-3.8-3.8v-6.4c0-2.1 1.7-3.8 3.8-3.8s3.8 1.7 3.8 3.8v6.4c0 2.1-1.7 3.8-3.8 3.8m12.1 0c-2.1 0-3.8-1.7-3.8-3.8v-6.4c0-2.1 1.7-3.8 3.8-3.8s3.8 1.7 3.8 3.8v6.4c0 2.1-1.7 3.8-3.8 3.8m12.1 0c-2.1 0-3.8-1.7-3.8-3.8v-6.4c0-2.1 1.7-3.8 3.8-3.8s3.8 1.7 3.8 3.8v6.4c0 2.1-1.7 3.8-3.8 3.8m12.1 0c-2.1 0-3.8-1.7-3.8-3.8v-6.4c0-2.1 1.7-3.8 3.8-3.8s3.8 1.7 3.8 3.8v6.4c0 2.1-1.7 3.8-3.8 3.8m12.1 0c-2.1 0-3.8-1.7-3.8-3.8v-6.4c0-2.1 1.7-3.8 3.8-3.8s3.8 1.7 3.8 3.8v6.4c0 2.1-1.7 3.8-3.8 3.8m12.1 0c-2.1 0-3.8-1.7-3.8-3.8v-6.4c0-2.1 1.7-3.8 3.8-3.8s3.8 1.7 3.8 3.8v6.4c.1 2.1-1.7 3.8-3.8 3.8m12.1 0c-2.1 0-3.8-1.7-3.8-3.8v-6.4c0-2.1 1.7-3.8 3.8-3.8s3.8 1.7 3.8 3.8v6.4c.1 2.1-1.6 3.8-3.8 3.8m12.1 0c-2.1 0-3.8-1.7-3.8-3.8v-6.4c0-2.1 1.7-3.8 3.8-3.8s3.8 1.7 3.8 3.8v6.4c.1 2.1-1.6 3.8-3.8 3.8M63.8 79.4H45.2c-2.1 0-3.8-1.7-3.8-3.8s1.7-3.8 3.8-3.8h18.6c2.1 0 3.8 1.7 3.8 3.8s-1.7 3.8-3.8 3.8m88.7 0H81c-2.1 0-3.8-1.7-3.8-3.8s1.7-3.8 3.8-3.8h71.5c2.1 0 3.8 1.7 3.8 3.8s-1.6 3.8-3.8 3.8m-95.1 19h-3.2c-1.1 0-1.9-.9-1.9-1.9s.9-1.9 1.9-1.9h3.2c1.1 0 1.9.9 1.9 1.9s-.8 1.9-1.9 1.9m14.6 0h-3.2c-1.1 0-1.9-.9-1.9-1.9s.9-1.9 1.9-1.9H72c1.1 0 1.9.9 1.9 1.9s-.8 1.9-1.9 1.9m14.6 0h-3.2c-1.1 0-1.9-.9-1.9-1.9s.9-1.9 1.9-1.9h3.2c1.1 0 1.9.9 1.9 1.9s-.8 1.9-1.9 1.9m14.6 0H98c-1.1 0-1.9-.9-1.9-1.9s.9-1.9 1.9-1.9h3.2c1.1 0 1.9.9 1.9 1.9s-.8 1.9-1.9 1.9m14.6 0h-3.2c-1.1 0-1.9-.9-1.9-1.9s.9-1.9 1.9-1.9h3.2c1.1 0 1.9.9 1.9 1.9s-.8 1.9-1.9 1.9m14.6 0h-3.2c-1.1 0-1.9-.9-1.9-1.9s.9-1.9 1.9-1.9h3.2c1.1 0 1.9.9 1.9 1.9s-.8 1.9-1.9 1.9m14.6 0h-3.2c-1.1 0-1.9-.9-1.9-1.9s.9-1.9 1.9-1.9h3.2c1.1 0 1.9.9 1.9 1.9s-.8 1.9-1.9 1.9m-87.6 13.3h-3.2c-1.1 0-1.9-.9-1.9-1.9s.9-1.9 1.9-1.9h3.2c1.1 0 1.9.9 1.9 1.9s-.8 1.9-1.9 1.9m14.6 0h-3.2c-1.1 0-1.9-.9-1.9-1.9s.9-1.9 1.9-1.9H72c1.1 0 1.9.9 1.9 1.9s-.8 1.9-1.9 1.9m14.6 0h-3.2c-1.1 0-1.9-.9-1.9-1.9s.9-1.9 1.9-1.9h3.2c1.1 0 1.9.9 1.9 1.9s-.8 1.9-1.9 1.9m14.6 0H98c-1.1 0-1.9-.9-1.9-1.9s.9-1.9 1.9-1.9h3.2c1.1 0 1.9.9 1.9 1.9s-.8 1.9-1.9 1.9m14.6 0h-3.2c-1.1 0-1.9-.9-1.9-1.9s.9-1.9 1.9-1.9h3.2c1.1 0 1.9.9 1.9 1.9s-.8 1.9-1.9 1.9m14.6 0h-3.2c-1.1 0-1.9-.9-1.9-1.9s.9-1.9 1.9-1.9h3.2c1.1 0 1.9.9 1.9 1.9s-.8 1.9-1.9 1.9m14.6 0h-3.2c-1.1 0-1.9-.9-1.9-1.9s.9-1.9 1.9-1.9h3.2c1.1 0 1.9.9 1.9 1.9s-.8 1.9-1.9 1.9m-87.6 13.2h-3.2c-1.1 0-1.9-.9-1.9-1.9s.9-1.9 1.9-1.9h3.2c1.1 0 1.9.9 1.9 1.9s-.8 1.9-1.9 1.9m14.6 0h-3.2c-1.1 0-1.9-.9-1.9-1.9s.9-1.9 1.9-1.9H72c1.1 0 1.9.9 1.9 1.9s-.8 1.9-1.9 1.9m14.6 0h-3.2c-1.1 0-1.9-.9-1.9-1.9s.9-1.9 1.9-1.9h3.2c1.1 0 1.9.9 1.9 1.9s-.8 1.9-1.9 1.9m14.6 0H98c-1.1 0-1.9-.9-1.9-1.9s.9-1.9 1.9-1.9h3.2c1.1 0 1.9.9 1.9 1.9s-.8 1.9-1.9 1.9m14.6 0h-3.2c-1.1 0-1.9-.9-1.9-1.9s.9-1.9 1.9-1.9h3.2c1.1 0 1.9.9 1.9 1.9s-.8 1.9-1.9 1.9m14.6 0h-3.2c-1.1 0-1.9-.9-1.9-1.9s.9-1.9 1.9-1.9h3.2c1.1 0 1.9.9 1.9 1.9s-.8 1.9-1.9 1.9m14.6 0h-3.2c-1.1 0-1.9-.9-1.9-1.9s.9-1.9 1.9-1.9h3.2c1.1 0 1.9.9 1.9 1.9s-.8 1.9-1.9 1.9m-87.6 13.2h-3.2c-1.1 0-1.9-.9-1.9-1.9 0-1.1.9-1.9 1.9-1.9h3.2c1.1 0 1.9.9 1.9 1.9 0 1.1-.8 1.9-1.9 1.9m14.6 0h-3.2c-1.1 0-1.9-.9-1.9-1.9 0-1.1.9-1.9 1.9-1.9H72c1.1 0 1.9.9 1.9 1.9 0 1.1-.8 1.9-1.9 1.9m14.6 0h-3.2c-1.1 0-1.9-.9-1.9-1.9 0-1.1.9-1.9 1.9-1.9h3.2c1.1 0 1.9.9 1.9 1.9 0 1.1-.8 1.9-1.9 1.9m14.6 0H98c-1.1 0-1.9-.9-1.9-1.9 0-1.1.9-1.9 1.9-1.9h3.2c1.1 0 1.9.9 1.9 1.9 0 1.1-.8 1.9-1.9 1.9m-43.8 13.3h-3.2c-1.1 0-1.9-.9-1.9-1.9 0-1.1.9-1.9 1.9-1.9h3.2c1.1 0 1.9.9 1.9 1.9s-.8 1.9-1.9 1.9m14.6 0h-3.2c-1.1 0-1.9-.9-1.9-1.9 0-1.1.9-1.9 1.9-1.9H72c1.1 0 1.9.9 1.9 1.9s-.8 1.9-1.9 1.9m14.6 0h-3.2c-1.1 0-1.9-.9-1.9-1.9 0-1.1.9-1.9 1.9-1.9h3.2c1.1 0 1.9.9 1.9 1.9s-.8 1.9-1.9 1.9m29.2-13.3h-3.2c-1.1 0-1.9-.9-1.9-1.9 0-1.1.9-1.9 1.9-1.9h3.2c1.1 0 1.9.9 1.9 1.9.1 1.1-.8 1.9-1.9 1.9m14.6 0h-3.2c-1.1 0-1.9-.9-1.9-1.9 0-1.1.9-1.9 1.9-1.9h3.2c1.1 0 1.9.9 1.9 1.9.1 1.1-.8 1.9-1.9 1.9m14.6 0h-3.2c-1.1 0-1.9-.9-1.9-1.9 0-1.1.9-1.9 1.9-1.9h3.2c1.1 0 1.9.9 1.9 1.9.1 1.1-.8 1.9-1.9 1.9" fill="#686e7a" class="fill-000000"/>
</svg>
