<svg viewBox="0 0 200 200" xml:space="preserve" xmlns="http://www.w3.org/2000/svg" enable-background="new 0 0 200 200"><path d="M167.8 169.5H31.5c-2.1 0-3.8-1.7-3.8-3.8V52c0-2.1 1.7-3.8 3.8-3.8h136.4c2.1 0 3.8 1.7 3.8 3.8v113.6c0 2.2-1.7 3.9-3.9 3.9zm-132.5-7.7H164v-106H35.3v106z" fill="#686e7a" class="fill-000000"></path><path d="M45.2 59c-2.1 0-3.8-1.7-3.8-3.8v-6.4c0-2.1 1.7-3.8 3.8-3.8s3.8 1.7 3.8 3.8v6.4c0 2.1-1.7 3.8-3.8 3.8zM57.3 59c-2.1 0-3.8-1.7-3.8-3.8v-6.4c0-2.1 1.7-3.8 3.8-3.8s3.8 1.7 3.8 3.8v6.4c0 2.1-1.7 3.8-3.8 3.8zM69.4 59c-2.1 0-3.8-1.7-3.8-3.8v-6.4c0-2.1 1.7-3.8 3.8-3.8 2.1 0 3.8 1.7 3.8 3.8v6.4c0 2.1-1.7 3.8-3.8 3.8zM81.5 59c-2.1 0-3.8-1.7-3.8-3.8v-6.4c0-2.1 1.7-3.8 3.8-3.8s3.8 1.7 3.8 3.8v6.4c0 2.1-1.7 3.8-3.8 3.8zM93.6 59c-2.1 0-3.8-1.7-3.8-3.8v-6.4c0-2.1 1.7-3.8 3.8-3.8s3.8 1.7 3.8 3.8v6.4c0 2.1-1.7 3.8-3.8 3.8zM105.7 59c-2.1 0-3.8-1.7-3.8-3.8v-6.4c0-2.1 1.7-3.8 3.8-3.8 2.1 0 3.8 1.7 3.8 3.8v6.4c0 2.1-1.7 3.8-3.8 3.8zM117.8 59c-2.1 0-3.8-1.7-3.8-3.8v-6.4c0-2.1 1.7-3.8 3.8-3.8s3.8 1.7 3.8 3.8v6.4c0 2.1-1.7 3.8-3.8 3.8zM129.9 59c-2.1 0-3.8-1.7-3.8-3.8v-6.4c0-2.1 1.7-3.8 3.8-3.8s3.8 1.7 3.8 3.8v6.4c.1 2.1-1.7 3.8-3.8 3.8zM142 59c-2.1 0-3.8-1.7-3.8-3.8v-6.4c0-2.1 1.7-3.8 3.8-3.8s3.8 1.7 3.8 3.8v6.4c.1 2.1-1.6 3.8-3.8 3.8zM154.1 59c-2.1 0-3.8-1.7-3.8-3.8v-6.4c0-2.1 1.7-3.8 3.8-3.8s3.8 1.7 3.8 3.8v6.4c.1 2.1-1.6 3.8-3.8 3.8zM63.8 79.4H45.2c-2.1 0-3.8-1.7-3.8-3.8s1.7-3.8 3.8-3.8h18.6c2.1 0 3.8 1.7 3.8 3.8s-1.7 3.8-3.8 3.8zM152.5 79.4H81c-2.1 0-3.8-1.7-3.8-3.8s1.7-3.8 3.8-3.8h71.5c2.1 0 3.8 1.7 3.8 3.8s-1.6 3.8-3.8 3.8zM57.4 98.4h-3.2c-1.1 0-1.9-.9-1.9-1.9s.9-1.9 1.9-1.9h3.2c1.1 0 1.9.9 1.9 1.9s-.8 1.9-1.9 1.9zM72 98.4h-3.2c-1.1 0-1.9-.9-1.9-1.9s.9-1.9 1.9-1.9H72c1.1 0 1.9.9 1.9 1.9s-.8 1.9-1.9 1.9zM86.6 98.4h-3.2c-1.1 0-1.9-.9-1.9-1.9s.9-1.9 1.9-1.9h3.2c1.1 0 1.9.9 1.9 1.9s-.8 1.9-1.9 1.9zM101.2 98.4H98c-1.1 0-1.9-.9-1.9-1.9s.9-1.9 1.9-1.9h3.2c1.1 0 1.9.9 1.9 1.9s-.8 1.9-1.9 1.9zM115.8 98.4h-3.2c-1.1 0-1.9-.9-1.9-1.9s.9-1.9 1.9-1.9h3.2c1.1 0 1.9.9 1.9 1.9s-.8 1.9-1.9 1.9zM130.4 98.4h-3.2c-1.1 0-1.9-.9-1.9-1.9s.9-1.9 1.9-1.9h3.2c1.1 0 1.9.9 1.9 1.9s-.8 1.9-1.9 1.9zM145 98.4h-3.2c-1.1 0-1.9-.9-1.9-1.9s.9-1.9 1.9-1.9h3.2c1.1 0 1.9.9 1.9 1.9s-.8 1.9-1.9 1.9zM57.4 111.7h-3.2c-1.1 0-1.9-.9-1.9-1.9s.9-1.9 1.9-1.9h3.2c1.1 0 1.9.9 1.9 1.9s-.8 1.9-1.9 1.9zM72 111.7h-3.2c-1.1 0-1.9-.9-1.9-1.9s.9-1.9 1.9-1.9H72c1.1 0 1.9.9 1.9 1.9s-.8 1.9-1.9 1.9zM86.6 111.7h-3.2c-1.1 0-1.9-.9-1.9-1.9s.9-1.9 1.9-1.9h3.2c1.1 0 1.9.9 1.9 1.9s-.8 1.9-1.9 1.9zM101.2 111.7H98c-1.1 0-1.9-.9-1.9-1.9s.9-1.9 1.9-1.9h3.2c1.1 0 1.9.9 1.9 1.9s-.8 1.9-1.9 1.9zM115.8 111.7h-3.2c-1.1 0-1.9-.9-1.9-1.9s.9-1.9 1.9-1.9h3.2c1.1 0 1.9.9 1.9 1.9s-.8 1.9-1.9 1.9zM130.4 111.7h-3.2c-1.1 0-1.9-.9-1.9-1.9s.9-1.9 1.9-1.9h3.2c1.1 0 1.9.9 1.9 1.9s-.8 1.9-1.9 1.9zM145 111.7h-3.2c-1.1 0-1.9-.9-1.9-1.9s.9-1.9 1.9-1.9h3.2c1.1 0 1.9.9 1.9 1.9s-.8 1.9-1.9 1.9zM57.4 124.9h-3.2c-1.1 0-1.9-.9-1.9-1.9s.9-1.9 1.9-1.9h3.2c1.1 0 1.9.9 1.9 1.9s-.8 1.9-1.9 1.9zM72 124.9h-3.2c-1.1 0-1.9-.9-1.9-1.9s.9-1.9 1.9-1.9H72c1.1 0 1.9.9 1.9 1.9s-.8 1.9-1.9 1.9zM86.6 124.9h-3.2c-1.1 0-1.9-.9-1.9-1.9s.9-1.9 1.9-1.9h3.2c1.1 0 1.9.9 1.9 1.9s-.8 1.9-1.9 1.9zM101.2 124.9H98c-1.1 0-1.9-.9-1.9-1.9s.9-1.9 1.9-1.9h3.2c1.1 0 1.9.9 1.9 1.9s-.8 1.9-1.9 1.9zM115.8 124.9h-3.2c-1.1 0-1.9-.9-1.9-1.9s.9-1.9 1.9-1.9h3.2c1.1 0 1.9.9 1.9 1.9s-.8 1.9-1.9 1.9zM130.4 124.9h-3.2c-1.1 0-1.9-.9-1.9-1.9s.9-1.9 1.9-1.9h3.2c1.1 0 1.9.9 1.9 1.9s-.8 1.9-1.9 1.9zM145 124.9h-3.2c-1.1 0-1.9-.9-1.9-1.9s.9-1.9 1.9-1.9h3.2c1.1 0 1.9.9 1.9 1.9s-.8 1.9-1.9 1.9zM57.4 138.1h-3.2c-1.1 0-1.9-.9-1.9-1.9 0-1.1.9-1.9 1.9-1.9h3.2c1.1 0 1.9.9 1.9 1.9 0 1.1-.8 1.9-1.9 1.9zM72 138.1h-3.2c-1.1 0-1.9-.9-1.9-1.9 0-1.1.9-1.9 1.9-1.9H72c1.1 0 1.9.9 1.9 1.9 0 1.1-.8 1.9-1.9 1.9zM86.6 138.1h-3.2c-1.1 0-1.9-.9-1.9-1.9 0-1.1.9-1.9 1.9-1.9h3.2c1.1 0 1.9.9 1.9 1.9 0 1.1-.8 1.9-1.9 1.9zM101.2 138.1H98c-1.1 0-1.9-.9-1.9-1.9 0-1.1.9-1.9 1.9-1.9h3.2c1.1 0 1.9.9 1.9 1.9 0 1.1-.8 1.9-1.9 1.9zM57.4 151.4h-3.2c-1.1 0-1.9-.9-1.9-1.9 0-1.1.9-1.9 1.9-1.9h3.2c1.1 0 1.9.9 1.9 1.9 0 1-.8 1.9-1.9 1.9zM72 151.4h-3.2c-1.1 0-1.9-.9-1.9-1.9 0-1.1.9-1.9 1.9-1.9H72c1.1 0 1.9.9 1.9 1.9s-.8 1.9-1.9 1.9zM86.6 151.4h-3.2c-1.1 0-1.9-.9-1.9-1.9 0-1.1.9-1.9 1.9-1.9h3.2c1.1 0 1.9.9 1.9 1.9s-.8 1.9-1.9 1.9zM115.8 138.1h-3.2c-1.1 0-1.9-.9-1.9-1.9 0-1.1.9-1.9 1.9-1.9h3.2c1.1 0 1.9.9 1.9 1.9.1 1.1-.8 1.9-1.9 1.9zM130.4 138.1h-3.2c-1.1 0-1.9-.9-1.9-1.9 0-1.1.9-1.9 1.9-1.9h3.2c1.1 0 1.9.9 1.9 1.9.1 1.1-.8 1.9-1.9 1.9zM145 138.1h-3.2c-1.1 0-1.9-.9-1.9-1.9 0-1.1.9-1.9 1.9-1.9h3.2c1.1 0 1.9.9 1.9 1.9.1 1.1-.8 1.9-1.9 1.9z" fill="#686e7a" class="fill-000000"></path></svg>