<svg height="24" width="24" xmlns="http://www.w3.org/2000/svg"><path d="M5 4c-1.105 0-2 .9-2 2v14c0 1.1.895 2 2 2h14c1.105 0 2-.9 2-2V6c0-1.1-.895-2-2-2z" fill="#bdc3c7"/><path d="M5 3a2 2 0 0 0-2 2v14a2 2 0 0 0 2 2h14a2 2 0 0 0 2-2V5a2 2 0 0 0-2-2z" fill="#ecf0f1"/><path d="M5 3c-1.105 0-2 .9-2 2v3h18V5c0-1.1-.895-2-2-2z" fill="#e74c3c"/><path d="M7.5 5.5a1.5 1.5 0 1 1-3 0 1.5 1.5 0 1 1 3 0" fill="#c0392b"/><path d="M6 1a1 1 0 0 0-1 1v3a1 1 0 1 0 2 0V2a1 1 0 0 0-1-1" fill="#bdc3c7"/><path d="M19.5 5.5a1.5 1.5 0 1 1-3 0 1.5 1.5 0 1 1 3 0" fill="#c0392b"/><path d="M18 1c-.552 0-1 .4-1 1v3c0 .5.448 1 1 1s1-.5 1-1V2c0-.6-.448-1-1-1" fill="#bdc3c7"/><path fill="#c0392b" d="M3 8h18v1H3z"/><path d="M8 11v1h2c.552 0 1 .4 1 1 0 .5-.448 1-1 1H9v1h1c.552 0 1 .4 1 1 0 .5-.448 1-1 1H8v1h2c1.105 0 2-.9 2-2 0-.6-.268-1.2-.688-1.5.42-.4.688-.9.688-1.5 0-1.1-.895-2-2-2zm5 0v1h1v5h-1v1h3v-1h-1v-6z" fill="#95a5a6"/></svg>