<svg viewBox="0 0 100 100" xml:space="preserve" xmlns="http://www.w3.org/2000/svg">
  <g/>
  <path d="m53.9 46.6.2.2c.3.3.7.4 1.1.4s.8-.2 1.1-.4l4.3-4.3c1 .7 2.3 1 3.4 1 1.7 0 3.3-.6 4.6-1.9 2.2-2.2 2.5-5.5.9-8.1l4.3-4.3c.3-.3.4-.7.4-1.1s-.2-.8-.4-1.1h-.3c-2.6-2.6-6.1-4.1-9.8-4.1q-2.55 0-4.8.9l-5.5-5.5c-2.3-2.3-5.9-2.3-8.2 0-1.1 1.1-1.7 2.5-1.7 4.1s.6 3 1.7 4.1l2 2-18 18c-1-.6-2.1-1-3.4-1-3.6 0-6.5 2.9-6.5 6.5s2.9 6.5 6.5 6.5h.5l12.9 12.9h-4.3c-3.5 0-6.4 2.9-6.4 6.4 0 .8.7 1.5 1.5 1.5h30c.8 0 1.5-.7 1.5-1.5v-.3c-.1-3.4-3-6.1-6.4-6.1h-3.8l-19-19V52c0-1.3-.4-2.5-1-3.5l18-18 1.3 1.3c-.6 1.5-.9 3.2-.9 4.8.1 3.9 1.6 7.4 4.2 10m-28.1 9.1c-2 0-3.5-1.6-3.5-3.5s1.6-3.5 3.5-3.5c2 0 3.5 1.6 3.5 3.5s-1.6 3.5-3.5 3.5m29.3 18.8c1.3 0 2.5.8 3.1 1.9H31.8c.6-1.1 1.7-1.9 3.1-1.9zm-8.1-3h-3.7L29.4 57.6q1.05-.75 1.8-1.8zm19.5-32c-1 1-2.5 1.3-3.7.8l4.5-4.5c.4 1.3.2 2.7-.8 3.7m-2.8-13.6c2.5 0 4.9.8 6.8 2.4L55.2 43.6c-1.6-1.9-2.4-4.3-2.4-6.8 0-2.9 1.1-5.6 3.2-7.7s4.8-3.2 7.7-3.2m-16.4-1.6c-.5-.5-.8-1.2-.8-2 0-.7.3-1.4.8-2 1.1-1.1 2.8-1.1 3.9 0l4.8 4.8c-.8.5-1.5 1.1-2.2 1.8s-1.3 1.4-1.8 2.2z"/>
  <path d="M80.9 55.5c-.8-.3-1.6 0-2 .8l-2.3 5.5h-1.7v-6.7c0-.8-.7-1.5-1.5-1.5s-1.5.7-1.5 1.5v6.7h-1.7L68 48.3c-.1-.8-.9-1.4-1.7-1.2-.8.1-1.4.9-1.2 1.7l2.1 13H67c-.8 0-1.5.7-1.5 1.5v12.3c0 2.2 1.8 4 4 4h7.4c2.2 0 4-1.8 4-4V63.3c0-.7-.5-1.2-1.1-1.4l1.9-4.4c.3-.8 0-1.7-.8-2m-3 20c0 .6-.4 1-1 1h-7.4c-.6 0-1-.4-1-1V64.8h9.4z"/>
</svg>
