<svg height="91" viewBox="0 0 91 91" width="91" xml:space="preserve" xmlns="http://www.w3.org/2000/svg">
  <circle cx="45.517" cy="44.749" fill="#9ABFDA" r="29.396"/>
  <g fill="#454B53">
    <path d="M15.986 89.346a2.514 2.514 0 0 1-1.94-4.109l7.813-9.497a2.514 2.514 0 0 1 3.881 3.193l-7.813 9.497a2.5 2.5 0 0 1-1.941.916m59.526 0a2.5 2.5 0 0 1-1.941-.916l-7.816-9.497a2.513 2.513 0 0 1 3.881-3.193l7.815 9.497a2.513 2.513 0 0 1-1.939 4.109"/>
    <path d="M45.75 84.39c-21.87 0-39.662-17.792-39.662-39.662 0-21.866 17.792-39.655 39.662-39.655 21.867 0 39.658 17.789 39.658 39.655 0 21.87-17.791 39.662-39.658 39.662m0-74.292c-19.1 0-34.637 15.535-34.637 34.63 0 19.099 15.537 34.637 34.637 34.637 19.097 0 34.633-15.538 34.633-34.637 0-19.095-15.536-34.63-34.633-34.63"/>
    <path d="M56.779 47.24H45.866a2.513 2.513 0 0 1-2.513-2.513V16.765a2.513 2.513 0 1 1 5.026 0v25.45h8.4a2.513 2.513 0 1 1 0 5.025m-10.91 27.924a2.513 2.513 0 0 1-2.514-2.513V66.45a2.513 2.513 0 0 1 5.026 0v6.201a2.513 2.513 0 0 1-2.512 2.513M23.863 47.24h-6.111a2.513 2.513 0 1 1 0-5.026h6.111a2.513 2.513 0 1 1 0 5.026m49.883 0h-6.113a2.513 2.513 0 0 1 0-5.026h6.113a2.513 2.513 0 1 1 0 5.026M4.712 19.945a2.513 2.513 0 0 1-2.513-2.513V12.09c0-5.945 4.84-10.783 10.788-10.783h5.339a2.513 2.513 0 1 1 0 5.026h-5.339a5.767 5.767 0 0 0-5.763 5.758v5.343a2.51 2.51 0 0 1-2.512 2.511m82.068 0a2.513 2.513 0 0 1-2.513-2.513V12.09a5.766 5.766 0 0 0-5.761-5.758h-5.339a2.513 2.513 0 1 1 0-5.026h5.339c5.947 0 10.786 4.838 10.786 10.783v5.343a2.51 2.51 0 0 1-2.512 2.513"/>
  </g>
</svg>
