<svg data-name="Layer 1" height="200" viewBox="0 0 200 200" width="200" xmlns="http://www.w3.org/2000/svg">
  <path d="M177.5 67.4a9.75 9.75 0 0 0-14-1.5c-10.5 8.5-20 14.5-29.5 17.5-9.5 3.5-20.5 5-34 5s-24.5-1.5-34-5-19-9-29.5-17.5c-4.5-3.5-10.5-3-14 1.5s-3 10.5 1.5 14a132 132 0 0 0 21 14.5l-8.5 14.5c-2.5 5-1 11 3.5 13.5 5 2.5 11 1 13.5-3.5l9.5-16.5a112.8 112.8 0 0 0 27 4.5v18a10 10 0 0 0 20 0v-18a106.6 106.6 0 0 0 29-5.5l10 17.5a9.86 9.86 0 0 0 17-10l-9-15.5a111.2 111.2 0 0 0 19-13.5c4.5-3.5 5-9.5 1.5-14"/>
</svg>
