<svg viewBox="0 0 32 32" xml:space="preserve" xmlns="http://www.w3.org/2000/svg">
  <path d="m30.538 25.184-6.115-6.115A10.9 10.9 0 0 0 27 12c0-.286-.011-.584-.033-.859-.044-.551-.541-.975-1.076-.917a1 1 0 0 0-.917 1.076c.017.224.026.467.026.7 0 2.421-.946 4.69-2.662 6.388a9.03 9.03 0 0 1-4.748 2.47c-.954.185-2.122.197-3.241-.012a8.9 8.9 0 0 1-4.712-2.483A8.95 8.95 0 0 1 7 12c0-4.962 4.038-9 9-9 2.421 0 4.694.949 6.399 2.673a1 1 0 0 0 1.422-1.406A10.92 10.92 0 0 0 16 1C9.935 1 5 5.935 5 12c0 2.601.901 5.063 2.55 7.036l-6.257 6.257A1 1 0 0 0 2 27h3v3a1.002 1.002 0 0 0 1.707.707l7.819-7.819c.491.067.983.112 1.474.112.499 0 .971-.042 1.424-.102l7.809 7.809A1 1 0 0 0 26.94 30v-3h3.01c.595-.028 1.01-.444 1.01-1a1 1 0 0 0-.422-.816M7 27.586V26a1 1 0 0 0-1-1H4.414l4.547-4.547c.062.051.128.096.19.146q.23.187.47.359.139.098.28.191a10 10 0 0 0 1.278.736q.148.073.297.142.28.125.565.233c.068.026.133.058.202.083zM25.94 25a1 1 0 0 0-1 1v1.586l-5.23-5.231c.076-.027.149-.063.225-.092q.269-.102.533-.217.163-.075.324-.153a10 10 0 0 0 .797-.428q.233-.138.459-.288.15-.098.296-.2.236-.169.464-.351c.064-.051.132-.096.195-.148L27.526 25z" fill="#fff" class="fill-000000"/>
  <path d="M11.376 10.299a1 1 0 0 0-1.366 1.46l5.313 4.971a.997.997 0 0 0 1.365 0l10.688-10a1 1 0 0 0-1.366-1.46l-10.004 9.36z" fill="#fff" class="fill-000000"/>
</svg>
