<svg data-name="Layer 1" viewBox="0 0 24 24" xmlns="http://www.w3.org/2000/svg">
  <path d="M16.5 22h-9a3 3 0 0 1-3-3V5a3 3 0 0 1 3-3h6.59a1 1 0 0 1 .7.29l4.42 4.42a1 1 0 0 1 .29.7V19a3 3 0 0 1-3 3" style="fill:#757575"/>
  <path d="M18.8 7.74h-3.6a1.5 1.5 0 0 1-1.5-1.5v-3.6a.55.55 0 0 1 .94-.39l4.55 4.55a.55.55 0 0 1-.39.94" style="fill:#bdbdbd"/>
  <path d="M16 12.65H8a.5.5 0 0 1-.5-.5.5.5 0 0 1 .5-.5h8a.5.5 0 0 1 .5.5.5.5 0 0 1-.5.5m0 2.85H8a.5.5 0 0 1 0-1h8a.5.5 0 0 1 0 1m0 2.85H8a.5.5 0 0 1-.5-.5.5.5 0 0 1 .5-.5h8a.5.5 0 0 1 .5.5.5.5 0 0 1-.5.5" style="fill:#f5f5f5"/>
</svg>
