<?xml version="1.0" encoding="utf-8"?>
<!-- Generator: Adobe Illustrator 27.5.0, SVG Export Plug-In . SVG Version: 6.00 Build 0)  -->
<svg version="1.1" xmlns="http://www.w3.org/2000/svg" xmlns:xlink="http://www.w3.org/1999/xlink" x="0px" y="0px"
	 viewBox="0 0 500 500" style="enable-background:new 0 0 500 500;" xml:space="preserve">
<g id="BACKGROUND">
	<g>
		<rect style="fill:#FFFFFF;" width="500" height="500"/>
	</g>
	<g>
		<path style="fill:#F0F6FF;" d="M356.977,349.212c-39.253-6.119-79.325-5.102-118.668-10.613
			c-31.298-4.384-65.187-15.237-80.905-42.654c-10.952-19.105-10.73-42.883-5.195-64.198c5.535-21.314,15.893-40.999,24.575-61.236
			c10.304-24.019,18.312-49.021,23.88-74.557c3.018-13.838,5.284-28.478,0.998-41.977c-4.825-15.195-17.604-26.966-32.156-33.478
			c-14.552-6.512-30.781-8.316-46.722-8.499C80.086,11.51,37.421,22.552,0,43.079V500h475.903
			c17.341-30.467,9.436-72.752-13.893-99.994C436.17,369.831,396.23,355.332,356.977,349.212z"/>
	</g>
	<g>
		<path style="fill:#F0F6FF;" d="M363.897,12.425c8.94,3.734,17.892,8.085,24.616,15.061c6.725,6.975,10.899,17.094,8.535,26.49
			c-1.632,6.486-6.067,11.833-10.174,17.113c-9.683,12.447-18.569,27.216-16.936,42.901c1.634,15.695,13.748,28.647,27.676,36.065
			c13.928,7.418,29.705,10.387,45.02,14.188c19.571,4.858,38.763,11.231,57.366,19.014V0H326.994
			C339.566,3.273,351.91,7.418,363.897,12.425z"/>
	</g>
</g>
<g id="OBJECTS">
	<g>
		<linearGradient id="SVGID_1_" gradientUnits="userSpaceOnUse" x1="332.3565" y1="271.2277" x2="339.6664" y2="258.5317">
			<stop  offset="0" style="stop-color:#FFFFFF;stop-opacity:0"/>
			<stop  offset="0.3385" style="stop-color:#E8E8E8;stop-opacity:0.3385"/>
			<stop  offset="0.7358" style="stop-color:#D3D3D3;stop-opacity:0.7358"/>
			<stop  offset="1" style="stop-color:#CCCCCC"/>
		</linearGradient>
		<polygon style="opacity:0.4;fill:url(#SVGID_1_);" points="445.073,307.042 417.255,323.18 231.016,215.654 259.037,199.416 		"/>
		<path style="fill:#6B9CE8;" d="M258.361,196.713l-3.976-153.267c0-4.097,8.41-8.002,11.96-5.955l180.102,103.862
			c1.649,0.951,2.664,2.709,2.664,4.612v154.73c0,4.098-7.469,9.46-11.018,7.411l-177.07-106.783
			C259.375,200.372,258.361,198.615,258.361,196.713z"/>
		<path style="fill:#82ACFF;" d="M254.289,199.062V44.452c0-4.097,4.434-6.659,7.984-4.612l180.102,103.862
			c1.649,0.951,2.664,2.709,2.664,4.612v154.73c0,4.098-4.437,6.66-7.986,4.611L256.951,203.672
			C255.304,202.721,254.289,200.964,254.289,199.062z"/>
		<polygon style="fill:#BBF1FF;" points="257.967,198.15 257.967,43.78 429.63,142.794 429.63,297.271 		"/>
		<g>
			<polygon style="fill:#C7F4FF;" points="347.682,95.527 257.967,185.242 257.967,198.15 314.123,230.576 412.047,132.652 			"/>
			<polygon style="fill:#C7F4FF;" points="426.655,141.077 328.725,239.007 342.268,246.827 429.63,159.465 429.63,142.793 			"/>
		</g>
		<g>
			<path style="fill:#6B9CE8;" d="M437.295,218.047c3.151,1.819,5.698,6.226,5.688,9.848c-0.01,3.621-2.573,5.082-5.725,3.262
				c-3.151-1.819-5.695-6.228-5.684-9.849C431.584,217.687,434.144,216.228,437.295,218.047"/>
		</g>
		<g>
			<path style="fill:#6B9CE8;" d="M379.093,199.913c-0.042-0.023-0.084-0.046-0.126-0.07
				C379.01,199.867,379.051,199.889,379.093,199.913 M378.085,199.331c0.043,0.026,0.086,0.051,0.129,0.077
				C378.171,199.383,378.128,199.357,378.085,199.331 M379.5,200.137c-0.053-0.029-0.106-0.058-0.16-0.087
				C379.394,200.08,379.446,200.108,379.5,200.137 M377.675,199.083c0.057,0.035,0.112,0.068,0.169,0.103
				C377.787,199.152,377.731,199.118,377.675,199.083 M379.88,200.342c-0.056-0.03-0.112-0.06-0.168-0.09
				C379.769,200.283,379.824,200.312,379.88,200.342 M377.294,198.849c0.062,0.039,0.123,0.077,0.185,0.115
				C377.418,198.925,377.355,198.887,377.294,198.849 M380.263,200.543c-0.06-0.031-0.121-0.063-0.181-0.094
				C380.143,200.48,380.203,200.512,380.263,200.543 M376.912,198.607c0.068,0.043,0.136,0.086,0.204,0.129
				C377.047,198.693,376.98,198.651,376.912,198.607 M381.218,201.019c-0.26-0.125-0.522-0.255-0.783-0.389
				C380.698,200.765,380.957,200.893,381.218,201.019 M381.586,201.194c-0.087-0.041-0.173-0.081-0.26-0.123
				C381.413,201.113,381.501,201.154,381.586,201.194 M381.953,201.364c-0.094-0.043-0.188-0.086-0.282-0.13
				C381.765,201.278,381.86,201.321,381.953,201.364 M393.382,188.036l0.007-0.004L393.382,188.036 M366.162,152.036l-0.183,5.325
				l-1.319-0.762c-0.37-0.214-0.669-0.732-0.668-1.157l0.011-3.882c0.001-0.425,0.302-0.597,0.672-0.383L366.162,152.036
				 M365.315,142.486c0,0,0.306-11.6,8.162-11.161c1.854,0.104,3.013,0.405,3.703,0.803c2.237,1.292-0.464,3.613-0.464,3.613
				s4.095,0.509,6.839,2.044c0.021,0.012,0.042,0.024,0.063,0.036c2.637,1.523-0.072,2.972-0.072,2.972s1.284,0.419,2.551,1.15
				c0.876,0.506,1.744,1.161,2.173,1.931c0.8,1.442-0.167,2.257-0.678,2.565c2.003,3.647,3.236,7.676,3.226,11.342l-0.024,8.477
				l-0.886-0.512l-0.153-5.334c-0.161-4.744-3.48-10.324-7.521-12.657l-8.145-4.703c-4.139-2.39-7.556-0.611-7.751,4.033
				l-0.175,4.952l-0.872-0.504l0.024-8.477c0.001-0.201,0.022-0.373,0.03-0.561L365.315,142.486 M378.795,127.526
				c-17.324-10.002-31.413-1.965-31.469,17.941c-0.055,19.22,12.982,42.473,29.466,53.063c-6.602-4.243-12.648-10.525-17.527-17.756
				c1.889-5.271,6.06-8.011,11.389-7.553c-2.913-4.201-4.778-9.3-4.742-13.777c0.002-0.18,0.006-0.36,0.014-0.538l0.411-11.821
				c0.195-4.643,3.612-6.422,7.751-4.033l8.145,4.703c4.041,2.333,7.36,7.913,7.521,12.657l0.195,6.817c0,0,0,0,0,0l-0.043-1.482
				l1.487,0.858c0.377,0.218,0.676,0.736,0.675,1.161l-0.011,3.882c-0.001,0.425-0.302,0.597-0.679,0.379l-1.312-0.758l-0.027-0.928
				l0.071,2.528c0.007,0.187,0.01,0.371,0.01,0.552c0.007,4.261-1.682,7.116-4.343,8.113c5.744,5.775,10.255,13.737,12.217,21.577
				c-4.51,1.464-9.998,0.989-15.993-1.725c15.731,7.126,28.012-1.106,28.064-19.695
				C410.123,161.784,396.125,137.531,378.795,127.526"/>
			<path style="fill:#97C1FF;" d="M385.778,181.534c-2.062,0.773-4.708,0.43-7.601-1.24l-0.398-0.23
				c-2.681-1.548-5.145-3.988-7.125-6.843c-5.33-0.458-9.5,2.282-11.389,7.553c4.879,7.231,10.925,13.513,17.527,17.756
				c0.04,0.026,0.08,0.052,0.12,0.077c0.068,0.044,0.136,0.086,0.204,0.129c0.06,0.038,0.119,0.075,0.178,0.112
				c0.061,0.038,0.124,0.077,0.185,0.115c0.065,0.04,0.13,0.08,0.195,0.12c0.056,0.034,0.113,0.069,0.169,0.103
				c0.08,0.048,0.162,0.097,0.242,0.145c0.043,0.026,0.086,0.052,0.129,0.077c0.125,0.074,0.25,0.147,0.376,0.22
				c0.126,0.073,0.252,0.144,0.377,0.215c0.042,0.024,0.084,0.047,0.126,0.07c0.082,0.046,0.165,0.092,0.247,0.137
				c0.053,0.029,0.106,0.058,0.16,0.087c0.071,0.038,0.142,0.077,0.212,0.115c0.056,0.03,0.112,0.06,0.168,0.09
				c0.068,0.036,0.135,0.071,0.202,0.106c0.06,0.031,0.121,0.063,0.181,0.094c0.057,0.03,0.114,0.059,0.172,0.088
				c0.262,0.134,0.523,0.264,0.783,0.389c0.036,0.018,0.072,0.035,0.109,0.052c0.087,0.042,0.173,0.082,0.26,0.123
				c0.028,0.013,0.057,0.027,0.085,0.04c0.095,0.044,0.188,0.087,0.282,0.13c0.016,0.007,0.033,0.015,0.049,0.022
				c5.995,2.714,11.483,3.189,15.993,1.725C396.033,195.271,391.522,187.309,385.778,181.534"/>
			<polyline style="fill:#82ACFF;" points="393.388,188.032 393.382,188.036 393.388,188.032 			"/>
			<path style="fill:#8DB9FF;" d="M382.233,147.755l-8.145-4.703c-4.139-2.39-7.556-0.611-7.751,4.033l-0.411,11.821l0.19-5.441
				c1.889,4.368,4.793,8.487,8.217,11.46c0.848-0.788,2.184-0.852,3.684,0.014c1.508,0.87,2.831,2.47,3.672,4.233
				c3.428,0.984,6.352,0.231,8.26-1.943l-0.195-6.817C389.593,155.667,386.274,150.088,382.233,147.755"/>
			<path style="fill:#8DB9FF;" d="M366.162,152.036l-1.487-0.858c-0.37-0.214-0.671-0.042-0.672,0.383l-0.011,3.882
				c-0.001,0.425,0.298,0.943,0.668,1.157l1.319,0.762L366.162,152.036"/>
			<path style="fill:#8DB9FF;" d="M391.394,166.604l-1.487-0.858l0.043,1.482c0.001-0.001,0.001-0.002,0.002-0.002l0.088,3.115
				l0.027,0.928l1.312,0.758c0.377,0.218,0.678,0.046,0.679-0.379l0.011-3.882C392.07,167.34,391.771,166.822,391.394,166.604"/>
			<path style="fill:#82ACFF;" d="M377.18,132.128c-0.69-0.398-1.849-0.699-3.703-0.803c-7.857-0.439-8.162,11.161-8.162,11.161
				l0.028,0.008c-0.008,0.188-0.029,0.361-0.03,0.561l-0.024,8.477l0.872,0.504l0.175-4.952c0.195-4.643,3.612-6.422,7.751-4.033
				l8.145,4.703c4.041,2.333,7.36,7.913,7.521,12.657l0.153,5.334l0.886,0.512l0.024-8.477c0.01-3.665-1.223-7.695-3.226-11.342
				c0.511-0.307,1.478-1.123,0.678-2.565c-0.429-0.77-1.297-1.425-2.173-1.931c-1.267-0.732-2.551-1.15-2.551-1.15
				s2.709-1.449,0.072-2.972c-0.021-0.012-0.042-0.024-0.063-0.036c-2.743-1.536-6.839-2.044-6.839-2.044
				S379.417,133.42,377.18,132.128"/>
			<path style="fill:#82ACFF;" d="M378.003,169.967c-0.977-0.564-1.792-1.822-1.991-2.989c-0.055-0.297,0.113-0.457,0.35-0.32
				l3.294,1.902c0.237,0.137,0.404,0.49,0.354,0.727C379.799,170.217,378.98,170.531,378.003,169.967 M389.952,167.225
				c-0.001,0.001-0.001,0.001-0.002,0.002c0,0,0,0,0,0c-1.908,2.174-4.831,2.927-8.26,1.943c-0.841-1.763-2.165-3.363-3.672-4.233
				c-1.501-0.866-2.836-0.802-3.684-0.014c-3.424-2.973-6.328-7.092-8.217-11.46l-0.19,5.441c-0.008,0.178-0.012,0.358-0.014,0.538
				c-0.062,7.52,5.242,16.795,11.867,20.621l0.398,0.23c6.625,3.825,11.957,0.69,11.944-6.873c0-0.182-0.004-0.366-0.01-0.552
				l-0.071-2.528L389.952,167.225"/>
			<path style="fill:#8DB9FF;" d="M379.657,168.56l-3.294-1.902c-0.237-0.137-0.406,0.023-0.35,0.32
				c0.199,1.167,1.014,2.425,1.991,2.989c0.977,0.564,1.796,0.25,2.008-0.68C380.061,169.05,379.895,168.697,379.657,168.56"/>
		</g>
		<g>
			<path style="fill:#FF5D9E;" d="M326.918,114.26l-48.873-28.217c-3.457-1.996-6.269-0.394-6.28,3.579
				c-0.011,3.973,2.782,8.811,6.239,10.807l43.98,25.392c2.272,1.312,4.461,3.539,6.155,6.258l2.02,3.242
				c0.35,0.564,0.765,0.966,1.172,1.2c0.917,0.53,1.793,0.209,1.797-1.018l0.03-10.436
				C333.168,121.094,330.375,116.256,326.918,114.26"/>
		</g>
		<g>
			<path style="fill:#8F71FF;" d="M328.232,144.792l-38.577-22.272c-2.729-1.576-4.948-0.311-4.957,2.825
				c-0.009,3.136,2.196,6.955,4.925,8.53l34.715,20.042c1.794,1.036,3.522,2.794,4.858,4.939l1.595,2.559
				c0.276,0.445,0.604,0.762,0.925,0.947c0.724,0.418,1.415,0.165,1.418-0.803l0.023-8.238
				C333.166,150.186,330.961,146.368,328.232,144.792"/>
		</g>
		<g>
			<path style="fill:#FF5D9E;" d="M326.918,165.842l-48.873-28.217c-3.457-1.996-6.269-0.394-6.28,3.579
				c-0.011,3.973,2.782,8.811,6.239,10.807l43.98,25.392c2.272,1.312,4.461,3.539,6.155,6.258l2.02,3.242
				c0.35,0.564,0.765,0.966,1.172,1.2c0.917,0.53,1.793,0.209,1.797-1.018l0.03-10.436
				C333.168,172.676,330.375,167.838,326.918,165.842"/>
		</g>
		<g>
			<path style="fill:#8F71FF;" d="M329.067,196.253l-32.036-18.496c-2.266-1.309-4.109-0.258-4.117,2.346
				c-0.007,2.604,1.824,5.775,4.09,7.084l28.828,16.644c1.49,0.86,2.925,2.32,4.035,4.102l1.324,2.125
				c0.23,0.37,0.501,0.633,0.768,0.787c0.601,0.347,1.176,0.137,1.178-0.667l0.019-6.841
				C333.165,200.732,331.334,197.561,329.067,196.253"/>
		</g>
		<g>
			<path style="fill:#82ACFF;" d="M279.892,45.627l-5.021-2.899c-0.981-0.567-2.58-0.05-2.58,1.484l8.571,4.949l0.799-0.469
				C281.665,47.564,280.874,46.194,279.892,45.627"/>
		</g>
		<g>
			<path style="fill:#94BDFF;" d="M279.093,46.096l-5.021-2.899c-0.982-0.567-1.778-0.113-1.781,1.015l8.571,4.949
				C280.866,48.033,280.075,46.662,279.093,46.096"/>
		</g>
		<g>
			<path style="fill:#82ACFF;" d="M292.797,53.127l-5.021-2.899c-0.982-0.567-2.58-0.049-2.58,1.484l8.571,4.949l0.799-0.469
				C294.57,55.064,293.779,53.694,292.797,53.127"/>
		</g>
		<g>
			<path style="fill:#94BDFF;" d="M291.998,53.596l-5.021-2.899c-0.982-0.567-1.778-0.113-1.781,1.015l8.571,4.949
				C293.771,55.533,292.98,54.163,291.998,53.596"/>
		</g>
		<g>
			<path style="fill:#4F7CB2;" d="M408.118,223.41l-60.335-34.835c-2.171-1.253-3.932-0.249-3.939,2.245
				c-0.007,2.488,1.743,5.525,3.914,6.779l60.335,34.835c2.166,1.25,3.932,0.244,3.939-2.245
				C412.039,227.694,410.284,224.66,408.118,223.41"/>
		</g>
		<g>
			<path style="fill:#4268A0;" d="M388.952,228.687l-31.388-18.122c-1.129-0.652-2.046-0.13-2.049,1.168
				c-0.004,1.294,0.907,2.874,2.036,3.526l31.388,18.122c1.127,0.65,2.046,0.127,2.049-1.168
				C390.992,230.915,390.079,229.337,388.952,228.687"/>
		</g>
		<g>
			<polygon style="fill:#82ACFF;" points="385.773,239.737 347.415,217.591 347.402,222.242 385.76,244.388 			"/>
			<polygon style="fill:#82ACFF;" points="388.28,241.184 388.267,245.835 399.131,252.108 399.145,247.457 			"/>
			<polygon style="fill:#82ACFF;" points="347.38,229.97 363.633,239.354 363.646,234.703 347.393,225.32 			"/>
			<polygon style="fill:#82ACFF;" points="366.559,241.043 390.835,255.059 390.848,250.408 366.572,236.393 			"/>
			<polygon style="fill:#82ACFF;" points="393.677,256.7 399.109,259.836 399.123,255.186 393.69,252.049 			"/>
			<polygon style="fill:#82ACFF;" points="347.358,237.703 361.436,245.831 361.449,241.176 347.371,233.048 			"/>
			<polygon style="fill:#82ACFF;" points="364.074,247.354 369.507,250.491 369.52,245.835 364.088,242.699 			"/>
		</g>
	</g>
	<g>
		<polygon style="opacity:0.4;fill:#CCCCCC;" points="212.791,302.871 254.163,278.943 295.608,302.726 254.163,326.798 		"/>
		<path style="fill:#4268A0;" d="M277.17,277.933c0.371-3.681-1.877-7.439-6.75-10.252c-9.017-5.206-23.59-5.206-32.549,0
			c-4.14,2.406-6.353,5.503-6.65,8.653h-0.039v24.639h0c0.019,3.412,2.286,6.824,6.794,9.427c9.017,5.206,23.59,5.206,32.549,0
			c4.48-2.603,6.708-6.016,6.688-9.428L277.17,277.933z"/>
		<polygon style="fill:#345882;" points="212.791,278.943 212.791,277.108 254.163,255.015 295.608,276.964 295.608,278.798 
			254.163,302.871 		"/>
		<polygon style="fill:#4F7CB2;" points="212.791,277.108 254.163,253.18 295.608,276.964 254.163,301.036 		"/>
		<g>
			<polygon style="fill:#FF5D9E;" points="275.234,301.347 274.317,301.347 274.317,289.262 254.017,277.542 254.476,276.748 
				275.234,288.732 			"/>
		</g>
		<g>
			<path style="fill:#FF7BB7;" d="M258.016,274.888c-2.122-1.225-5.55-1.225-7.663,0.003c-2.108,1.225-2.097,3.211,0.025,4.436
				c2.126,1.228,5.555,1.228,7.663,0.003C260.154,278.101,260.142,276.115,258.016,274.888"/>
		</g>
		<path style="fill:#FF7BB7;" d="M274.799,297.79c-1.152,0-1.05,2.113-1.05,2.113l0.008,0c-0.022,0.171,0.075,0.347,0.302,0.478
			c0.412,0.238,1.077,0.238,1.485,0c0.205-0.119,0.307-0.275,0.306-0.43l0,0C275.849,299.952,275.951,297.79,274.799,297.79z"/>
		<path style="fill:#FF5D9E;" d="M274.799,298.858c-3.208,0-2.925,5.885-2.925,5.885l0.021,0c-0.062,0.477,0.21,0.966,0.842,1.331
			c1.148,0.663,2.999,0.663,4.137,0.001c0.57-0.331,0.854-0.765,0.851-1.199l0,0C277.724,304.876,278.007,298.858,274.799,298.858z"
			/>
		<g>
			<path style="fill:#345882;" d="M285.818,293.331c2.087,2.069,4.807,2.241,6.873,0.967c7.354-4.535,6.989-5.715,6.55-6.241
				c-1.873-2.245-6.165-2.459-13.915,2.493l0.013,1.537C285.274,292.556,285.481,292.997,285.818,293.331z"/>
			<path style="fill:#BBF1FF;" d="M285.768,291.341c2.623,2.031,5.185,1.012,6.273,0.4c0.343-0.193,0.563-0.543,0.599-0.935
				l1.008-10.869l-8.485,4.928l0.16,5.556C285.332,290.777,285.487,291.123,285.768,291.341z"/>
			<path style="fill:#BBF1FF;" d="M291.722,261.722c-1.879-1.033-14.507-1.669-14.507-1.669c-11.13-5.189-16.535-5.278-20.578-3.729
				c-2.351,0.901-3.522,1.935-3.522,1.935l-0.553,3.48c0,0-0.074,2.826,0.102,4.217c1.144,9.009,14.738,11.921,31.457,4.924
				l0.65,0.344l9.231,4.889l0.605-6.575c0-0.003,0.085-0.91,0.188-2.014C295.017,265.151,293.81,262.87,291.722,261.722z"/>
			<path style="fill:#FFEAD4;" d="M251.365,237.313l0.167,4.438c0.046,1.222,0.461,2.401,1.189,3.383l5.264,7.094l2.348-14.702
				L251.365,237.313z"/>
			<path style="fill:#FF7BB7;" d="M254.798,223.706c0,0-3.579,3.31-4.875,11.05c-0.188,1.123,0.432,2.24,1.442,2.556l3.77,1.179
				L254.798,223.706z"/>
			<path style="fill:#FF5D9E;" d="M256.942,222.315c4.027-1.5,6.534-1.967,14.775,1.042c2.617,0.955,5.082,3.74,5.082,6.902
				l-1.574,6.836c-1.467,6.375-0.978,13.045,1.404,19.137l2.126,5.438c0,0-13.016,9.465-26.21,0l1.704-12.076
				c0.265-1.879,0.285-3.784,0.058-5.668l-1.762-14.646C252.546,226.105,254.319,223.292,256.942,222.315z"/>
			<path style="fill:#FFEAD4;" d="M260.645,212.948c1.335-0.423,3.539-0.767,6.304,0.09c0.847,0.263,1.411,1.047,1.411,1.907v7.391
				c0,0.998-0.67,1.872-1.654,2.178c-1.417,0.44-3.577,0.816-5.801,0.101c-1.008-0.324-1.683-1.249-1.683-2.275v-7.469
				C259.222,213.999,259.788,213.219,260.645,212.948z"/>
			<path style="fill:#FFEAD4;" d="M276.153,231.008l5.163-10.445c0.233-0.472,1.17-5.854,2.388-10.042
				c0.286-0.983,1.798-2.362,1.936-3.068c0.179-0.923,1.041-2.794-1.248-4.174c-1.892-1.141-2.821,3.318-2.821,3.318
				s-1.345-1.689-1.982-1.253c-0.617,0.422,1.018,1.617,0.738,3.523c0,0-3.006,9.215-3.266,9.673l-7.192,10.643
				C269.869,229.183,272.816,233.237,276.153,231.008z"/>
			<path style="fill:#FF7BB7;" d="M272.505,224.296l5.908,2.705c0.439,0.152,0.637,0.643,0.442,1.098l-2.541,5.918
				c-1.064,2.478-3.868,3.815-6.263,2.986l0,0c-2.396-0.829-3.475-3.509-2.411-5.986l3.448-6.045
				C271.328,224.411,271.962,224.108,272.505,224.296z"/>
			<path style="fill:#FFEAD4;" d="M275.041,206.431c0,0,0,8.789,0,10.06c0,2.271-2.619,3.942-6.682,4.204
				c-4.063,0.262-5.964-9.383-5.964-9.383L275.041,206.431z"/>
			<path style="fill:#345882;" d="M275.021,205.06c0-0.001,0-0.001,0.001-0.002c0.539-4.476-1.824-7.709-6.688-8.015
				c-4.864-0.306-6.221,2.965-6.221,2.965s0.005,0.004,0.005,0.004c-2.9,1.237-5.812,3.949-6.202,8.76
				c-0.49,6.043-1,6.142-4.223,13.846c-2.786,6.66,3.208,6.585-0.01,12.249c-3.218,5.663-1.129,13.421,7.886,12.334
				c8.765-1.057,4.419-5.498,7.896-9.013c6.457-6.526,5.637-8.771,4.333-14.606s-3.307-8.081,1.596-14.133
				C274.697,207.838,275.158,206.362,275.021,205.06z"/>
		</g>
		<g>
			<path style="fill:#FF5D9E;" d="M240.035,290.258c0,0,1.829-1.612,2.449-1.209c0.62,0.403,1.457,2.573,1.178,4.867
				L240.035,290.258z"/>
			<path style="fill:#FF7BB7;" d="M237.568,287.956c0,0,1.879-1.193,2.778-0.926c0.898,0.267,2.575,1.525,2.995,1.884
				c0.419,0.359,1.018,8.022,0.479,12.276c0,0,0.146-7.488-0.877-10.941c-0.161-0.542-0.78-0.796-1.271-0.515
				c-0.555,0.317-1.244,0.771-1.685,1.276L237.568,287.956z"/>
			<path style="fill:#FF5D9E;" d="M232.922,287.747c0,0,1.375-2.013,2.076-1.776c0.7,0.238,2.046,2.134,2.342,4.427L232.922,287.747
				z"/>
			<path style="fill:#FF7BB7;" d="M229.964,286.124c0,0,1.527-1.62,2.464-1.582c0.937,0.037,2.872,0.843,3.367,1.088
				c0.495,0.245,2.964,7.523,3.491,11.779c0,0-1.705-7.293-3.547-10.387c-0.289-0.486-0.952-0.579-1.359-0.186
				c-0.459,0.444-1.015,1.054-1.318,1.652L229.964,286.124z"/>
			<g>
				<path style="fill:#ED5197;" d="M237.519,287.638c-6.311-3.949-12.521-0.429-12.532,3.49l3.938,14.211
					c-0.003,1.253,0.88,2.784,1.971,3.413l9.415,9.929c1.095,0.632,5.674-2.237,5.678-3.491l0.044-15.523
					C246.044,295.748,242.233,290.36,237.519,287.638"/>
			</g>
			<g>
				<path style="fill:#FF7BB7;" d="M233.462,289.828c-4.71-2.719-8.539-1.742-8.55,2.178l-0.044,15.523
					c-0.003,1.253,0.88,2.784,1.971,3.414l13.105,7.566c1.095,0.632,1.984,0.125,1.988-1.128l0.044-15.523
					C241.987,297.938,238.177,292.55,233.462,289.828"/>
			</g>
			<polygon style="fill:#FF5D9E;" points="224.888,300.516 241.952,310.368 241.959,307.812 224.896,297.971 			"/>
			<path style="fill:#FF7BB7;" d="M235.292,284.704c-1.079-0.622-2.133-0.701-2.967-0.22c-0.83,0.478-1.29,1.421-1.293,2.655
				c-0.001,0.424,0.341,0.769,0.766,0.77c0.001,0,0.002,0,0.002,0c0.423,0,0.767-0.342,0.768-0.766
				c0.002-0.653,0.193-1.137,0.524-1.328c0.335-0.192,0.857-0.113,1.433,0.219c1.472,0.85,2.711,2.996,2.706,4.684
				c-0.001,0.425,0.315,0.79,0.768,0.77c0.423,0,0.766-0.342,0.768-0.766C238.773,288.476,237.246,285.833,235.292,284.704z"/>
		</g>
	</g>
	<g>
		<polygon style="opacity:0.4;fill:#CCCCCC;" points="139.14,345.185 180.513,321.257 221.957,345.04 180.513,369.112 		"/>
		<path style="fill:#4268A0;" d="M203.52,320.247c0.371-3.681-1.877-7.439-6.75-10.252c-9.017-5.206-23.59-5.206-32.549,0
			c-4.14,2.406-6.353,5.503-6.65,8.653h-0.039v24.639h0c0.019,3.412,2.285,6.824,6.794,9.427c9.018,5.206,23.59,5.206,32.549,0
			c4.48-2.603,6.708-6.016,6.688-9.428L203.52,320.247z"/>
		<polygon style="fill:#345882;" points="139.14,321.257 139.14,319.422 180.513,297.329 221.957,319.278 221.957,321.112 
			180.513,345.185 		"/>
		<polygon style="fill:#4F7CB2;" points="139.14,319.422 180.513,295.494 221.957,319.278 180.513,343.35 		"/>
		<g>
			<polygon style="fill:#FF5D9E;" points="201.584,343.661 200.666,343.661 200.666,331.576 180.367,319.855 180.826,319.062 
				201.584,331.046 			"/>
		</g>
		<g>
			<path style="fill:#FF7BB7;" d="M184.366,317.202c-2.122-1.225-5.55-1.225-7.663,0.003c-2.108,1.225-2.097,3.211,0.025,4.436
				c2.126,1.228,5.555,1.228,7.663,0.003C186.503,320.415,186.492,318.429,184.366,317.202"/>
		</g>
		<path style="fill:#FF7BB7;" d="M201.148,340.104c-1.152,0-1.05,2.113-1.05,2.113l0.008,0c-0.022,0.171,0.075,0.347,0.302,0.478
			c0.412,0.238,1.077,0.238,1.485,0c0.205-0.119,0.307-0.275,0.306-0.43l0,0C202.199,342.266,202.3,340.104,201.148,340.104z"/>
		<path style="fill:#FF5D9E;" d="M201.148,341.172c-3.208,0-2.925,5.885-2.925,5.885l0.021,0c-0.062,0.477,0.21,0.966,0.842,1.331
			c1.148,0.663,2.999,0.663,4.137,0.001c0.57-0.331,0.854-0.765,0.851-1.199l0,0C204.074,347.19,204.356,341.172,201.148,341.172z"
			/>
	</g>
	<g>
		<polygon style="opacity:0.4;fill:#CCCCCC;" points="268.389,335.299 309.762,311.372 351.206,335.155 309.762,359.227 		"/>
		<path style="fill:#4268A0;" d="M332.769,310.362c0.371-3.681-1.877-7.439-6.75-10.252c-9.017-5.206-23.59-5.206-32.549,0
			c-4.14,2.406-6.353,5.503-6.649,8.653h-0.039v24.639h0c0.019,3.412,2.285,6.824,6.794,9.427c9.017,5.206,23.59,5.206,32.549,0
			c4.48-2.603,6.708-6.016,6.688-9.428L332.769,310.362z"/>
		<polygon style="fill:#345882;" points="268.389,311.372 268.389,309.537 309.762,287.444 351.206,309.392 351.206,311.227 
			309.762,335.299 		"/>
		<polygon style="fill:#4F7CB2;" points="268.389,309.537 309.762,285.609 351.206,309.392 309.762,333.465 		"/>
		<g>
			<polygon style="fill:#FF5D9E;" points="330.833,333.776 329.916,333.776 329.916,321.691 309.616,309.97 310.075,309.177 
				330.833,321.16 			"/>
		</g>
		<g>
			<path style="fill:#FF7BB7;" d="M313.615,307.317c-2.122-1.225-5.55-1.225-7.663,0.003c-2.108,1.225-2.097,3.211,0.025,4.436
				c2.126,1.228,5.555,1.228,7.663,0.002C315.753,310.53,315.741,308.544,313.615,307.317"/>
		</g>
		<path style="fill:#FF7BB7;" d="M330.398,330.22c-1.152,0-1.05,2.113-1.05,2.113l0.008,0c-0.022,0.171,0.075,0.347,0.302,0.478
			c0.412,0.238,1.077,0.238,1.485,0.001c0.205-0.119,0.306-0.275,0.306-0.43l0,0C331.448,332.38,331.549,330.22,330.398,330.22z"/>
		<path style="fill:#FF5D9E;" d="M330.398,331.286c-3.208,0-2.926,5.885-2.926,5.885l0.021,0.001
			c-0.062,0.477,0.21,0.966,0.842,1.331c1.148,0.663,2.999,0.663,4.137,0.001c0.57-0.331,0.854-0.765,0.851-1.199l0,0
			C333.323,337.305,333.606,331.286,330.398,331.286z"/>
	</g>
	<g>
		<polygon style="opacity:0.4;fill:#CCCCCC;" points="194.739,377.613 236.112,353.686 277.556,377.469 236.112,401.541 		"/>
		<path style="fill:#4268A0;" d="M259.118,352.676c0.371-3.681-1.877-7.439-6.749-10.252c-9.018-5.206-23.59-5.206-32.549,0
			c-4.14,2.406-6.353,5.503-6.65,8.653h-0.039v24.639h0c0.019,3.412,2.286,6.824,6.794,9.427c9.017,5.206,23.59,5.206,32.549,0
			c4.48-2.604,6.708-6.016,6.688-9.428L259.118,352.676z"/>
		<polygon style="fill:#345882;" points="194.739,353.686 194.739,351.851 236.112,329.758 277.556,351.707 277.556,353.541 
			236.112,377.613 		"/>
		<polygon style="fill:#4F7CB2;" points="194.739,351.851 236.112,327.923 277.556,351.707 236.112,375.779 		"/>
		<g>
			<polygon style="fill:#FF5D9E;" points="257.182,376.09 256.265,376.09 256.265,364.005 235.966,352.284 236.424,351.491 
				257.182,363.474 			"/>
		</g>
		<g>
			<path style="fill:#FF7BB7;" d="M239.965,349.631c-2.122-1.225-5.55-1.225-7.663,0.003c-2.108,1.225-2.097,3.211,0.025,4.436
				c2.126,1.227,5.555,1.227,7.663,0.002C242.102,352.844,242.091,350.858,239.965,349.631"/>
		</g>
		<path style="fill:#FF7BB7;" d="M256.747,372.534c-1.152,0-1.05,2.113-1.05,2.113l0.008,0c-0.022,0.171,0.075,0.347,0.302,0.478
			c0.412,0.238,1.077,0.238,1.485,0.001c0.205-0.119,0.307-0.275,0.306-0.43l0,0C257.797,374.694,257.899,372.534,256.747,372.534z"
			/>
		<path style="fill:#FF5D9E;" d="M256.747,373.6c-3.208,0-2.925,5.885-2.925,5.885l0.021,0.001c-0.062,0.477,0.21,0.966,0.842,1.331
			c1.148,0.663,2.999,0.663,4.137,0.001c0.57-0.331,0.854-0.765,0.851-1.199l0,0C259.673,379.619,259.955,373.6,256.747,373.6z"/>
		<g>
			<path style="fill:#345882;" d="M267.766,368.074c2.087,2.069,4.807,2.241,6.873,0.967c7.354-4.535,6.989-5.715,6.55-6.241
				c-1.873-2.245-6.165-2.458-13.915,2.493l0.013,1.537C267.222,367.299,267.43,367.74,267.766,368.074z"/>
			<path style="fill:#82ACFF;" d="M267.717,366.084c2.623,2.031,5.185,1.012,6.273,0.4c0.343-0.193,0.563-0.543,0.599-0.935
				l1.008-10.869l-8.485,4.928l0.16,5.556C267.281,365.52,267.435,365.866,267.717,366.084z"/>
			<path style="fill:#82ACFF;" d="M273.67,336.465c-1.879-1.033-14.507-1.669-14.507-1.669c-11.13-5.189-16.535-5.278-20.578-3.729
				c-2.351,0.901-3.522,1.935-3.522,1.935l-0.553,3.48c0,0-0.074,2.826,0.102,4.217c1.144,9.008,14.738,11.921,31.457,4.924
				l0.65,0.344l9.231,4.889l0.605-6.575c0-0.003,0.085-0.91,0.189-2.014C276.966,339.894,275.759,337.613,273.67,336.465z"/>
			<path style="fill:#FFEAD4;" d="M232.324,311.241l-0.327,4.429c-0.09,1.219,0.191,2.437,0.806,3.494l4.443,7.635l3.966-14.351
				L232.324,311.241z"/>
			<path style="fill:#9280FF;" d="M237.247,298.1c0,0-3.925,2.892-6.072,10.44c-0.312,1.096,0.18,2.274,1.149,2.701l3.615,1.591
				L237.247,298.1z"/>
			<path style="fill:#8F71FF;" d="M238.89,297.058c4.027-1.5,6.534-1.967,14.775,1.042c2.617,0.955,5.082,3.74,5.082,6.902
				l1.956,31.411c0,0-13.016,9.465-26.21,0v-32.39C234.494,300.848,236.267,298.035,238.89,297.058z"/>
			<path style="fill:#FFEAD4;" d="M242.593,287.691c1.335-0.422,3.538-0.767,6.304,0.09c0.847,0.263,1.411,1.047,1.411,1.906v7.391
				c0,0.998-0.67,1.872-1.654,2.178c-1.417,0.44-3.577,0.816-5.801,0.101c-1.008-0.324-1.683-1.25-1.683-2.275v-7.469
				C241.17,288.742,241.737,287.962,242.593,287.691z"/>
			<path style="fill:#FFEAD4;" d="M252.743,308.603l3.009,11.256c0.168,0.628,3.491,9.439,5.398,12.706
				c0.474,0.812,1.88,3.266,4.078,1.744c1.871-1.296,0.392-3.685,0.392-3.685s1.279,0.283,1.47-0.465
				c0.185-0.724-1.191-0.472-2.238-2.09c0,0-3.491-9.012-3.598-9.529l-1.943-12.64C259.311,305.901,253.78,304.726,252.743,308.603z
				"/>
			<path style="fill:#9280FF;" d="M259.912,311.241l-6.225,1.864c-0.43,0.175-0.903-0.063-1.057-0.534l-1.994-6.124
				c-0.835-2.564,0.391-5.418,2.738-6.376l0,0c2.347-0.957,4.926,0.345,5.761,2.909l1.396,6.818
				C260.721,310.378,260.443,311.024,259.912,311.241z"/>
			<path style="fill:#FFEAD4;" d="M256.99,281.174c0,0,0,8.789,0,10.06c0,2.271-2.619,3.942-6.682,4.204
				c-4.063,0.262-5.964-9.383-5.964-9.383L256.99,281.174z"/>
			<path style="fill:#345882;" d="M255.367,273.782c-0.431,0-0.83,0.216-1.182,0.564c0.644-2.258,0.19-4.328-1.072-4.687
				c-1.309-0.372-2.979,1.233-3.731,3.585c-0.13,0.406-0.211,0.803-0.271,1.192c-0.404-1.101-1.114-1.831-1.85-1.764
				c-1.008,0.091-1.675,1.635-1.491,3.447c0.004,0.043,0.015,0.082,0.02,0.125c-3.132,0.57-6.158,2.065-7.483,5.125
				c-0.288-0.293-0.558-0.453-0.663-0.37c-0.106,0.083-0.014,0.382,0.202,0.732c-0.349-0.09-0.62-0.091-0.668,0.022
				c-0.063,0.148,0.277,0.43,0.765,0.656c-0.516,1.876-0.473,4.241,0.427,7.227c0.412,1.368,2.144,5.316,2.144,5.316
				c0.376,0.933,1.324,1.55,2.382,1.55h3.262c0.583-0.214,1.407-0.516,1.99-0.73l0.839-0.712c0.427-0.362,0.731-0.848,0.87-1.39
				l1.066-4.15c0.059-0.23-0.008-0.47-0.181-0.632c-0.501-0.47-1.78-1.622-0.64-3.088c0.744-0.957,2.716-0.366,2.661,0.915
				l0.07,1.108c0.022,0.343,0.307,0.611,0.651,0.611h0.066c0.365,0,0.656-0.299,0.652-0.664c-0.013-1.063,0.099-3.091,1.089-3.738
				c1.364-0.891,1.888-2.706,1.888-2.706s0.009-0.05,0.019-0.125c0.396-0.789,0.644-1.824,0.644-2.97
				C257.841,275.774,256.733,273.782,255.367,273.782z"/>
		</g>
		<g>
			<path style="fill:#79D9E8;" d="M220.36,367.2c0,0,1.829-1.612,2.449-1.209c0.62,0.403,1.457,2.573,1.178,4.867L220.36,367.2z"/>
			<path style="fill:#BBF1FF;" d="M217.893,364.898c0,0,1.879-1.193,2.778-0.926c0.898,0.267,2.575,1.525,2.995,1.884
				c0.419,0.359,1.018,8.022,0.479,12.276c0,0,0.146-7.488-0.877-10.941c-0.161-0.542-0.781-0.796-1.271-0.515
				c-0.555,0.317-1.244,0.771-1.685,1.276L217.893,364.898z"/>
			<path style="fill:#79D9E8;" d="M213.247,364.689c0,0,1.375-2.013,2.076-1.776s2.047,2.134,2.342,4.427L213.247,364.689z"/>
			<path style="fill:#BBF1FF;" d="M210.288,363.066c0,0,1.527-1.62,2.464-1.582c0.937,0.037,2.872,0.843,3.367,1.088
				s2.964,7.523,3.491,11.779c0,0-1.705-7.293-3.547-10.387c-0.289-0.486-0.953-0.579-1.359-0.186
				c-0.459,0.444-1.015,1.054-1.318,1.651L210.288,363.066z"/>
			<g>
				<path style="fill:#90E1F4;" d="M217.844,364.58c-6.311-3.949-12.521-0.429-12.532,3.49l3.938,14.211
					c-0.004,1.253,0.88,2.784,1.971,3.414l9.415,9.929c1.095,0.632,5.674-2.237,5.678-3.491l0.044-15.523
					C226.369,372.69,222.558,367.302,217.844,364.58"/>
			</g>
			<g>
				<path style="fill:#BBF1FF;" d="M213.787,366.771c-4.71-2.72-8.539-1.742-8.55,2.177l-0.044,15.523
					c-0.003,1.253,0.88,2.784,1.971,3.414l13.105,7.566c1.095,0.632,1.984,0.125,1.988-1.128l0.044-15.523
					C222.312,374.88,218.501,369.492,213.787,366.771"/>
			</g>
			<polygon style="fill:#79D9E8;" points="205.213,377.458 222.277,387.31 222.284,384.754 205.22,374.913 			"/>
			<path style="fill:#BBF1FF;" d="M215.616,361.646c-1.079-0.622-2.133-0.701-2.967-0.22c-0.83,0.478-1.29,1.421-1.293,2.655
				c-0.001,0.424,0.342,0.769,0.766,0.77c0.001,0,0.002,0,0.002,0c0.423,0,0.767-0.342,0.768-0.766
				c0.002-0.653,0.193-1.137,0.524-1.328c0.335-0.192,0.857-0.113,1.433,0.219c1.472,0.85,2.711,2.996,2.706,4.684
				c-0.001,0.425,0.316,0.79,0.768,0.77c0.423,0,0.766-0.342,0.768-0.766C219.097,365.419,217.571,362.775,215.616,361.646z"/>
		</g>
	</g>
	<g>
		<polygon style="opacity:0.4;fill:#CCCCCC;" points="48.982,290.56 76.345,306.358 213.16,227.368 213.16,225.513 185.797,211.57 
			48.982,288.705 		"/>
		<g>
			<path style="fill:#4F7CB2;" d="M211.374,217.931c-1.051,0-1.904-0.853-1.904-1.904v-90.462c0-2.445-1.317-4.721-3.437-5.939
				l-15.761-9.056c-0.873-0.502-1.916-0.501-2.788,0.005c-0.873,0.505-1.393,1.408-1.393,2.416v87.414
				c0,1.052-0.853,1.904-1.904,1.904c-1.051,0-1.904-0.853-1.904-1.904V112.99c0-2.383,1.231-4.519,3.294-5.713
				c2.061-1.193,4.527-1.198,6.594-0.01l15.76,9.056c3.298,1.895,5.348,5.436,5.348,9.241v90.462
				C213.278,217.079,212.426,217.931,211.374,217.931z"/>
		</g>
		<g>
			<path style="fill:#4F7CB2;" d="M212.168,231.629c-1.052,0-1.904-0.853-1.904-1.904v-9.671c0-1.766-0.953-3.408-2.486-4.284
				l-22.32-12.754c-0.532-0.303-1-0.099-1.176,0.004c-0.177,0.102-0.587,0.407-0.587,1.02v8.148c0,1.052-0.853,1.904-1.904,1.904
				s-1.904-0.853-1.904-1.904v-8.148c0-1.798,0.928-3.411,2.484-4.313c1.556-0.903,3.416-0.908,4.977-0.017l22.32,12.754
				c2.717,1.553,4.405,4.462,4.405,7.591v9.671C214.072,230.777,213.22,231.629,212.168,231.629z"/>
		</g>
		<polygon style="fill:#6B9CE8;" points="49.892,279.66 76.952,295.283 212.25,217.168 212.25,215.334 185.19,201.546 
			49.892,277.826 		"/>
		<polygon style="fill:#82ACFF;" points="49.892,277.826 76.952,293.448 212.25,215.334 185.19,199.711 		"/>
		<g>
			<polygon style="fill:#BBF1FF;" points="186.985,227.728 186.985,186.865 196.525,181.357 196.525,222.221 			"/>
			<polygon style="fill:#D9FAFF;" points="188.464,220.539 188.464,192.346 195.046,188.546 195.046,216.739 			"/>
			<polygon style="fill:#90E1F4;" points="186.985,189.851 186.985,189.132 196.525,183.624 196.525,184.344 			"/>
			<polygon style="fill:#90E1F4;" points="186.985,191.622 186.985,190.903 196.525,185.395 196.525,186.115 			"/>
			<polygon style="fill:#90E1F4;" points="186.985,224.126 186.985,223.407 196.525,217.899 196.525,218.618 			"/>
			<polygon style="fill:#90E1F4;" points="186.985,225.897 186.985,225.178 196.525,219.67 196.525,220.389 			"/>
			<polygon style="fill:#90E1F4;" points="186.985,186.865 163.248,173.024 163.248,214.347 186.985,227.728 			"/>
			<polygon style="fill:#A2ECF9;" points="196.525,181.357 172.673,167.583 163.248,173.024 186.985,186.865 			"/>
			<polygon style="fill:#FFFFFF;" points="163.857,172.672 187.06,186.2 195.451,181.355 172.157,167.88 			"/>
		</g>
		<g>
			<polygon style="fill:#9280FF;" points="172.743,235.966 172.743,195.102 182.283,189.595 182.283,230.458 			"/>
			<polygon style="fill:#A399FF;" points="174.222,228.777 174.222,200.584 180.804,196.783 180.804,224.977 			"/>
			<polygon style="fill:#6E5BDD;" points="172.743,198.089 172.743,197.37 182.283,191.862 182.283,192.581 			"/>
			<polygon style="fill:#6E5BDD;" points="172.743,199.86 172.743,199.141 182.283,193.633 182.283,194.352 			"/>
			<polygon style="fill:#6E5BDD;" points="172.743,232.364 172.743,231.644 182.283,226.137 182.283,226.856 			"/>
			<polygon style="fill:#6E5BDD;" points="172.743,234.135 172.743,233.415 182.283,227.908 182.283,228.627 			"/>
			<polygon style="fill:#836EF9;" points="172.743,195.102 149.006,181.261 149.006,222.585 172.743,235.966 			"/>
			<polygon style="fill:#6E5BDD;" points="182.283,189.595 158.43,175.82 149.006,181.261 172.743,195.102 			"/>
			<polygon style="fill:#FFFFFF;" points="149.615,180.91 172.818,194.437 181.209,189.593 157.915,176.118 			"/>
		</g>
		<g>
			<polygon style="fill:#BBF1FF;" points="157.995,244.644 157.995,203.781 167.535,198.273 167.535,239.136 			"/>
			<polygon style="fill:#D9FAFF;" points="159.474,237.455 159.474,209.262 166.056,205.462 166.056,233.655 			"/>
			<polygon style="fill:#90E1F4;" points="157.995,206.767 157.995,206.048 167.535,200.54 167.535,201.259 			"/>
			<polygon style="fill:#90E1F4;" points="157.995,208.538 157.995,207.818 167.535,202.311 167.535,203.03 			"/>
			<polygon style="fill:#90E1F4;" points="157.995,241.042 157.995,240.322 167.535,234.815 167.535,235.534 			"/>
			<polygon style="fill:#90E1F4;" points="157.995,242.813 157.995,242.093 167.535,236.586 167.535,237.305 			"/>
			<polygon style="fill:#90E1F4;" points="157.995,203.781 134.258,189.939 134.258,231.262 157.995,244.644 			"/>
			<polygon style="fill:#A2ECF9;" points="167.535,198.273 143.682,184.498 134.258,189.939 157.995,203.781 			"/>
			<polygon style="fill:#FFFFFF;" points="134.867,189.588 158.07,203.115 166.461,198.271 143.167,184.796 			"/>
		</g>
		<g>
			<polygon style="fill:#BBF1FF;" points="142.127,253.97 142.127,213.106 151.667,207.598 151.667,248.462 			"/>
			<polygon style="fill:#D9FAFF;" points="143.606,246.781 143.606,218.587 150.188,214.787 150.188,242.981 			"/>
			<polygon style="fill:#90E1F4;" points="142.127,216.093 142.127,215.373 151.667,209.865 151.667,210.585 			"/>
			<polygon style="fill:#90E1F4;" points="142.127,217.864 142.127,217.144 151.667,211.636 151.667,212.356 			"/>
			<polygon style="fill:#90E1F4;" points="142.127,250.368 142.127,249.648 151.667,244.14 151.667,244.86 			"/>
			<polygon style="fill:#90E1F4;" points="142.127,252.139 142.127,251.419 151.667,245.911 151.667,246.631 			"/>
			<polygon style="fill:#90E1F4;" points="142.127,213.106 118.39,199.265 118.39,240.588 142.127,253.97 			"/>
			<polygon style="fill:#A2ECF9;" points="151.667,207.598 127.815,193.824 118.39,199.265 142.127,213.106 			"/>
			<polygon style="fill:#FFFFFF;" points="118.999,198.913 142.202,212.441 150.593,207.596 127.299,194.122 			"/>
		</g>
		<g>
			<polygon style="fill:#9280FF;" points="127.233,262.566 127.233,221.702 136.772,216.195 136.772,257.058 			"/>
			<polygon style="fill:#A399FF;" points="128.712,255.377 128.712,227.184 135.294,223.383 135.294,251.577 			"/>
			<polygon style="fill:#6E5BDD;" points="127.233,224.689 127.233,223.969 136.772,218.462 136.772,219.181 			"/>
			<polygon style="fill:#6E5BDD;" points="127.233,226.46 127.233,225.74 136.772,220.232 136.772,220.952 			"/>
			<polygon style="fill:#6E5BDD;" points="127.233,258.964 127.233,258.244 136.772,252.736 136.772,253.456 			"/>
			<polygon style="fill:#6E5BDD;" points="127.233,260.735 127.233,260.015 136.772,254.507 136.772,255.227 			"/>
			<polygon style="fill:#836EF9;" points="127.233,221.702 103.495,207.861 103.495,249.184 127.233,262.566 			"/>
			<polygon style="fill:#6E5BDD;" points="136.772,216.195 112.92,202.42 103.495,207.861 127.233,221.702 			"/>
			<polygon style="fill:#FFFFFF;" points="104.105,207.51 127.307,221.037 135.699,216.193 112.404,202.718 			"/>
		</g>
		<g>
			<polygon style="fill:#FF7BB7;" points="109.735,272.737 109.735,231.873 119.275,226.365 119.275,267.229 			"/>
			<polygon style="fill:#FFA4D2;" points="111.214,265.548 111.214,237.354 117.796,233.554 117.796,261.748 			"/>
			<polygon style="fill:#ED5197;" points="109.735,234.86 109.735,234.14 119.275,228.633 119.275,229.352 			"/>
			<polygon style="fill:#ED5197;" points="109.735,236.631 109.735,235.911 119.275,230.403 119.275,231.123 			"/>
			<polygon style="fill:#ED5197;" points="109.735,269.135 109.735,268.415 119.275,262.907 119.275,263.627 			"/>
			<polygon style="fill:#ED5197;" points="109.735,270.906 109.735,270.186 119.275,264.678 119.275,265.398 			"/>
			<polygon style="fill:#FF5D9E;" points="109.735,231.873 85.998,218.032 85.998,259.355 109.735,272.737 			"/>
			<polygon style="fill:#ED5197;" points="119.275,226.365 95.423,212.591 85.998,218.032 109.735,231.873 			"/>
			<polygon style="fill:#FFFFFF;" points="86.607,217.68 109.81,231.208 118.201,226.363 94.907,212.889 			"/>
		</g>
		<polygon style="fill:#6B9CE8;" points="49.892,210.543 76.952,226.166 212.25,148.051 212.25,146.217 185.19,132.429 
			49.892,208.709 		"/>
		<polygon style="fill:#82ACFF;" points="49.892,208.709 76.952,224.331 212.25,146.217 185.19,130.594 		"/>
		<g>
			<polygon style="fill:#FF7BB7;" points="146.439,182.978 146.439,142.114 155.979,136.607 155.979,177.47 			"/>
			<polygon style="fill:#FFA4D2;" points="147.918,175.789 147.918,147.596 154.5,143.796 154.5,171.989 			"/>
			<polygon style="fill:#ED5197;" points="146.439,145.101 146.439,144.382 155.979,138.874 155.979,139.593 			"/>
			<polygon style="fill:#ED5197;" points="146.439,146.872 146.439,146.152 155.979,140.645 155.979,141.364 			"/>
			<polygon style="fill:#ED5197;" points="146.439,179.376 146.439,178.656 155.979,173.148 155.979,173.868 			"/>
			<polygon style="fill:#ED5197;" points="146.439,181.147 146.439,180.427 155.979,174.919 155.979,175.639 			"/>
			<polygon style="fill:#FF5D9E;" points="146.439,142.114 122.702,128.273 122.702,169.596 146.439,182.978 			"/>
			<polygon style="fill:#ED5197;" points="155.979,136.607 132.127,122.832 122.702,128.273 146.439,142.114 			"/>
			<polygon style="fill:#FFFFFF;" points="123.311,127.922 146.514,141.449 154.906,136.605 131.611,123.13 			"/>
		</g>
		<g>
			<polygon style="fill:#BBF1FF;" points="131.061,191.712 131.061,150.848 140.601,145.34 140.601,186.204 			"/>
			<polygon style="fill:#D9FAFF;" points="132.54,184.523 132.54,156.329 139.122,152.529 139.122,180.723 			"/>
			<polygon style="fill:#90E1F4;" points="131.061,153.835 131.061,153.115 140.601,147.607 140.601,148.327 			"/>
			<polygon style="fill:#90E1F4;" points="131.061,155.606 131.061,154.886 140.601,149.378 140.601,150.098 			"/>
			<polygon style="fill:#90E1F4;" points="131.061,188.11 131.061,187.39 140.601,181.882 140.601,182.602 			"/>
			<polygon style="fill:#90E1F4;" points="131.061,189.881 131.061,189.161 140.601,183.653 140.601,184.373 			"/>
			<polygon style="fill:#90E1F4;" points="131.061,150.848 107.324,137.007 107.324,178.33 131.061,191.712 			"/>
			<polygon style="fill:#A2ECF9;" points="140.601,145.34 116.748,131.566 107.324,137.007 131.061,150.848 			"/>
			<polygon style="fill:#FFFFFF;" points="107.933,136.655 131.136,150.183 139.527,145.338 116.233,131.864 			"/>
		</g>
		<g>
			<polygon style="fill:#FF7BB7;" points="116.165,200.568 116.165,159.704 125.705,154.197 125.705,195.06 			"/>
			<polygon style="fill:#FFA4D2;" points="117.644,193.379 117.644,165.186 124.226,161.385 124.226,189.579 			"/>
			<polygon style="fill:#ED5197;" points="116.165,162.691 116.165,161.971 125.705,156.464 125.705,157.183 			"/>
			<polygon style="fill:#ED5197;" points="116.165,164.462 116.165,163.742 125.705,158.234 125.705,158.954 			"/>
			<polygon style="fill:#ED5197;" points="116.165,196.966 116.165,196.246 125.705,190.738 125.705,191.458 			"/>
			<polygon style="fill:#ED5197;" points="116.165,198.737 116.165,198.017 125.705,192.509 125.705,193.229 			"/>
			<polygon style="fill:#FF5D9E;" points="116.165,159.704 92.428,145.863 92.428,187.186 116.165,200.568 			"/>
			<polygon style="fill:#ED5197;" points="125.705,154.197 101.852,140.422 92.428,145.863 116.165,159.704 			"/>
			<polygon style="fill:#FFFFFF;" points="93.037,145.512 116.239,159.039 124.631,154.195 101.337,140.72 			"/>
		</g>
		<g>
			<polygon style="fill:#9280FF;" points="101.005,209.37 101.005,168.507 110.545,162.999 110.545,203.862 			"/>
			<polygon style="fill:#A399FF;" points="102.484,202.181 102.484,173.988 109.066,170.188 109.066,198.381 			"/>
			<polygon style="fill:#6E5BDD;" points="101.005,171.493 101.005,170.774 110.545,165.266 110.545,165.985 			"/>
			<polygon style="fill:#6E5BDD;" points="101.005,173.264 101.005,172.545 110.545,167.037 110.545,167.756 			"/>
			<polygon style="fill:#6E5BDD;" points="101.005,205.768 101.005,205.048 110.545,199.541 110.545,200.26 			"/>
			<polygon style="fill:#6E5BDD;" points="101.005,207.539 101.005,206.82 110.545,201.312 110.545,202.031 			"/>
			<polygon style="fill:#836EF9;" points="101.005,168.507 77.268,154.665 77.268,195.989 101.005,209.37 			"/>
			<polygon style="fill:#6E5BDD;" points="110.545,162.999 86.693,149.224 77.268,154.665 101.005,168.507 			"/>
			<polygon style="fill:#FFFFFF;" points="77.877,154.314 101.08,167.842 109.471,162.997 86.177,149.522 			"/>
		</g>
		<g>
			<polygon style="fill:#FF7BB7;" points="85.44,217.931 85.44,177.068 94.98,171.56 94.98,212.423 			"/>
			<polygon style="fill:#FFA4D2;" points="86.92,210.742 86.92,182.549 93.502,178.749 93.502,206.942 			"/>
			<polygon style="fill:#ED5197;" points="85.44,180.054 85.44,179.335 94.98,173.827 94.98,174.546 			"/>
			<polygon style="fill:#ED5197;" points="85.44,181.825 85.44,181.106 94.98,175.598 94.98,176.317 			"/>
			<polygon style="fill:#ED5197;" points="85.44,214.329 85.44,213.609 94.98,208.102 94.98,208.821 			"/>
			<polygon style="fill:#ED5197;" points="85.44,216.1 85.44,215.38 94.98,209.873 94.98,210.592 			"/>
			<polygon style="fill:#FF5D9E;" points="85.44,177.068 61.703,163.226 61.703,204.55 85.44,217.931 			"/>
			<polygon style="fill:#ED5197;" points="94.98,171.56 71.128,157.785 61.703,163.226 85.44,177.068 			"/>
			<polygon style="fill:#FFFFFF;" points="62.313,162.875 85.515,176.402 93.907,171.558 70.612,158.083 			"/>
		</g>
		<g>
			<path style="fill:#4F7CB2;" d="M77.543,295.353c-1.052,0-1.904-0.853-1.904-1.904v-90.462c0-2.445-1.317-4.721-3.437-5.939
				l-15.76-9.057c-0.873-0.502-1.916-0.501-2.788,0.005c-0.873,0.505-1.393,1.408-1.393,2.416v87.414
				c0,1.052-0.853,1.904-1.904,1.904c-1.052,0-1.904-0.853-1.904-1.904v-87.414c0-2.383,1.231-4.519,3.294-5.712
				c2.061-1.193,4.527-1.198,6.593-0.01l15.761,9.056c3.298,1.895,5.348,5.436,5.348,9.241v90.462
				C79.447,294.5,78.595,295.353,77.543,295.353z"/>
		</g>
		<g>
			<path style="fill:#4F7CB2;" d="M78.337,309.051c-1.052,0-1.904-0.853-1.904-1.904v-9.672c0-1.766-0.952-3.408-2.486-4.284
				l-22.32-12.754c-0.532-0.303-1-0.099-1.176,0.004c-0.177,0.102-0.587,0.407-0.587,1.02v8.148c0,1.051-0.853,1.904-1.904,1.904
				c-1.052,0-1.904-0.853-1.904-1.904v-8.148c0-1.798,0.928-3.411,2.484-4.313c1.556-0.903,3.416-0.908,4.977-0.017l22.321,12.754
				c2.717,1.553,4.405,4.462,4.405,7.591v9.672C80.241,308.198,79.389,309.051,78.337,309.051z"/>
		</g>
	</g>
	<g>
		<g style="opacity:0.4;">
			<path style="fill:#CCCCCC;" d="M153.001,292.662c-8.04-4.642-21.031-4.642-29.035,0.01c-7.988,4.642-7.945,12.167,0.095,16.809
				c8.056,4.651,21.048,4.651,29.036,0.009C161.099,304.838,161.057,297.313,153.001,292.662"/>
		</g>
		<path style="fill:#345882;" d="M132.354,307.359c0,0-8.333-4.293-7.152-6.119c1.181-1.826,9.94,0.99,10.853,1.672
			C136.968,303.594,138.029,309.234,132.354,307.359z"/>
		<path style="fill:#345882;" d="M144.818,300.696c0,0-8.333-4.293-7.152-6.119c1.181-1.826,9.94,0.99,10.853,1.672
			C149.432,296.931,150.492,302.571,144.818,300.696z"/>
		<path style="fill:#82ACFF;" d="M129.465,258.172l1.251,45.165c0,1.421,0.814,2.717,2.095,3.333l0,0
			c1.693,0.815,3.684-0.279,3.904-2.145l1.062-20.245l3.215-11.813l2.549,24.424c0.08,1.47,0.94,2.785,2.254,3.449l0,0
			c1.39,0.702,3.061-0.159,3.296-1.698l2.562-25.595c0.044-0.29,0.078-0.582,0.102-0.875l1.111-13.999H129.465z"/>
		<path style="fill:#FFEAD4;" d="M156.52,233l0.327,4.429c0.09,1.219-0.191,2.437-0.806,3.494l-4.443,7.635l-3.966-14.351
			L156.52,233z"/>
		<path style="fill:#D9FAFF;" d="M151.597,219.859c0,0,3.925,2.892,6.072,10.441c0.312,1.096-0.18,2.274-1.149,2.701l-3.615,1.591
			L151.597,219.859z"/>
		<path style="fill:#BBF1FF;" d="M149.954,218.817c-4.027-1.501-6.534-1.967-14.775,1.042c-2.617,0.955-5.082,3.74-5.082,6.902
			l-0.63,31.411c0,0,10.321,9.465,23.514,0l-0.113-16.687l1.482-15.703C154.35,222.607,152.577,219.794,149.954,218.817z"/>
		<path style="fill:#FFEAD4;" d="M146.251,209.45c-1.335-0.423-3.538-0.767-6.304,0.09c-0.847,0.263-1.411,1.047-1.411,1.906
			l0,7.391c0,0.998,0.67,1.872,1.654,2.178c1.417,0.44,3.577,0.816,5.801,0.101c1.008-0.324,1.683-1.249,1.683-2.275v-7.469
			C147.674,210.501,147.107,209.721,146.251,209.45z"/>
		<path style="fill:#FFEAD4;" d="M127.899,226.64l-10.014-5.956c-0.558-0.332-8.134-5.926-10.759-8.65
			c-0.653-0.677-2.632-2.697-0.57-4.399c1.756-1.448,3.653,0.625,3.653,0.625s0.076-1.307,0.847-1.288
			c0.747,0.018,0.13,1.274,1.402,2.722c0,0,7.723,5.81,8.191,6.053l11.635,5.307C132.285,221.054,131.912,226.696,127.899,226.64z"
			/>
		<path style="fill:#D9FAFF;" d="M127.309,219.023l-3.486,5.483c-0.286,0.367-0.185,0.887,0.226,1.162l5.351,3.584
			c2.24,1.501,5.32,1.097,6.88-0.901l0,0c1.559-1.998,1.008-4.835-1.233-6.335l-6.181-3.197
			C128.359,218.48,127.662,218.571,127.309,219.023z"/>
		<path style="fill:#FFEAD4;" d="M131.854,202.933c0,0,0,8.789,0,10.06c0,2.271,2.619,3.942,6.682,4.204
			c4.063,0.262,5.964-9.383,5.964-9.383L131.854,202.933z"/>
		<path style="fill:#345882;" d="M133.477,195.541c0.431,0,0.83,0.216,1.182,0.564c-0.644-2.258-0.19-4.328,1.072-4.687
			c1.309-0.372,2.979,1.233,3.731,3.585c0.13,0.406,0.211,0.803,0.271,1.192c0.404-1.101,1.114-1.831,1.85-1.764
			c1.008,0.092,1.675,1.635,1.491,3.447c-0.004,0.043-0.015,0.082-0.02,0.125c3.132,0.569,6.158,2.065,7.482,5.125
			c0.288-0.293,0.558-0.453,0.663-0.37c0.106,0.083,0.014,0.382-0.202,0.732c0.349-0.09,0.62-0.092,0.668,0.022
			c0.063,0.148-0.277,0.43-0.765,0.656c0.516,1.876,0.473,4.241-0.427,7.227c-0.412,1.368-2.144,5.316-2.144,5.316
			c-0.376,0.933-1.325,1.55-2.383,1.55h-3.262c-0.583-0.214-1.407-0.516-1.99-0.73l-0.84-0.712c-0.427-0.362-0.731-0.848-0.87-1.39
			l-1.066-4.15c-0.059-0.23,0.008-0.47,0.181-0.632c0.501-0.47,1.78-1.622,0.641-3.088c-0.744-0.957-2.716-0.366-2.661,0.915
			l-0.07,1.107c-0.022,0.344-0.307,0.611-0.651,0.611h-0.066c-0.365,0-0.656-0.299-0.652-0.664c0.013-1.063-0.099-3.091-1.089-3.738
			c-1.364-0.891-1.888-2.706-1.888-2.706s-0.009-0.05-0.019-0.125c-0.396-0.789-0.644-1.824-0.644-2.97
			C131.002,197.533,132.11,195.541,133.477,195.541z"/>
	</g>
	<g>
		<g>
			<path style="fill:#345882;" d="M335.737,429.857c-0.741,0-1.342-0.601-1.342-1.342v-51.209c0-1.723-0.928-3.327-2.422-4.185
				l-11.106-6.382c-0.615-0.354-1.35-0.353-1.965,0.003c-0.615,0.356-0.982,0.992-0.982,1.702v49.061
				c0,0.741-0.601,1.342-1.342,1.342s-1.342-0.601-1.342-1.342v-49.061c0-1.68,0.868-3.184,2.321-4.025
				c1.452-0.841,3.19-0.844,4.646-0.007l11.106,6.382c2.324,1.336,3.768,3.831,3.768,6.512v51.209
				C337.079,429.256,336.478,429.857,335.737,429.857z"/>
		</g>
		<g>
			<path style="fill:#345882;" d="M354.601,419.103c-0.741,0-1.342-0.601-1.342-1.342v-51.209c0-1.723-0.928-3.327-2.422-4.185
				l-11.106-6.382c-0.615-0.353-1.35-0.353-1.965,0.003c-0.615,0.356-0.982,0.992-0.982,1.702v49.061
				c0,0.741-0.601,1.342-1.342,1.342s-1.342-0.601-1.342-1.342v-49.061c0-1.679,0.868-3.184,2.321-4.025
				c1.453-0.841,3.19-0.844,4.646-0.007l11.106,6.382c2.324,1.336,3.768,3.831,3.768,6.512v51.209
				C355.943,418.502,355.342,419.103,354.601,419.103z"/>
		</g>
		<g>
			<path style="fill:#4F7CB2;" d="M317.361,367.988c0.741,0,1.342-0.601,1.342-1.342v-35.783c0-1.723,0.928-3.327,2.422-4.185
				l11.106-6.382c0.616-0.353,1.35-0.353,1.965,0.003c0.615,0.356,0.982,0.992,0.982,1.702v33.636c0,0.741,0.601,1.342,1.342,1.342
				c0.741,0,1.342-0.601,1.342-1.342v-33.636c0-1.679-0.868-3.184-2.321-4.025c-1.453-0.841-3.19-0.844-4.646-0.007l-11.106,6.382
				c-2.324,1.336-3.768,3.831-3.768,6.512v35.783C316.019,367.387,316.62,367.988,317.361,367.988z"/>
		</g>
		<polygon style="fill:#6B9CE8;" points="313.048,368.47 337.171,382.35 363.021,367.53 363.021,365.927 338.939,353.626 
			313.048,366.868 		"/>
		<polygon style="fill:#82ACFF;" points="313.048,366.868 337.171,380.747 363.021,365.927 338.939,352.024 		"/>
		<polygon style="fill:#82ACFF;" points="312.981,357.151 312.981,329.428 336.99,315.404 338.106,316.174 336.99,343.29 
			314.097,357.921 		"/>
		<polygon style="fill:#6B9CE8;" points="314.097,357.921 314.097,330.198 338.106,316.174 338.106,344.06 		"/>
	</g>
	<g>
		<g>
			<path style="fill:#345882;" d="M390.843,397.75c-0.741,0-1.342-0.601-1.342-1.342v-51.209c0-1.723-0.928-3.327-2.422-4.185
				l-11.106-6.382c-0.616-0.353-1.35-0.353-1.965,0.003c-0.615,0.356-0.982,0.992-0.982,1.702V385.4
				c0,0.741-0.601,1.342-1.342,1.342s-1.342-0.601-1.342-1.342v-49.061c0-1.68,0.868-3.184,2.321-4.025
				c1.453-0.841,3.19-0.844,4.646-0.007l11.106,6.382c2.324,1.336,3.768,3.831,3.768,6.512v51.209
				C392.185,397.149,391.584,397.75,390.843,397.75z"/>
		</g>
		<g>
			<path style="fill:#345882;" d="M409.707,386.996c-0.741,0-1.342-0.601-1.342-1.342v-51.209c0-1.723-0.928-3.327-2.422-4.185
				l-11.106-6.382c-0.615-0.354-1.35-0.353-1.965,0.003c-0.615,0.356-0.982,0.992-0.982,1.703v49.061
				c0,0.741-0.601,1.342-1.342,1.342s-1.342-0.601-1.342-1.342v-49.061c0-1.68,0.868-3.184,2.321-4.025
				c1.453-0.841,3.19-0.844,4.646-0.007l11.106,6.382c2.324,1.336,3.768,3.831,3.768,6.512v51.209
				C411.048,386.395,410.448,386.996,409.707,386.996z"/>
		</g>
		<g>
			<path style="fill:#4F7CB2;" d="M372.467,335.881c0.741,0,1.342-0.601,1.342-1.342v-35.783c0-1.723,0.928-3.327,2.422-4.185
				l11.106-6.382c0.616-0.353,1.35-0.353,1.965,0.003c0.615,0.356,0.982,0.992,0.982,1.702v33.636c0,0.741,0.601,1.342,1.342,1.342
				s1.342-0.601,1.342-1.342v-33.636c0-1.68-0.868-3.184-2.321-4.025c-1.453-0.841-3.19-0.844-4.646-0.007l-11.106,6.382
				c-2.324,1.336-3.768,3.831-3.768,6.512v35.783C371.125,335.28,371.726,335.881,372.467,335.881z"/>
		</g>
		<polygon style="fill:#6B9CE8;" points="368.154,336.363 392.277,350.243 418.126,335.422 418.126,333.82 394.045,321.519 
			368.154,334.761 		"/>
		<polygon style="fill:#82ACFF;" points="368.154,334.761 392.277,348.64 418.126,333.82 394.045,319.917 		"/>
		<polygon style="fill:#82ACFF;" points="368.087,325.044 368.087,297.321 392.095,283.297 393.212,284.067 392.095,311.183 
			369.203,325.814 		"/>
		<polygon style="fill:#6B9CE8;" points="369.203,325.814 369.203,298.091 393.212,284.067 393.212,311.953 		"/>
	</g>
	<g>
		<g style="opacity:0.4;">
			<path style="fill:#CCCCCC;" d="M213.476,255.825c-8.04-4.642-21.032-4.642-29.036,0.01c-7.988,4.642-7.945,12.167,0.095,16.809
				c8.056,4.651,21.048,4.651,29.036,0.009C221.574,268.002,221.532,260.477,213.476,255.825"/>
		</g>
		<path style="fill:#345882;" d="M192.733,270.965c0,0-8.333-4.293-7.152-6.119c1.181-1.826,9.94,0.99,10.853,1.672
			C197.347,267.2,198.408,272.84,192.733,270.965z"/>
		<path style="fill:#345882;" d="M206.278,263.859c0,0-8.333-4.293-7.152-6.119c1.181-1.826,9.94,0.99,10.853,1.672
			C210.892,260.095,211.953,265.735,206.278,263.859z"/>
		<path style="fill:#FF5D9E;" d="M210.187,261.316c-1.015,1.513-3.352,1.196-4.504,0.906c-0.363-0.091-0.653-0.358-0.785-0.709
			l-3.651-9.729l5.317-7.4l3.802,15.974C210.446,260.689,210.376,261.034,210.187,261.316z"/>
		<path style="fill:#FF7BB7;" d="M222.502,241.263c-0.187-1.322-0.964-3.898-0.964-3.898l-1.381-3.057c0,0-1.335-0.656-3.72-0.893
			c-4.101-0.409-9.043,1.029-17.962,8.585c0,0-9.811,2.635-11.277,4.055c-1.63,1.579-2.166,3.976-1.367,6.099
			c0.372,0.988,0.677,1.799,0.678,1.802l2.204,5.886l0,0l3.253,8.637c0.132,0.351,0.421,0.617,0.785,0.709
			c1.152,0.29,3.013,0.653,4.034-0.825c0.193-0.279,0.259-0.627,0.179-0.957l-3.058-12.847l0.432-0.406l0.511-0.479
			C211.957,255.906,223.71,249.822,222.502,241.263z"/>
		<path style="fill:#FFEAD4;" d="M211.304,215.111l1.867,3.793c0.514,1.044,0.7,2.219,0.534,3.372l-1.201,8.323l-8.616-11.254
			L211.304,215.111z"/>
		<path style="fill:#A399FF;" d="M202.275,205.266c0,0,4.495,1.154,9.081,7.052c0.665,0.856,0.651,2.072-0.052,2.793l-2.624,2.693
			L202.275,205.266z"/>
		<path style="fill:#9280FF;" d="M199.85,205.07c-4.051,0.564-6.362,1.308-11.905,7.555c-1.76,1.984-2.566,5.432-1.136,8.08
			l4.41,5.014c4.112,4.676,6.719,10.484,7.479,16.665l0.249,2.025c0,0,15.613,5.534,22.384-8.362l-6.889-9.345
			c-1.072-1.454-1.95-3.041-2.612-4.721l-5.148-13.065C205.246,206.257,202.489,204.703,199.85,205.07z"/>
		<path style="fill:#FFEAD4;" d="M192.512,198.899c-1.309,0.25-3.311,0.958-5.24,2.926c-0.591,0.603-0.708,1.515-0.319,2.235
			l3.342,6.191c0.451,0.836,1.408,1.265,2.37,1.076c1.386-0.272,3.365-0.934,4.905-2.539c0.697-0.727,0.845-1.808,0.381-2.667
			l-3.378-6.256C194.179,199.136,193.352,198.739,192.512,198.899z"/>
		<path style="fill:#FFEAD4;" d="M188.281,221.267l-9.193,6.206c-0.415,0.28-5.372,1.852-9.167,3.536
			c-0.891,0.396-1.999,1.998-2.647,2.218c-0.848,0.287-2.502,1.339-4.097-0.644c-1.318-1.639,2.769-3.086,2.769-3.086
			s-1.766-1.052-1.436-1.709c0.319-0.636,1.655,0.754,3.418,0.246c0,0,8.308-4.013,8.708-4.317l9.121-8.145
			C185.756,215.572,189.958,217.834,188.281,221.267z"/>
		<path style="fill:#A399FF;" d="M181.483,218.683l3.307,5.227c0.2,0.395,0.689,0.519,1.092,0.277l5.258-3.153
			c2.201-1.32,3.104-4.136,2.016-6.29l0,0c-1.088-2.154-3.754-2.83-5.955-1.509l-5.261,4.025
			C181.441,217.558,181.237,218.196,181.483,218.683z"/>
		<path style="fill:#FFEAD4;" d="M177.505,199.95c0,0,3.975,7.362,4.55,8.427c1.027,1.902,3.977,2.117,7.499,0.5
			c3.522-1.618,0.753-10.557,0.753-10.557L177.505,199.95z"/>
		<path style="fill:#345882;" d="M204.383,202.95c-6.184-4.996-6.657-4.848-9.8-9.688c-2.502-3.854-6.168-4.809-9.157-4.533
			c0-0.001,0.003-0.006,0.003-0.006s-2.615-2.127-6.552,0.33c-1.805,1.126-2.882,2.532-3.291,4.06
			c-0.72,0.874-1.171,1.988-1.171,3.221c0,2.773,2.197,5.022,4.906,5.022c0.04,0,0.076-0.011,0.115-0.012
			c0.254,0.135,0.52,0.267,0.813,0.389c6.844,2.853,6.182,5.639,7.728,11.117c0.607,2.15,5.38,4.628,7.848,1.491
			c1.915-2.434,0.82-4.205,6.539-5.26C205.7,208.465,206.288,204.488,204.383,202.95z"/>
	</g>
	<g>
		<polygon style="opacity:0.4;fill:#CCCCCC;" points="293.585,429.907 323.697,447.232 433.813,383.656 403.753,366.301 		"/>
		<g>
			<path style="fill:#4F7CB2;" d="M320.684,444.168c-0.741,0-1.342-0.601-1.342-1.342v-63.744c0-1.723-0.928-3.327-2.422-4.185
				l-11.106-6.382c-0.616-0.353-1.35-0.353-1.965,0.003c-0.615,0.356-0.982,0.992-0.982,1.702v61.597
				c0,0.741-0.601,1.342-1.342,1.342s-1.342-0.601-1.342-1.342v-61.597c0-1.679,0.868-3.184,2.321-4.025
				c1.452-0.841,3.19-0.844,4.646-0.007l11.106,6.382c2.324,1.336,3.768,3.831,3.768,6.512v63.744
				C322.026,443.567,321.425,444.168,320.684,444.168z"/>
		</g>
		<g>
			<path style="fill:#4F7CB2;" d="M420.88,386.036c-0.741,0-1.342-0.601-1.342-1.342V320.95c0-1.723-0.928-3.327-2.422-4.185
				l-11.106-6.382c-0.616-0.353-1.35-0.353-1.965,0.003c-0.615,0.356-0.982,0.992-0.982,1.703v61.597
				c0,0.741-0.601,1.342-1.342,1.342s-1.342-0.601-1.342-1.342v-61.597c0-1.68,0.868-3.184,2.321-4.025
				c1.452-0.84,3.19-0.844,4.646-0.007l11.106,6.382c2.324,1.336,3.768,3.831,3.768,6.512v63.744
				C422.222,385.436,421.621,386.036,420.88,386.036z"/>
		</g>
		<polygon style="fill:#8F71FF;" points="293.585,366.8 323.697,384.125 433.813,320.55 433.813,318.55 403.753,303.194 
			293.585,364.8 		"/>
		<polygon style="fill:#9280FF;" points="293.585,364.8 323.697,382.125 433.813,318.55 403.753,301.194 		"/>
	</g>
	<g>
		<path style="fill:#90E1F4;" d="M313.398,358.859v-0.009c0-0.302,0.165-0.58,0.431-0.725l28.526-15.521
			c0.242-0.131,0.533-0.134,0.777-0.006l18.814,9.834c0.272,0.142,0.443,0.424,0.443,0.731l0,0c0,0.295-0.157,0.567-0.413,0.715
			l-28.57,16.495c-0.255,0.147-0.569,0.147-0.824,0.001l-18.77-10.8C313.555,359.427,313.398,359.155,313.398,358.859z"/>
		<path style="fill:#BBF1FF;" d="M314.334,357.82l28.096-16.221c0.192-0.111,0.429-0.111,0.621-0.001l18.395,10.529
			c0.417,0.239,0.418,0.84,0.002,1.081l-28.144,16.249c-0.193,0.111-0.43,0.111-0.623,0L314.335,358.9
			C313.919,358.66,313.918,358.06,314.334,357.82z"/>
		<polygon style="fill:#D9FAFF;" points="327.743,351.526 332.247,354.09 338.246,350.626 333.742,348.062 		"/>
		<g>
			<path style="fill:#79D9E8;" d="M330.524,362.814l-0.811-0.468c-0.143-0.083-0.375-0.083-0.518,0l-1.62,0.942
				c-0.143,0.083-0.142,0.217,0.002,0.3l0.811,0.468c0.143,0.083,0.374,0.083,0.518,0l1.62-0.942
				C330.668,363.031,330.668,362.896,330.524,362.814"/>
			<path style="fill:#79D9E8;" d="M333.501,363.275l-0.811-0.468c-0.143-0.083-0.375-0.083-0.518,0l-2.705,1.572
				c-0.143,0.083-0.142,0.217,0.002,0.3l0.811,0.468c0.144,0.083,0.375,0.083,0.518,0l2.705-1.572
				C333.645,363.492,333.645,363.358,333.501,363.275"/>
			<path style="fill:#79D9E8;" d="M332.535,361.645l-0.811-0.468c-0.143-0.083-0.375-0.083-0.518,0l-0.996,0.579
				c-0.142,0.083-0.141,0.217,0.002,0.3l0.811,0.468c0.143,0.083,0.375,0.083,0.518,0l0.996-0.579
				C332.679,361.862,332.678,361.728,332.535,361.645"/>
			<path style="fill:#79D9E8;" d="M334.744,360.362l-0.811-0.468c-0.143-0.083-0.375-0.083-0.518,0l-0.996,0.579
				c-0.142,0.083-0.141,0.217,0.002,0.3l0.811,0.468c0.143,0.083,0.375,0.083,0.518,0l0.996-0.579
				C334.889,360.578,334.887,360.444,334.744,360.362"/>
			<path style="fill:#79D9E8;" d="M336.953,359.078l-0.811-0.468c-0.143-0.083-0.375-0.083-0.518,0l-0.996,0.579
				c-0.143,0.083-0.141,0.217,0.002,0.3l0.811,0.468c0.143,0.083,0.375,0.083,0.518,0l0.996-0.579
				C337.097,359.295,337.096,359.16,336.953,359.078"/>
			<path style="fill:#79D9E8;" d="M339.162,357.794l-0.811-0.468c-0.143-0.083-0.375-0.083-0.518,0l-0.996,0.579
				c-0.142,0.083-0.141,0.217,0.002,0.3l0.811,0.468c0.143,0.083,0.375,0.083,0.518,0l0.996-0.579
				C339.306,358.011,339.305,357.877,339.162,357.794"/>
			<path style="fill:#79D9E8;" d="M341.37,356.511l-0.811-0.468c-0.143-0.083-0.374-0.083-0.518,0l-0.996,0.579
				c-0.142,0.083-0.142,0.217,0.002,0.3l0.811,0.468c0.143,0.083,0.375,0.083,0.518,0l0.996-0.579
				C341.515,356.727,341.514,356.593,341.37,356.511"/>
			<path style="fill:#79D9E8;" d="M343.58,355.227l-0.811-0.468c-0.143-0.083-0.375-0.083-0.518,0l-0.996,0.579
				c-0.143,0.083-0.142,0.217,0.002,0.3l0.811,0.468c0.143,0.083,0.375,0.083,0.518,0l0.996-0.579
				C343.724,355.444,343.723,355.309,343.58,355.227"/>
			<path style="fill:#79D9E8;" d="M345.789,353.943l-0.811-0.468c-0.143-0.083-0.375-0.083-0.518,0l-0.996,0.579
				c-0.142,0.083-0.141,0.217,0.002,0.3l0.811,0.468c0.143,0.083,0.375,0.083,0.518,0l0.996-0.579
				C345.933,354.16,345.932,354.026,345.789,353.943"/>
			<path style="fill:#79D9E8;" d="M347.997,352.659l-0.811-0.468c-0.143-0.083-0.374-0.083-0.518,0l-0.996,0.579
				c-0.142,0.083-0.142,0.217,0.002,0.3l0.811,0.468c0.143,0.083,0.375,0.083,0.518,0l0.996-0.579
				C348.142,352.876,348.14,352.742,347.997,352.659"/>
			<path style="fill:#79D9E8;" d="M350.207,351.375l-0.811-0.468c-0.143-0.083-0.375-0.083-0.518,0l-0.996,0.579
				c-0.143,0.083-0.141,0.217,0.002,0.3l0.811,0.468c0.143,0.083,0.375,0.083,0.518,0l0.996-0.579
				C350.351,351.593,350.35,351.458,350.207,351.375"/>
			<path style="fill:#79D9E8;" d="M334.307,364.998l-0.81-0.468c-0.144-0.083-0.375-0.083-0.518,0l-1.62,0.942
				c-0.143,0.083-0.142,0.217,0.002,0.3l0.81,0.468c0.144,0.083,0.375,0.083,0.518,0l1.62-0.942
				C334.451,365.215,334.451,365.081,334.307,364.998"/>
			<path style="fill:#79D9E8;" d="M336.318,363.829l-0.81-0.468c-0.144-0.083-0.375-0.083-0.518,0l-0.996,0.579
				c-0.142,0.083-0.142,0.217,0.002,0.3l0.81,0.468c0.144,0.083,0.375,0.083,0.518,0l0.996-0.579
				C336.462,364.046,336.462,363.912,336.318,363.829"/>
			<path style="fill:#79D9E8;" d="M338.527,362.546l-0.81-0.468c-0.144-0.083-0.374-0.083-0.518,0l-0.996,0.579
				c-0.142,0.083-0.142,0.217,0.002,0.3l0.81,0.468c0.144,0.083,0.375,0.083,0.518,0l0.996-0.579
				C338.671,362.762,338.671,362.629,338.527,362.546"/>
			<path style="fill:#79D9E8;" d="M340.736,361.262l-0.81-0.468c-0.144-0.083-0.375-0.083-0.518,0l-0.996,0.579
				c-0.143,0.083-0.142,0.217,0.002,0.3l0.81,0.468c0.144,0.083,0.375,0.083,0.518,0l0.996-0.579
				C340.88,361.479,340.88,361.345,340.736,361.262"/>
			<path style="fill:#79D9E8;" d="M342.945,359.978l-0.81-0.468c-0.144-0.083-0.375-0.083-0.518,0l-0.996,0.579
				c-0.142,0.083-0.142,0.217,0.002,0.3l0.81,0.468c0.144,0.083,0.375,0.083,0.518,0l0.996-0.579
				C343.089,360.195,343.089,360.061,342.945,359.978"/>
			<path style="fill:#79D9E8;" d="M345.153,358.694l-0.81-0.468c-0.144-0.083-0.375-0.083-0.518,0l-0.996,0.579
				c-0.142,0.083-0.142,0.217,0.002,0.3l0.81,0.468c0.144,0.083,0.375,0.083,0.518,0l0.996-0.579
				C345.298,358.911,345.297,358.778,345.153,358.694"/>
			<path style="fill:#79D9E8;" d="M347.363,357.41l-0.81-0.468c-0.144-0.083-0.375-0.083-0.518,0l-0.996,0.579
				c-0.143,0.083-0.142,0.217,0.002,0.3l0.81,0.468c0.144,0.083,0.374,0.083,0.518,0l0.996-0.579
				C347.507,357.628,347.507,357.494,347.363,357.41"/>
			<path style="fill:#79D9E8;" d="M349.571,356.127l-0.81-0.468c-0.144-0.083-0.375-0.083-0.518,0l-0.996,0.579
				c-0.142,0.083-0.142,0.217,0.002,0.3l0.81,0.468c0.144,0.083,0.375,0.083,0.518,0l0.996-0.579
				C349.715,356.344,349.715,356.21,349.571,356.127"/>
			<path style="fill:#79D9E8;" d="M351.78,354.844l-0.81-0.468c-0.144-0.083-0.374-0.083-0.518,0l-0.996,0.579
				c-0.142,0.083-0.142,0.217,0.002,0.3l0.81,0.468c0.144,0.083,0.375,0.083,0.518,0l0.996-0.579
				C351.925,355.06,351.924,354.927,351.78,354.844"/>
			<path style="fill:#79D9E8;" d="M356.198,352.276l-0.81-0.468c-0.144-0.083-0.375-0.083-0.518,0l-3.204,1.862
				c-0.143,0.083-0.142,0.217,0.002,0.3l0.81,0.468c0.144,0.083,0.374,0.083,0.518,0l3.204-1.862
				C356.342,352.493,356.342,352.359,356.198,352.276"/>
			<path style="fill:#79D9E8;" d="M335.537,362.092l-0.811-0.468c-0.143-0.083-0.375-0.083-0.518,0l-0.996,0.579
				c-0.142,0.083-0.142,0.217,0.002,0.3l0.811,0.468c0.144,0.083,0.375,0.083,0.518,0l0.996-0.579
				C335.682,362.308,335.681,362.175,335.537,362.092"/>
			<path style="fill:#79D9E8;" d="M337.746,360.808l-0.811-0.468c-0.143-0.083-0.375-0.083-0.518,0l-0.996,0.579
				c-0.143,0.083-0.142,0.217,0.002,0.3l0.811,0.468c0.144,0.083,0.375,0.083,0.518,0l0.996-0.579
				C337.891,361.025,337.891,360.891,337.746,360.808"/>
			<path style="fill:#79D9E8;" d="M339.955,359.524l-0.811-0.468c-0.143-0.083-0.375-0.083-0.518,0l-0.996,0.579
				c-0.142,0.083-0.142,0.217,0.002,0.3l0.811,0.468c0.144,0.083,0.375,0.083,0.518,0l0.996-0.579
				C340.099,359.741,340.099,359.607,339.955,359.524"/>
			<path style="fill:#79D9E8;" d="M342.164,358.241l-0.811-0.468c-0.143-0.083-0.374-0.083-0.518,0l-0.996,0.579
				c-0.142,0.083-0.141,0.217,0.002,0.3l0.811,0.468c0.144,0.083,0.375,0.083,0.518,0l0.996-0.579
				C342.309,358.457,342.308,358.324,342.164,358.241"/>
			<path style="fill:#79D9E8;" d="M344.373,356.957l-0.811-0.468c-0.143-0.083-0.375-0.083-0.518,0l-0.996,0.579
				c-0.143,0.083-0.141,0.217,0.002,0.3l0.811,0.468c0.144,0.083,0.375,0.083,0.518,0l0.996-0.579
				C344.517,357.174,344.517,357.04,344.373,356.957"/>
			<path style="fill:#79D9E8;" d="M346.582,355.673l-0.811-0.468c-0.143-0.083-0.375-0.083-0.518,0l-0.996,0.579
				c-0.142,0.083-0.142,0.217,0.002,0.3l0.811,0.468c0.144,0.083,0.375,0.083,0.518,0l0.996-0.579
				C346.726,355.89,346.726,355.756,346.582,355.673"/>
			<path style="fill:#79D9E8;" d="M348.79,354.39l-0.811-0.468c-0.143-0.083-0.374-0.083-0.518,0l-0.996,0.579
				c-0.142,0.083-0.141,0.217,0.002,0.3l0.811,0.468c0.144,0.083,0.375,0.083,0.518,0l0.996-0.579
				C348.935,354.606,348.935,354.473,348.79,354.39"/>
			<path style="fill:#79D9E8;" d="M351,353.106l-0.811-0.468c-0.143-0.083-0.375-0.083-0.518,0l-0.996,0.579
				c-0.143,0.083-0.141,0.217,0.002,0.3l0.811,0.468c0.144,0.083,0.374,0.083,0.518,0l0.996-0.579
				C351.144,353.323,351.144,353.189,351,353.106"/>
			<path style="fill:#79D9E8;" d="M353.209,351.822l-0.811-0.468c-0.143-0.083-0.375-0.083-0.518,0l-0.996,0.579
				c-0.142,0.083-0.142,0.217,0.002,0.3l0.811,0.468c0.144,0.083,0.375,0.083,0.518,0l0.996-0.579
				C353.353,352.039,353.353,351.905,353.209,351.822"/>
			<path style="fill:#79D9E8;" d="M354.307,351.184l-1.891-1.092l-0.146-0.084l-0.665-0.384c-0.143-0.083-0.375-0.083-0.518,0
				l-0.996,0.579c-0.142,0.083-0.141,0.217,0.002,0.3l0.811,0.468c0.143,0.083,0.375,0.083,0.518,0l0.353-0.205
				c0.132-0.077,0.344-0.077,0.476,0l1.393,0.804c0.144,0.083,0.375,0.083,0.518,0l0.148-0.086
				C354.451,351.401,354.451,351.267,354.307,351.184"/>
		</g>
		<g>
			<path style="fill:#79D9E8;" d="M326.644,360.477l-0.811-0.468c-0.143-0.083-0.375-0.083-0.518,0l-1.62,0.942
				c-0.143,0.083-0.141,0.217,0.002,0.3l0.811,0.468c0.143,0.083,0.375,0.083,0.518,0l1.62-0.942
				C326.788,360.694,326.787,360.56,326.644,360.477"/>
			<path style="fill:#79D9E8;" d="M329.62,360.938l-0.811-0.468c-0.143-0.083-0.375-0.083-0.518,0l-2.705,1.572
				c-0.143,0.083-0.142,0.217,0.002,0.3l0.811,0.468c0.144,0.083,0.374,0.083,0.518,0l2.705-1.572
				C329.765,361.155,329.764,361.022,329.62,360.938"/>
			<path style="fill:#79D9E8;" d="M328.654,359.308l-0.811-0.468c-0.143-0.083-0.375-0.083-0.518,0l-0.996,0.579
				c-0.142,0.083-0.141,0.217,0.002,0.3l0.811,0.468c0.143,0.083,0.375,0.083,0.518,0l0.996-0.579
				C328.798,359.526,328.797,359.391,328.654,359.308"/>
			<path style="fill:#79D9E8;" d="M330.863,358.025l-0.811-0.468c-0.143-0.083-0.374-0.083-0.518,0l-0.996,0.579
				c-0.142,0.083-0.142,0.217,0.002,0.3l0.811,0.468c0.143,0.083,0.375,0.083,0.518,0l0.996-0.579
				C331.008,358.241,331.006,358.107,330.863,358.025"/>
			<path style="fill:#79D9E8;" d="M333.072,356.741l-0.811-0.468c-0.143-0.083-0.375-0.083-0.518,0l-0.996,0.579
				c-0.143,0.083-0.142,0.217,0.002,0.3l0.811,0.468c0.143,0.083,0.375,0.083,0.518,0l0.996-0.579
				C333.216,356.958,333.216,356.823,333.072,356.741"/>
			<path style="fill:#79D9E8;" d="M335.281,355.457l-0.811-0.468c-0.143-0.083-0.375-0.083-0.518,0l-0.996,0.579
				c-0.142,0.083-0.142,0.217,0.002,0.3l0.811,0.468c0.143,0.083,0.375,0.083,0.518,0l0.996-0.579
				C335.425,355.674,335.424,355.54,335.281,355.457"/>
			<path style="fill:#79D9E8;" d="M337.49,354.174l-0.811-0.468c-0.143-0.083-0.374-0.083-0.518,0l-0.996,0.579
				c-0.142,0.083-0.142,0.217,0.002,0.3l0.811,0.468c0.143,0.083,0.375,0.083,0.518,0l0.996-0.579
				C337.634,354.39,337.633,354.256,337.49,354.174"/>
			<path style="fill:#79D9E8;" d="M339.699,352.89l-0.811-0.468c-0.143-0.083-0.375-0.083-0.518,0L337.375,353
				c-0.143,0.083-0.141,0.217,0.002,0.3l0.811,0.468c0.143,0.083,0.375,0.083,0.518,0l0.996-0.579
				C339.843,353.107,339.842,352.972,339.699,352.89"/>
			<path style="fill:#79D9E8;" d="M341.908,351.606l-0.811-0.468c-0.143-0.083-0.375-0.083-0.518,0l-0.996,0.579
				c-0.142,0.083-0.141,0.217,0.002,0.3l0.811,0.468c0.143,0.083,0.375,0.083,0.518,0l0.996-0.579
				C342.052,351.823,342.051,351.689,341.908,351.606"/>
			<path style="fill:#79D9E8;" d="M344.116,350.323l-0.811-0.468c-0.143-0.083-0.375-0.083-0.518,0l-0.996,0.579
				c-0.142,0.083-0.142,0.217,0.002,0.3l0.811,0.468c0.143,0.083,0.375,0.083,0.518,0l0.996-0.579
				C344.261,350.539,344.26,350.405,344.116,350.323"/>
			<path style="fill:#79D9E8;" d="M346.326,349.039l-0.811-0.468c-0.143-0.083-0.375-0.083-0.518,0l-0.996,0.579
				c-0.143,0.083-0.141,0.217,0.002,0.3l0.811,0.468c0.143,0.083,0.374,0.083,0.518,0l0.996-0.579
				C346.47,349.256,346.469,349.121,346.326,349.039"/>
			<path style="fill:#79D9E8;" d="M331.656,359.755l-0.811-0.468c-0.143-0.083-0.374-0.083-0.518,0l-0.996,0.579
				c-0.142,0.083-0.141,0.217,0.002,0.3l0.811,0.468c0.144,0.083,0.375,0.083,0.518,0l0.996-0.579
				C331.801,359.972,331.8,359.838,331.656,359.755"/>
			<path style="fill:#79D9E8;" d="M333.866,358.471l-0.811-0.468c-0.143-0.083-0.375-0.083-0.518,0l-0.996,0.579
				c-0.143,0.083-0.141,0.217,0.002,0.3l0.811,0.468c0.144,0.083,0.374,0.083,0.518,0l0.996-0.579
				C334.01,358.688,334.01,358.554,333.866,358.471"/>
			<path style="fill:#79D9E8;" d="M336.074,357.187l-0.811-0.468c-0.143-0.083-0.375-0.083-0.518,0l-0.996,0.579
				c-0.142,0.083-0.142,0.217,0.002,0.3l0.811,0.468c0.144,0.083,0.375,0.083,0.518,0l0.996-0.579
				C336.218,357.405,336.218,357.271,336.074,357.187"/>
			<path style="fill:#79D9E8;" d="M338.283,355.904l-0.811-0.468c-0.143-0.083-0.375-0.083-0.518,0l-0.996,0.579
				c-0.142,0.083-0.141,0.217,0.002,0.3l0.811,0.468c0.144,0.083,0.375,0.083,0.518,0l0.996-0.579
				C338.428,356.121,338.427,355.987,338.283,355.904"/>
			<path style="fill:#79D9E8;" d="M340.492,354.62l-0.811-0.468c-0.143-0.083-0.375-0.083-0.518,0l-0.996,0.579
				c-0.143,0.083-0.141,0.217,0.002,0.3l0.811,0.468c0.144,0.083,0.374,0.083,0.518,0l0.996-0.579
				C340.636,354.837,340.637,354.703,340.492,354.62"/>
			<path style="fill:#79D9E8;" d="M342.701,353.336l-0.811-0.468c-0.143-0.083-0.375-0.083-0.518,0l-0.996,0.579
				c-0.142,0.083-0.142,0.217,0.002,0.3l0.811,0.468c0.144,0.083,0.375,0.083,0.518,0l0.996-0.579
				C342.845,353.553,342.845,353.419,342.701,353.336"/>
			<path style="fill:#79D9E8;" d="M344.91,352.053l-0.811-0.468c-0.143-0.083-0.375-0.083-0.518,0l-0.996,0.579
				c-0.142,0.083-0.142,0.217,0.002,0.3l0.811,0.468c0.144,0.083,0.375,0.083,0.518,0l0.996-0.579
				C345.055,352.27,345.054,352.136,344.91,352.053"/>
			<path style="fill:#79D9E8;" d="M347.119,350.769l-0.811-0.468c-0.143-0.083-0.375-0.083-0.518,0l-0.996,0.579
				c-0.143,0.083-0.142,0.217,0.002,0.3l0.811,0.468c0.144,0.083,0.374,0.083,0.518,0l0.996-0.579
				C347.263,350.986,347.263,350.852,347.119,350.769"/>
			<path style="fill:#79D9E8;" d="M349.328,349.485l-0.811-0.468c-0.143-0.083-0.375-0.083-0.518,0l-0.996,0.579
				c-0.142,0.083-0.141,0.217,0.002,0.3l0.811,0.468c0.144,0.083,0.375,0.083,0.518,0l0.996-0.579
				C349.472,349.703,349.472,349.569,349.328,349.485"/>
			<path style="fill:#79D9E8;" d="M350.426,348.847l-1.891-1.092l-0.146-0.084l-0.665-0.384c-0.143-0.083-0.375-0.083-0.518,0
				l-0.996,0.579c-0.142,0.083-0.142,0.217,0.002,0.3l0.811,0.468c0.143,0.083,0.375,0.083,0.518,0l0.352-0.205
				c0.132-0.077,0.344-0.077,0.476-0.001l1.393,0.805c0.144,0.083,0.375,0.083,0.518,0l0.148-0.086
				C350.57,349.064,350.57,348.93,350.426,348.847"/>
		</g>
		<path style="fill:#D9FAFF;" d="M332.995,370.54l4.288-19.152c0.06-0.269,0.23-0.501,0.469-0.64l26.827-15.568
			c0.746-0.433,1.651,0.229,1.464,1.072l-3.891,17.455l-28.612,17.12L332.995,370.54z"/>
		<path style="fill:#90E1F4;" d="M333.539,370.826l4.288-19.152c0.06-0.269,0.23-0.501,0.469-0.64l26.827-15.568
			c0.747-0.433,1.651,0.229,1.463,1.072l-3.89,17.455L333.539,370.826z"/>
	</g>
	<g>
		<path style="fill:#90E1F4;" d="M370.652,325.347v-0.008c0-0.302,0.165-0.58,0.431-0.725l28.526-15.521
			c0.242-0.131,0.533-0.134,0.777-0.006l18.814,9.834c0.272,0.142,0.443,0.424,0.443,0.731l0,0c0,0.295-0.157,0.567-0.413,0.715
			l-28.57,16.495c-0.255,0.147-0.569,0.147-0.824,0.001l-18.77-10.8C370.809,325.915,370.652,325.642,370.652,325.347z"/>
		<path style="fill:#BBF1FF;" d="M371.588,324.307l28.096-16.221c0.192-0.111,0.429-0.111,0.621-0.001l18.395,10.529
			c0.417,0.239,0.419,0.84,0.002,1.081l-28.144,16.249c-0.193,0.111-0.43,0.111-0.623,0l-18.347-10.556
			C371.173,325.148,371.172,324.547,371.588,324.307z"/>
		<polygon style="fill:#D9FAFF;" points="384.997,318.013 389.501,320.578 395.5,317.114 390.996,314.55 		"/>
		<g>
			<path style="fill:#79D9E8;" d="M387.779,329.301l-0.811-0.468c-0.143-0.083-0.375-0.083-0.518,0l-1.62,0.942
				c-0.143,0.083-0.141,0.217,0.002,0.3l0.811,0.468c0.143,0.083,0.374,0.083,0.518,0l1.62-0.942
				C387.922,329.518,387.922,329.384,387.779,329.301"/>
			<path style="fill:#79D9E8;" d="M390.755,329.763l-0.811-0.468c-0.143-0.083-0.375-0.083-0.518,0l-2.705,1.572
				c-0.143,0.083-0.142,0.217,0.002,0.3l0.811,0.468c0.144,0.083,0.375,0.083,0.518,0l2.705-1.572
				C390.9,329.979,390.899,329.846,390.755,329.763"/>
			<path style="fill:#79D9E8;" d="M389.789,328.133l-0.811-0.468c-0.143-0.083-0.375-0.083-0.518,0l-0.996,0.579
				c-0.142,0.083-0.142,0.217,0.002,0.3l0.811,0.468c0.143,0.083,0.375,0.083,0.518,0l0.996-0.579
				C389.933,328.35,389.932,328.215,389.789,328.133"/>
			<path style="fill:#79D9E8;" d="M391.998,326.849l-0.811-0.468c-0.143-0.083-0.375-0.083-0.518,0l-0.996,0.579
				c-0.142,0.083-0.141,0.217,0.002,0.3l0.811,0.468c0.143,0.083,0.375,0.083,0.518,0l0.996-0.579
				C392.143,327.066,392.141,326.932,391.998,326.849"/>
			<path style="fill:#79D9E8;" d="M394.207,325.565l-0.811-0.468c-0.143-0.083-0.375-0.083-0.518,0l-0.996,0.579
				c-0.143,0.083-0.141,0.217,0.002,0.3l0.811,0.468c0.143,0.083,0.374,0.083,0.518,0l0.996-0.579
				C394.351,325.782,394.35,325.648,394.207,325.565"/>
			<path style="fill:#79D9E8;" d="M396.416,324.282l-0.811-0.468c-0.143-0.083-0.375-0.083-0.518,0l-0.996,0.579
				c-0.142,0.083-0.142,0.217,0.002,0.3l0.811,0.468c0.143,0.083,0.375,0.083,0.518,0l0.996-0.579
				C396.56,324.499,396.559,324.364,396.416,324.282"/>
			<path style="fill:#79D9E8;" d="M398.625,322.998l-0.811-0.468c-0.143-0.083-0.375-0.083-0.518,0l-0.996,0.579
				c-0.142,0.083-0.141,0.217,0.002,0.3l0.811,0.468c0.143,0.083,0.375,0.083,0.518,0l0.996-0.579
				C398.769,323.215,398.768,323.081,398.625,322.998"/>
			<path style="fill:#79D9E8;" d="M400.834,321.714l-0.811-0.468c-0.143-0.083-0.375-0.083-0.518,0l-0.996,0.579
				c-0.143,0.083-0.142,0.217,0.002,0.3l0.811,0.468c0.143,0.083,0.375,0.083,0.518,0l0.996-0.579
				C400.978,321.931,400.977,321.797,400.834,321.714"/>
			<path style="fill:#79D9E8;" d="M403.043,320.431l-0.811-0.468c-0.143-0.083-0.375-0.083-0.518,0l-0.996,0.579
				c-0.142,0.083-0.141,0.217,0.002,0.3l0.811,0.468c0.143,0.083,0.375,0.083,0.518,0l0.996-0.579
				C403.187,320.648,403.186,320.513,403.043,320.431"/>
			<path style="fill:#79D9E8;" d="M405.251,319.147l-0.811-0.468c-0.143-0.083-0.375-0.083-0.518,0l-0.996,0.579
				c-0.142,0.083-0.142,0.217,0.002,0.3l0.811,0.468c0.143,0.083,0.375,0.083,0.518,0l0.996-0.579
				C405.396,319.364,405.395,319.23,405.251,319.147"/>
			<path style="fill:#79D9E8;" d="M407.461,317.863l-0.811-0.468c-0.143-0.083-0.375-0.083-0.518,0l-0.996,0.579
				c-0.143,0.083-0.142,0.217,0.002,0.3l0.811,0.468c0.143,0.083,0.375,0.083,0.518,0l0.996-0.579
				C407.605,318.08,407.604,317.946,407.461,317.863"/>
			<path style="fill:#79D9E8;" d="M391.561,331.485l-0.81-0.468c-0.144-0.083-0.375-0.083-0.518,0l-1.62,0.942
				c-0.143,0.083-0.142,0.217,0.002,0.3l0.81,0.468c0.144,0.083,0.375,0.083,0.518,0l1.62-0.942
				C391.705,331.702,391.705,331.568,391.561,331.485"/>
			<path style="fill:#79D9E8;" d="M393.572,330.317l-0.81-0.468c-0.144-0.083-0.375-0.083-0.518,0l-0.996,0.579
				c-0.142,0.083-0.142,0.217,0.002,0.3l0.81,0.468c0.144,0.083,0.375,0.083,0.518,0l0.996-0.579
				C393.716,330.534,393.716,330.4,393.572,330.317"/>
			<path style="fill:#79D9E8;" d="M395.781,329.033l-0.81-0.468c-0.144-0.083-0.374-0.083-0.518,0l-0.996,0.579
				c-0.142,0.083-0.142,0.217,0.002,0.3l0.81,0.468c0.144,0.083,0.375,0.083,0.518,0l0.996-0.579
				C395.925,329.25,395.925,329.116,395.781,329.033"/>
			<path style="fill:#79D9E8;" d="M397.99,327.749l-0.81-0.468c-0.144-0.083-0.375-0.083-0.518,0l-0.996,0.579
				c-0.143,0.083-0.142,0.217,0.002,0.3l0.81,0.468c0.144,0.083,0.375,0.083,0.518,0l0.996-0.579
				C398.134,327.966,398.134,327.832,397.99,327.749"/>
			<path style="fill:#79D9E8;" d="M400.199,326.466l-0.81-0.468c-0.144-0.083-0.375-0.083-0.518,0l-0.996,0.579
				c-0.142,0.083-0.142,0.217,0.002,0.3l0.81,0.468c0.144,0.083,0.375,0.083,0.518,0l0.996-0.579
				C400.343,326.683,400.343,326.549,400.199,326.466"/>
			<path style="fill:#79D9E8;" d="M402.407,325.182l-0.81-0.468c-0.144-0.083-0.375-0.083-0.518,0l-0.996,0.579
				c-0.142,0.083-0.142,0.217,0.002,0.3l0.81,0.468c0.144,0.083,0.375,0.083,0.518,0l0.996-0.579
				C402.552,325.399,402.551,325.265,402.407,325.182"/>
			<path style="fill:#79D9E8;" d="M404.617,323.898l-0.81-0.468c-0.144-0.083-0.375-0.083-0.518,0l-0.996,0.579
				c-0.143,0.083-0.142,0.217,0.002,0.3l0.81,0.468c0.144,0.083,0.375,0.083,0.518,0l0.996-0.579
				C404.761,324.115,404.761,323.981,404.617,323.898"/>
			<path style="fill:#79D9E8;" d="M406.826,322.615l-0.81-0.468c-0.144-0.083-0.375-0.083-0.518,0l-0.996,0.579
				c-0.142,0.083-0.142,0.217,0.002,0.3l0.81,0.468c0.144,0.083,0.375,0.083,0.518,0l0.996-0.579
				C406.969,322.832,406.97,322.698,406.826,322.615"/>
			<path style="fill:#79D9E8;" d="M409.034,321.331l-0.81-0.468c-0.144-0.083-0.375-0.083-0.518,0l-0.996,0.579
				c-0.142,0.083-0.142,0.217,0.002,0.3l0.81,0.468c0.144,0.083,0.375,0.083,0.518,0l0.996-0.579
				C409.179,321.548,409.178,321.414,409.034,321.331"/>
			<path style="fill:#79D9E8;" d="M413.452,318.763l-0.81-0.468c-0.144-0.083-0.375-0.083-0.518,0l-3.204,1.862
				c-0.143,0.083-0.142,0.217,0.002,0.3l0.81,0.468c0.144,0.083,0.374,0.083,0.518,0l3.204-1.862
				C413.596,318.981,413.596,318.847,413.452,318.763"/>
			<path style="fill:#79D9E8;" d="M392.791,328.579l-0.811-0.468c-0.143-0.083-0.375-0.083-0.518,0l-0.996,0.579
				c-0.142,0.083-0.142,0.217,0.002,0.3l0.811,0.468c0.144,0.083,0.375,0.083,0.518,0l0.996-0.579
				C392.936,328.796,392.935,328.663,392.791,328.579"/>
			<path style="fill:#79D9E8;" d="M395.001,327.295l-0.811-0.468c-0.143-0.083-0.375-0.083-0.518,0l-0.996,0.579
				c-0.143,0.083-0.142,0.217,0.002,0.3l0.811,0.468c0.144,0.083,0.374,0.083,0.518,0l0.996-0.579
				C395.145,327.513,395.145,327.379,395.001,327.295"/>
			<path style="fill:#79D9E8;" d="M397.209,326.012l-0.811-0.468c-0.143-0.083-0.375-0.083-0.518,0l-0.996,0.579
				c-0.142,0.083-0.142,0.217,0.002,0.3l0.811,0.468c0.144,0.083,0.375,0.083,0.518,0l0.996-0.579
				C397.353,326.229,397.353,326.095,397.209,326.012"/>
			<path style="fill:#79D9E8;" d="M399.418,324.728l-0.811-0.468c-0.143-0.083-0.375-0.083-0.518,0l-0.996,0.579
				c-0.142,0.083-0.141,0.217,0.002,0.3l0.811,0.468c0.144,0.083,0.375,0.083,0.518,0l0.996-0.579
				C399.563,324.945,399.562,324.811,399.418,324.728"/>
			<path style="fill:#79D9E8;" d="M401.627,323.444l-0.811-0.468c-0.143-0.083-0.375-0.083-0.518,0l-0.996,0.579
				c-0.143,0.083-0.141,0.217,0.002,0.3l0.811,0.468c0.144,0.083,0.375,0.083,0.518,0l0.996-0.579
				C401.771,323.661,401.771,323.527,401.627,323.444"/>
			<path style="fill:#79D9E8;" d="M403.836,322.161l-0.811-0.468c-0.143-0.083-0.375-0.083-0.518,0l-0.996,0.579
				c-0.142,0.083-0.141,0.217,0.002,0.3l0.811,0.468c0.144,0.083,0.375,0.083,0.518,0l0.996-0.579
				C403.98,322.378,403.98,322.244,403.836,322.161"/>
			<path style="fill:#79D9E8;" d="M406.045,320.877l-0.811-0.468c-0.143-0.083-0.374-0.083-0.518,0l-0.996,0.579
				c-0.142,0.083-0.142,0.217,0.002,0.3l0.811,0.468c0.144,0.083,0.375,0.083,0.518,0l0.996-0.579
				C406.189,321.094,406.189,320.96,406.045,320.877"/>
			<path style="fill:#79D9E8;" d="M408.254,319.593l-0.811-0.468c-0.143-0.083-0.375-0.083-0.518,0l-0.996,0.579
				c-0.143,0.083-0.142,0.217,0.002,0.3l0.811,0.468c0.144,0.083,0.375,0.083,0.518,0l0.996-0.579
				C408.398,319.81,408.398,319.676,408.254,319.593"/>
			<path style="fill:#79D9E8;" d="M410.463,318.31l-0.811-0.468c-0.143-0.083-0.375-0.083-0.518,0l-0.996,0.579
				c-0.142,0.083-0.141,0.217,0.002,0.3l0.811,0.468c0.144,0.083,0.375,0.083,0.518,0l0.996-0.579
				C410.607,318.527,410.607,318.393,410.463,318.31"/>
			<path style="fill:#79D9E8;" d="M411.561,317.672l-1.891-1.092l-0.146-0.084l-0.665-0.384c-0.143-0.083-0.375-0.083-0.518,0
				l-0.996,0.579c-0.142,0.083-0.141,0.217,0.002,0.3l0.811,0.468c0.143,0.083,0.375,0.083,0.518,0l0.353-0.205
				c0.132-0.077,0.344-0.077,0.476-0.001l1.393,0.805c0.144,0.083,0.375,0.083,0.518,0l0.147-0.086
				C411.705,317.889,411.705,317.755,411.561,317.672"/>
		</g>
		<g>
			<path style="fill:#79D9E8;" d="M383.898,326.964l-0.811-0.468c-0.143-0.083-0.375-0.083-0.518,0l-1.62,0.942
				c-0.143,0.083-0.142,0.217,0.002,0.3l0.811,0.468c0.143,0.083,0.374,0.083,0.518,0l1.62-0.942
				C384.042,327.181,384.041,327.047,383.898,326.964"/>
			<path style="fill:#79D9E8;" d="M386.874,327.426l-0.811-0.468c-0.143-0.083-0.375-0.083-0.518,0l-2.705,1.572
				c-0.143,0.083-0.141,0.217,0.002,0.3l0.811,0.468c0.144,0.083,0.375,0.083,0.518,0l2.705-1.572
				C387.019,327.643,387.018,327.509,386.874,327.426"/>
			<path style="fill:#79D9E8;" d="M385.908,325.796l-0.811-0.468c-0.143-0.083-0.375-0.083-0.518,0l-0.996,0.579
				c-0.142,0.083-0.141,0.217,0.002,0.3l0.811,0.468c0.143,0.083,0.375,0.083,0.518,0l0.996-0.579
				C386.052,326.013,386.052,325.879,385.908,325.796"/>
			<path style="fill:#79D9E8;" d="M388.117,324.512l-0.811-0.468c-0.143-0.083-0.375-0.083-0.518,0l-0.996,0.579
				c-0.142,0.083-0.142,0.217,0.002,0.3l0.811,0.468c0.143,0.083,0.375,0.083,0.518,0l0.996-0.579
				C388.262,324.729,388.26,324.595,388.117,324.512"/>
			<path style="fill:#79D9E8;" d="M390.326,323.228l-0.811-0.468c-0.143-0.083-0.375-0.083-0.518,0l-0.996,0.579
				c-0.143,0.083-0.142,0.217,0.002,0.3l0.811,0.468c0.143,0.083,0.375,0.083,0.518,0l0.996-0.579
				C390.47,323.445,390.47,323.311,390.326,323.228"/>
			<path style="fill:#79D9E8;" d="M392.535,321.945l-0.811-0.468c-0.143-0.083-0.375-0.083-0.518,0l-0.996,0.579
				c-0.142,0.083-0.141,0.217,0.002,0.3l0.811,0.468c0.143,0.083,0.375,0.083,0.518,0l0.996-0.579
				C392.679,322.162,392.678,322.027,392.535,321.945"/>
			<path style="fill:#79D9E8;" d="M394.744,320.661l-0.811-0.468c-0.143-0.083-0.375-0.083-0.518,0l-0.996,0.579
				c-0.142,0.083-0.141,0.217,0.002,0.3l0.811,0.468c0.143,0.083,0.375,0.083,0.518,0l0.996-0.579
				C394.888,320.878,394.887,320.744,394.744,320.661"/>
			<path style="fill:#79D9E8;" d="M396.953,319.377l-0.811-0.468c-0.143-0.083-0.375-0.083-0.518,0l-0.996,0.579
				c-0.143,0.083-0.142,0.217,0.002,0.3l0.811,0.468c0.143,0.083,0.375,0.083,0.518,0l0.996-0.579
				C397.097,319.595,397.096,319.46,396.953,319.377"/>
			<path style="fill:#79D9E8;" d="M399.162,318.094l-0.811-0.468c-0.143-0.083-0.375-0.083-0.518,0l-0.996,0.579
				c-0.142,0.083-0.142,0.217,0.002,0.3l0.811,0.468c0.143,0.083,0.375,0.083,0.518,0l0.996-0.579
				C399.306,318.311,399.305,318.176,399.162,318.094"/>
			<path style="fill:#79D9E8;" d="M401.37,316.81l-0.811-0.468c-0.143-0.083-0.374-0.083-0.518,0l-0.996,0.579
				c-0.142,0.083-0.141,0.217,0.002,0.3l0.811,0.468c0.143,0.083,0.375,0.083,0.518,0l0.996-0.579
				C401.515,317.027,401.514,316.893,401.37,316.81"/>
			<path style="fill:#79D9E8;" d="M403.58,315.526l-0.811-0.468c-0.143-0.083-0.375-0.083-0.518,0l-0.996,0.579
				c-0.143,0.083-0.141,0.217,0.002,0.3l0.811,0.468c0.143,0.083,0.375,0.083,0.518,0l0.996-0.579
				C403.724,315.743,403.723,315.609,403.58,315.526"/>
			<path style="fill:#79D9E8;" d="M388.91,326.242l-0.811-0.468c-0.143-0.083-0.375-0.083-0.518,0l-0.996,0.579
				c-0.142,0.083-0.142,0.217,0.002,0.3l0.811,0.468c0.144,0.083,0.375,0.083,0.518,0l0.996-0.579
				C389.055,326.459,389.054,326.326,388.91,326.242"/>
			<path style="fill:#79D9E8;" d="M391.12,324.958l-0.811-0.468c-0.143-0.083-0.375-0.083-0.518,0l-0.996,0.579
				c-0.143,0.083-0.142,0.217,0.002,0.3l0.811,0.468c0.144,0.083,0.375,0.083,0.518,0l0.996-0.579
				C391.264,325.176,391.264,325.042,391.12,324.958"/>
			<path style="fill:#79D9E8;" d="M393.328,323.675l-0.811-0.468c-0.143-0.083-0.375-0.083-0.518,0l-0.996,0.579
				c-0.142,0.083-0.141,0.217,0.002,0.3l0.811,0.468c0.144,0.083,0.375,0.083,0.518,0l0.996-0.579
				C393.472,323.892,393.472,323.758,393.328,323.675"/>
			<path style="fill:#79D9E8;" d="M395.537,322.392l-0.811-0.468c-0.143-0.083-0.375-0.083-0.518,0l-0.996,0.579
				c-0.142,0.083-0.142,0.217,0.002,0.3l0.811,0.468c0.144,0.083,0.375,0.083,0.518,0l0.996-0.579
				C395.682,322.608,395.681,322.475,395.537,322.392"/>
			<path style="fill:#79D9E8;" d="M397.746,321.107l-0.811-0.468c-0.143-0.083-0.375-0.083-0.518,0l-0.996,0.579
				c-0.143,0.083-0.142,0.217,0.002,0.3l0.811,0.468c0.144,0.083,0.374,0.083,0.518,0l0.996-0.579
				C397.89,321.325,397.891,321.191,397.746,321.107"/>
			<path style="fill:#79D9E8;" d="M399.955,319.824l-0.811-0.468c-0.143-0.083-0.375-0.083-0.518,0l-0.996,0.579
				c-0.142,0.083-0.142,0.217,0.002,0.3l0.811,0.468c0.144,0.083,0.375,0.083,0.518,0l0.996-0.579
				C400.099,320.041,400.099,319.907,399.955,319.824"/>
			<path style="fill:#79D9E8;" d="M402.164,318.54l-0.811-0.468c-0.143-0.083-0.374-0.083-0.518,0l-0.996,0.579
				c-0.142,0.083-0.141,0.217,0.002,0.3l0.811,0.468c0.144,0.083,0.375,0.083,0.518,0l0.996-0.579
				C402.309,318.757,402.308,318.624,402.164,318.54"/>
			<path style="fill:#79D9E8;" d="M404.373,317.256l-0.811-0.468c-0.143-0.083-0.375-0.083-0.518,0l-0.996,0.579
				c-0.143,0.083-0.142,0.217,0.002,0.3l0.811,0.468c0.144,0.083,0.374,0.083,0.518,0l0.996-0.579
				C404.517,317.474,404.517,317.34,404.373,317.256"/>
			<path style="fill:#79D9E8;" d="M406.582,315.973l-0.811-0.468c-0.143-0.083-0.375-0.083-0.518,0l-0.996,0.579
				c-0.142,0.083-0.142,0.217,0.002,0.3l0.811,0.468c0.144,0.083,0.375,0.083,0.518,0l0.996-0.579
				C406.726,316.19,406.726,316.056,406.582,315.973"/>
			<path style="fill:#79D9E8;" d="M407.68,315.335l-1.891-1.092l-0.146-0.084l-0.665-0.384c-0.143-0.083-0.375-0.083-0.518,0
				l-0.996,0.579c-0.142,0.083-0.142,0.217,0.002,0.3l0.811,0.468c0.143,0.083,0.375,0.083,0.518,0l0.353-0.205
				c0.132-0.076,0.344-0.076,0.476,0l1.393,0.805c0.144,0.083,0.375,0.083,0.518,0l0.148-0.086
				C407.824,315.552,407.824,315.418,407.68,315.335"/>
		</g>
		<path style="fill:#D9FAFF;" d="M390.249,337.027l4.288-19.152c0.06-0.269,0.23-0.501,0.469-0.64l26.827-15.568
			c0.747-0.433,1.651,0.229,1.463,1.072l-3.89,17.455l-28.612,17.12L390.249,337.027z"/>
		<path style="fill:#90E1F4;" d="M390.793,337.314l4.288-19.152c0.06-0.269,0.23-0.501,0.469-0.64l26.827-15.568
			c0.746-0.433,1.651,0.229,1.463,1.072l-3.89,17.455L390.793,337.314z"/>
	</g>
	<g>
		<path style="fill:#FF5D9E;" d="M310.359,363.907l1.693,6.377c0.003,0.469,0.314,0.938,0.934,1.295
			c1.242,0.717,3.244,0.717,4.475,0.001c0.617-0.358,0.924-0.828,0.921-1.297l1.703-6.377H310.359z"/>
		<g>
			<path style="fill:#FF7BB7;" d="M318.723,361.308c-1.949-1.125-5.098-1.125-7.037,0.002c-1.936,1.125-1.926,2.949,0.023,4.074
				c1.953,1.127,5.102,1.127,7.037,0.002C320.686,364.26,320.676,362.436,318.723,361.308"/>
		</g>
		<g>
			<path style="fill:#345882;" d="M317.923,361.773c-1.504-0.868-3.935-0.868-5.432,0.002c-1.495,0.868-1.487,2.276,0.018,3.145
				c1.507,0.87,3.938,0.87,5.432,0.002C319.439,364.052,319.431,362.644,317.923,361.773"/>
		</g>
		<g>
			<path style="fill:#FF7BB7;" d="M312.352,371.236c-0.35,0-0.712-0.063-1.067-0.188c-0.865-0.307-1.558-0.953-1.898-1.775
				l-0.398-0.963c-0.579-1.396-0.028-3.018,1.28-3.774l0.578-0.334c0.36-0.208,0.818-0.084,1.024,0.274
				c0.207,0.358,0.084,0.817-0.274,1.024l-0.578,0.334c-0.659,0.381-0.936,1.198-0.645,1.901l0.398,0.963
				c0.179,0.43,0.548,0.771,1.013,0.935c0.398,0.142,0.821,0.134,1.101-0.02c0.365-0.198,0.82-0.064,1.017,0.299
				c0.198,0.364,0.065,0.819-0.299,1.018C313.23,371.134,312.801,371.236,312.352,371.236z"/>
		</g>
	</g>
	<g>
		<path style="fill:#FF5D9E;" d="M370.804,331.581l1.693,6.377c0.003,0.469,0.314,0.938,0.934,1.295
			c1.242,0.717,3.244,0.717,4.475,0.001c0.617-0.358,0.924-0.828,0.921-1.297l1.703-6.377H370.804z"/>
		<g>
			<path style="fill:#FF7BB7;" d="M379.168,328.983c-1.949-1.125-5.098-1.125-7.038,0.002c-1.936,1.125-1.926,2.949,0.023,4.074
				c1.953,1.127,5.102,1.127,7.038,0.002C381.131,331.934,381.12,330.11,379.168,328.983"/>
		</g>
		<g>
			<path style="fill:#345882;" d="M378.368,329.448c-1.504-0.868-3.935-0.868-5.432,0.002c-1.495,0.868-1.487,2.276,0.018,3.145
				c1.507,0.87,3.938,0.87,5.433,0.002C379.883,331.726,379.876,330.318,378.368,329.448"/>
		</g>
		<g>
			<path style="fill:#FF7BB7;" d="M372.796,338.911c-0.35,0-0.712-0.063-1.067-0.188c-0.865-0.307-1.558-0.953-1.898-1.775
				l-0.398-0.963c-0.579-1.397-0.028-3.019,1.28-3.774l0.578-0.334c0.36-0.208,0.818-0.084,1.025,0.274
				c0.207,0.358,0.084,0.817-0.275,1.024l-0.578,0.334c-0.659,0.381-0.937,1.198-0.645,1.901l0.398,0.963
				c0.179,0.43,0.548,0.771,1.013,0.935c0.398,0.142,0.821,0.134,1.101-0.02c0.365-0.198,0.82-0.064,1.018,0.299
				c0.198,0.364,0.064,0.819-0.299,1.018C373.675,338.808,373.246,338.911,372.796,338.911z"/>
		</g>
	</g>
	<g>
		
			<linearGradient id="SVGID_00000069399270280444487480000017232554707964723894_" gradientUnits="userSpaceOnUse" x1="140.1189" y1="420.3313" x2="145.8801" y2="410.325">
			<stop  offset="0" style="stop-color:#FFFFFF;stop-opacity:0"/>
			<stop  offset="0.3385" style="stop-color:#E8E8E8;stop-opacity:0.3385"/>
			<stop  offset="0.7358" style="stop-color:#D3D3D3;stop-opacity:0.7358"/>
			<stop  offset="1" style="stop-color:#CCCCCC"/>
		</linearGradient>
		<polygon style="opacity:0.4;fill:url(#SVGID_00000069399270280444487480000017232554707964723894_);" points="228.956,448.558 
			207.031,461.277 60.248,376.531 82.332,363.733 		"/>
		<g>
			<path style="fill:#FFFFFF;" d="M219.083,449.681l17.846-32.284c0,0-46.785-22.299-69.173-35.272
				c-24.357-14.113-67.171-43.719-67.171-43.719l-0.003,0.005c-2.424-1.88-6.031-1.884-10.061,0.443
				c-7.277,4.202-13.158,14.378-13.134,22.74c0.01,3.503,1.064,6.115,2.809,7.677l-0.007,0.011l0.046,0.027
				c0.636,0.56,1.361,0.982,2.164,1.253c0,0,46.451,20.298,66.525,32.727C179.874,422.451,223.994,451.939,219.083,449.681z"/>
		</g>
		<g>
			<path style="fill:#C5D3E8;" d="M229.042,418.943c-7.277,4.202-13.158,14.378-13.134,22.74c0.024,8.362,5.943,11.735,13.22,7.534
				c7.277-4.202,13.15-14.383,13.127-22.745C242.231,418.111,236.32,414.742,229.042,418.943"/>
		</g>
		<path style="fill:#FF7BB7;" d="M148.923,403.288c1.912,1.184,3.874,2.407,5.871,3.659c-0.01-6.245,1.718-18.31,14.277-24.065
			c-0.446-0.255-0.887-0.508-1.316-0.757c-3.709-2.149-7.847-4.659-12.196-7.367c-8.574,6.639-12.59,15.854-14.069,24.21
			C144.219,400.477,146.729,401.93,148.923,403.288z"/>
		<path style="fill:#ED5197;" d="M154.794,406.947c0,0-20.679,2.411-26.534,13.787c0,0-2.342-5.855-1.338-9.87
			c0,0-6.692,1.84-8.03,4.35c0,0-0.808-14.591,22.599-16.246L154.794,406.947z"/>
	</g>
</g>
<g id="DESIGNED_BY_FREEPIK">
	<g>
		<g>
			<g id="XMLID_1_">
				<g id="XMLID_520_">
					<path id="XMLID_528_" style="fill:#A5B7C6;" d="M260.104,465.465c-0.432,0.443-0.803,0.931-1.108,1.453l-0.465-0.241
						c-0.067-0.298-0.349-0.503-0.659-0.466c-0.331,0.039-0.568,0.339-0.529,0.67c0.039,0.331,0.339,0.568,0.67,0.529
						c0.066-0.008,0.127-0.026,0.184-0.052l0.451,0.234c-0.251,0.554-0.433,1.139-0.539,1.744l0.747,0.132
						c0.23-1.306,0.85-2.507,1.792-3.473L260.104,465.465z"/>
					<path id="XMLID_527_" style="fill:#A5B7C6;" d="M265.592,463.163c-0.171,0-0.341,0.006-0.51,0.017l-0.074-0.626
						c0.188-0.149,0.296-0.389,0.266-0.645c-0.046-0.393-0.402-0.674-0.795-0.628c-0.393,0.046-0.674,0.402-0.628,0.795
						c0.03,0.254,0.189,0.461,0.404,0.564l0.074,0.624c-0.714,0.116-1.403,0.332-2.06,0.646l0.327,0.684
						c0.934-0.447,1.942-0.673,2.995-0.673c0.496,0,0.993,0.053,1.475,0.158l0.161-0.741
						C266.692,463.222,266.142,463.163,265.592,463.163z"/>
					<path id="XMLID_526_" style="fill:#A5B7C6;" d="M272.194,465.711c0.331-0.04,0.566-0.341,0.526-0.672
						c-0.04-0.331-0.341-0.566-0.672-0.526c-0.309,0.038-0.535,0.304-0.53,0.609l-0.416,0.363c-0.418-0.43-0.889-0.813-1.408-1.139
						l-0.404,0.641c1.134,0.715,2.021,1.726,2.563,2.925l0.69-0.313c-0.251-0.554-0.567-1.072-0.942-1.545l0.402-0.351
						C272.065,465.716,272.129,465.719,272.194,465.711z"/>
					<path id="XMLID_525_" style="fill:#A5B7C6;" d="M265.044,473.372c-0.386,0.023-0.775,0.035-1.157,0.035
						c-0.88,0-1.733-0.061-2.478-0.179c-0.39-0.062-0.846-0.155-1.27-0.292c1.046,1.861,3.069,3.125,5.388,3.125
						c2.855,0,5.262-1.916,5.95-4.504c-0.682,0.449-1.505,0.825-2.459,1.123C267.839,473.047,266.463,473.286,265.044,473.372z"/>
					<path id="XMLID_521_" style="fill:#A5B7C6;" d="M265.592,464.68c-3.352,0-6.08,2.666-6.08,5.943
						c0,0.426,0.046,0.849,0.137,1.261c0.673,0.483,2.706,0.89,5.348,0.731c2.879-0.173,5.297-0.957,6.672-2.159
						c-0.006-0.195-0.021-0.39-0.045-0.582C271.244,466.913,268.65,464.68,265.592,464.68z M263.432,471.194
						c-1.02,0-1.85-0.83-1.85-1.85c0-1.02,0.83-1.85,1.85-1.85c1.02,0,1.85,0.83,1.85,1.85
						C265.282,470.365,264.452,471.194,263.432,471.194z M268.17,470.286c-0.75,0-1.36-0.61-1.36-1.36s0.61-1.361,1.36-1.361
						c0.75,0,1.361,0.61,1.361,1.361S268.92,470.286,268.17,470.286z"/>
				</g>
				<path id="XMLID_518_" style="fill:#A5B7C6;" d="M281.595,466.547c-0.295-0.116-0.805-0.309-1.382-0.237
					c-0.551,0.069-0.844,0.341-0.844,1.007v0.866h2.228v1.717h-2.228v5.455h-1.932v-5.455h-1.34v-1.717h1.34v-0.888
					c0-1.68,0.896-2.783,2.568-2.783c0.643,0,1.157,0.122,1.59,0.308L281.595,466.547z"/>
				<path id="XMLID_516_" style="fill:#A5B7C6;" d="M286.298,469.879c-0.177-0.03-0.358-0.046-0.526-0.046
					c-0.896,0-1.51,0.548-1.51,1.614v3.908h-1.932v-7.172h1.873v0.785c0.451-0.673,1.14-0.977,2.021-0.977
					c0.414,0,0.848,0.128,1.094,0.337L286.298,469.879z"/>
				<path id="XMLID_513_" style="fill:#A5B7C6;" d="M293.965,471.757c0,0.222-0.015,0.489-0.037,0.651h-5.085
					c0.207,1.036,0.933,1.488,1.843,1.488c0.622,0,1.295-0.252,1.813-0.688l1.133,1.243c-0.814,0.748-1.85,1.088-3.057,1.088
					c-2.198,0-3.723-1.495-3.723-3.753c0-2.258,1.48-3.797,3.627-3.797C292.544,467.99,293.958,469.522,293.965,471.757z
					 M288.851,471.091h3.175c-0.177-0.918-0.733-1.436-1.562-1.436C289.554,469.655,289.021,470.203,288.851,471.091z"/>
				<path id="XMLID_510_" style="fill:#A5B7C6;" d="M301.618,471.757c0,0.222-0.015,0.489-0.037,0.651h-5.085
					c0.207,1.036,0.933,1.488,1.843,1.488c0.622,0,1.295-0.252,1.814-0.688l1.132,1.243c-0.814,0.748-1.85,1.088-3.057,1.088
					c-2.198,0-3.723-1.495-3.723-3.753c0-2.258,1.48-3.797,3.627-3.797C300.197,467.99,301.611,469.522,301.618,471.757z
					 M296.504,471.091h3.175c-0.178-0.918-0.733-1.436-1.562-1.436C297.207,469.655,296.674,470.203,296.504,471.091z"/>
				<path id="XMLID_507_" style="fill:#A5B7C6;" d="M309.964,471.764c0,2.154-1.495,3.775-3.471,3.775
					c-0.962,0-1.643-0.378-2.109-0.933v3.708h-1.924v-10.133h1.887v0.792c0.466-0.585,1.155-0.984,2.139-0.984
					C308.469,467.99,309.964,469.61,309.964,471.764z M304.287,471.764c0,1.132,0.748,1.976,1.843,1.976
					c1.14,0,1.85-0.881,1.85-1.976c0-1.095-0.71-1.976-1.85-1.976C305.035,469.788,304.287,470.632,304.287,471.764z"/>
				<path id="XMLID_504_" style="fill:#A5B7C6;" d="M313.068,465.836c0,0.696-0.54,1.229-1.236,1.229
					c-0.696,0-1.229-0.533-1.229-1.229c0-0.696,0.533-1.243,1.229-1.243C312.527,464.592,313.068,465.14,313.068,465.836z
					 M312.809,475.354h-1.932v-7.172h1.932V475.354z"/>
				<path id="XMLID_502_" style="fill:#A5B7C6;" d="M316.032,470.736l2.701-2.554h2.368l-3.479,3.375l3.501,3.797h-2.376
					l-2.716-2.901v2.901H314.1v-10.658h1.932V470.736z"/>
			</g>
			<g>
				<path style="fill:#A5B7C6;" d="M184.412,475.289v-1.055c-0.527,0.718-1.391,1.23-2.387,1.23c-1.846,0-3.149-1.406-3.149-3.706
					c0-2.256,1.289-3.721,3.149-3.721c0.952,0,1.816,0.469,2.387,1.245v-3.765h1.099v9.77H184.412z M184.412,473.37v-3.208
					c-0.395-0.615-1.245-1.143-2.124-1.143c-1.421,0-2.27,1.172-2.27,2.739c0,1.567,0.85,2.724,2.27,2.724
					C183.168,474.483,184.017,473.986,184.412,473.37z"/>
				<path style="fill:#A5B7C6;" d="M186.932,471.744c0-2.051,1.465-3.706,3.486-3.706c2.139,0,3.398,1.67,3.398,3.794v0.279h-5.727
					c0.088,1.333,1.025,2.446,2.549,2.446c0.805,0,1.626-0.322,2.182-0.894l0.527,0.718c-0.703,0.703-1.655,1.084-2.812,1.084
					C188.44,475.465,186.932,473.956,186.932,471.744z M190.403,468.947c-1.509,0-2.256,1.274-2.314,2.358h4.643
					C192.718,470.25,192.015,468.947,190.403,468.947z"/>
				<path style="fill:#A5B7C6;" d="M194.607,474.351l0.571-0.791c0.469,0.542,1.362,1.011,2.329,1.011
					c1.084,0,1.67-0.513,1.67-1.216c0-1.714-4.38-0.659-4.38-3.281c0-1.098,0.952-2.036,2.636-2.036
					c1.201,0,2.051,0.454,2.622,1.026l-0.513,0.762c-0.424-0.513-1.201-0.894-2.109-0.894c-0.967,0-1.567,0.483-1.567,1.113
					c0,1.552,4.38,0.527,4.38,3.281c0,1.187-0.952,2.138-2.783,2.138C196.306,475.465,195.325,475.113,194.607,474.351z"/>
				<path style="fill:#A5B7C6;" d="M201.477,466.471c0-0.41,0.337-0.747,0.732-0.747c0.41,0,0.747,0.337,0.747,0.747
					c0,0.41-0.337,0.732-0.747,0.732C201.814,467.203,201.477,466.881,201.477,466.471z M201.667,475.289v-7.075h1.099v7.075
					H201.667z"/>
				<path style="fill:#A5B7C6;" d="M204.582,477.105l0.556-0.82c0.586,0.703,1.289,0.967,2.3,0.967c1.172,0,2.27-0.571,2.27-2.124
					v-1.011c-0.513,0.718-1.377,1.26-2.373,1.26c-1.845,0-3.149-1.377-3.149-3.662c0-2.27,1.289-3.677,3.149-3.677
					c0.952,0,1.802,0.469,2.373,1.245v-1.069h1.098v6.87c0,2.344-1.641,3.076-3.369,3.076
					C206.237,478.16,205.417,477.926,204.582,477.105z M209.709,473.253v-3.091c-0.381-0.615-1.23-1.143-2.109-1.143
					c-1.421,0-2.27,1.128-2.27,2.695c0,1.553,0.849,2.695,2.27,2.695C208.478,474.41,209.328,473.868,209.709,473.253z"/>
				<path style="fill:#A5B7C6;" d="M217.413,475.289v-4.629c0-1.245-0.63-1.641-1.582-1.641c-0.865,0-1.685,0.527-2.095,1.099v5.17
					h-1.099v-7.075h1.099v1.025c0.498-0.586,1.464-1.201,2.519-1.201c1.48,0,2.256,0.747,2.256,2.285v4.966H217.413z"/>
				<path style="fill:#A5B7C6;" d="M219.932,471.744c0-2.051,1.465-3.706,3.486-3.706c2.139,0,3.398,1.67,3.398,3.794v0.279h-5.727
					c0.088,1.333,1.025,2.446,2.549,2.446c0.806,0,1.626-0.322,2.183-0.894l0.527,0.718c-0.703,0.703-1.655,1.084-2.812,1.084
					C221.441,475.465,219.932,473.956,219.932,471.744z M223.404,468.947c-1.509,0-2.256,1.274-2.314,2.358h4.643
					C225.718,470.25,225.015,468.947,223.404,468.947z"/>
				<path style="fill:#A5B7C6;" d="M233.35,475.289v-1.055c-0.527,0.718-1.392,1.23-2.388,1.23c-1.846,0-3.149-1.406-3.149-3.706
					c0-2.256,1.289-3.721,3.149-3.721c0.952,0,1.817,0.469,2.388,1.245v-3.765h1.098v9.77H233.35z M233.35,473.37v-3.208
					c-0.396-0.615-1.245-1.143-2.124-1.143c-1.421,0-2.27,1.172-2.27,2.739c0,1.567,0.849,2.724,2.27,2.724
					C232.105,474.483,232.954,473.986,233.35,473.37z"/>
				<path style="fill:#A5B7C6;" d="M239.692,475.289v-9.77h1.098v3.765c0.572-0.776,1.421-1.245,2.388-1.245
					c1.845,0,3.149,1.465,3.149,3.721c0,2.299-1.304,3.706-3.149,3.706c-0.996,0-1.86-0.513-2.388-1.23v1.055H239.692z
					 M242.9,474.483c1.436,0,2.285-1.157,2.285-2.724c0-1.568-0.85-2.739-2.285-2.739c-0.864,0-1.728,0.527-2.109,1.143v3.208
					C241.171,473.986,242.036,474.483,242.9,474.483z"/>
				<path style="fill:#A5B7C6;" d="M247.528,477.061c0.161,0.073,0.425,0.117,0.601,0.117c0.483,0,0.805-0.161,1.055-0.747
					l0.469-1.069l-2.959-7.148h1.187l2.358,5.8l2.344-5.8h1.201l-3.545,8.51c-0.425,1.025-1.143,1.421-2.08,1.435
					c-0.234,0-0.601-0.044-0.805-0.103L247.528,477.061z"/>
			</g>
		</g>
	</g>
</g>
</svg>
