<?xml version="1.0" encoding="utf-8"?>
<!-- Generator: Adobe Illustrator 27.5.0, SVG Export Plug-In . SVG Version: 6.00 Build 0)  -->
<svg version="1.1" xmlns="http://www.w3.org/2000/svg" xmlns:xlink="http://www.w3.org/1999/xlink" x="0px" y="0px"
	 viewBox="0 0 500 500" style="enable-background:new 0 0 500 500;" xml:space="preserve">
<g id="BACKGROUND">
	<rect style="fill:#FFFFFF;" width="500" height="500"/>
</g>
<g id="OBJECTS">
	<path style="fill:#E2F3FC;" d="M93.147,391.24h355.492c11.406-9.961,19.949-23.403,23.845-38.245
		c5.813-22.148,1.162-46.926-12.256-65.284c-12.348-16.893-32.196-29.906-35.43-50.75c-2.322-14.971,4.863-29.606,7.018-44.604
		c4.661-32.445-16.181-65.282-45.037-79.471c-28.855-14.189-63.591-11.78-93.259,0.526c-16.794,6.966-33.098,17.092-51.212,17.48
		c-31.206,0.669-55.626-27.073-85.341-36.861c-23.915-7.878-51.441-3.13-71.52,12.337c-20.079,15.468-32.177,41.242-31.435,66.971
		c0.492,17.059,6.159,34.733,0.378,50.738c-3.542,9.807-10.963,17.552-16.101,26.587c-13.623,23.954-9.696,55.09,3.075,79.532
		C53.846,354.086,73.595,372.953,93.147,391.24z"/>
	<path style="fill:#FFFFFF;" d="M62.127,155.138h106.294c-7.336-1.082-15.125-3.512-22.461-4.593
		c4.964-7.757-0.687-19.846-9.823-21.011c-9.135-1.165-17.64,9.119-14.78,17.874c-1.506-2.811-4.866-4.501-8.02-4.034
		c-3.154,0.467-5.88,3.058-6.507,6.183c-1.4-9.969-3.021-20.472-9.33-28.317c-6.308-7.845-19.001-11.489-26.57-4.852
		c-4.676,4.1-6.126,10.956-5.223,17.11c0.903,6.153,3.808,11.805,6.668,17.327C68.96,152.263,65.834,155.138,62.127,155.138z"/>
	<path style="fill:#FFFFFF;" d="M213.854,210.478h106.295c-7.337-1.081-15.125-3.512-22.462-4.593
		c4.965-7.757-0.686-19.846-9.822-21.011c-9.136-1.164-17.64,9.119-14.78,17.874c-1.506-2.81-4.865-4.501-8.02-4.034
		c-3.153,0.467-5.88,3.058-6.507,6.183c-1.399-9.969-3.021-20.472-9.33-28.317c-6.308-7.845-19.001-11.489-26.57-4.853
		c-4.676,4.1-6.126,10.957-5.223,17.11c0.904,6.153,3.808,11.805,6.669,17.328C220.688,207.602,217.561,210.478,213.854,210.478z"/>
	<path style="fill:#FFFFFF;" d="M97.686,253.268H203.98c-7.336-1.082-15.125-3.512-22.461-4.594
		c4.964-7.757-0.687-19.846-9.823-21.01c-9.135-1.165-17.64,9.119-14.78,17.873c-1.505-2.81-4.866-4.5-8.019-4.034
		c-3.154,0.467-5.88,3.058-6.507,6.184c-1.399-9.969-3.021-20.472-9.33-28.317c-6.308-7.845-19.001-11.49-26.57-4.853
		c-4.676,4.1-6.126,10.957-5.223,17.11c0.903,6.153,3.808,11.805,6.669,17.327C104.52,250.392,101.393,253.268,97.686,253.268z"/>
	<path style="fill:#FFFFFF;" d="M369.559,177.703h106.295c-7.337-1.081-15.125-3.512-22.462-4.593
		c4.965-7.757-0.687-19.846-9.822-21.01c-9.136-1.165-17.64,9.119-14.78,17.873c-1.506-2.81-4.866-4.501-8.02-4.034
		c-3.153,0.467-5.88,3.058-6.507,6.184c-1.399-9.969-3.022-20.472-9.33-28.317c-6.308-7.845-19-11.49-26.569-4.853
		c-4.677,4.1-6.127,10.957-5.224,17.11c0.904,6.153,3.808,11.805,6.669,17.327C376.393,174.828,373.265,177.703,369.559,177.703z"/>
	<path style="fill:#B7DAEA;" d="M484.683,396.08c0,15.735-105.071,28.492-234.683,28.492c-129.612,0-234.683-12.757-234.683-28.492
		c0-15.736,105.071-28.493,234.683-28.493C379.611,367.587,484.683,380.344,484.683,396.08z"/>
	<g>
		<g>
			<path style="fill:#B3DDC8;" d="M274.949,224.437c5.382-10.354,13.425-19.586,16.004-30.968
				c2.884-12.733-0.651-28.536,9.263-37.031c6.364-5.454,15.71-5.219,23.503-8.306c8.509-3.371,17.309-10.934,25.517-6.884
				c6.147,3.033,7.77,11.468,5.632,17.981c-2.139,6.513-6.986,11.699-11.168,17.131c-4.182,5.432-7.949,11.872-7.294,18.695
				c0.792,8.24,7.884,16.296,4.488,23.846c-3.651,8.117-16.796,8.503-19.945,16.827c-2.721,7.191,4.092,14.827,3.156,22.457
				c-0.857,6.99-7.686,11.433-13.822,14.888c-12.137,6.833-32.63,26.527-39.596,6.502
				C264.536,261.895,266.365,240.954,274.949,224.437z"/>
			<g>
				<path style="fill:#92C8AC;" d="M342.42,147.886c-25.592,30.154-44.226,66.017-54.189,104.296
					c-2.788,10.713-4.869,21.592-6.287,32.568c-0.062,0.474,0.684,0.47,0.744,0c5.008-38.761,18.771-76.249,39.985-109.074
					c6.154-9.523,12.938-18.62,20.273-27.264C343.254,148.049,342.73,147.52,342.42,147.886L342.42,147.886z"/>
			</g>
			<g>
				<path style="fill:#92C8AC;" d="M324.03,153.468c1.331,4.264,2.662,8.529,3.993,12.793c0.142,0.456,0.86,0.261,0.717-0.198
					c-1.331-4.265-2.662-8.529-3.993-12.794C324.605,152.814,323.887,153.009,324.03,153.468L324.03,153.468z"/>
			</g>
			<g>
				<path style="fill:#92C8AC;" d="M331.34,185.388c-6.173,0.359-12.131,1.704-17.855,4.049c-0.438,0.179-0.246,0.899,0.197,0.717
					c5.666-2.321,11.542-3.666,17.658-4.022C331.815,186.105,331.819,185.36,331.34,185.388L331.34,185.388z"/>
			</g>
			<g>
				<path style="fill:#92C8AC;" d="M302.034,168.116c2.063,9.82,4.401,19.575,7.016,29.263c0.124,0.462,0.843,0.266,0.718-0.198
					c-2.614-9.688-4.953-19.443-7.016-29.263C302.653,167.45,301.935,167.648,302.034,168.116L302.034,168.116z"/>
			</g>
			<g>
				<path style="fill:#92C8AC;" d="M330.423,216.245c-9.958-0.011-19.916-0.021-29.874-0.032c-0.479,0-0.479,0.744,0,0.744
					c9.958,0.011,19.916,0.021,29.874,0.032C330.901,216.99,330.902,216.246,330.423,216.245L330.423,216.245z"/>
			</g>
			<g>
				<path style="fill:#92C8AC;" d="M288.922,208.051c1.751,8.429,3.502,16.858,5.252,25.287c0.098,0.469,0.815,0.271,0.718-0.198
					c-1.751-8.429-3.502-16.858-5.252-25.287C289.542,207.385,288.824,207.583,288.922,208.051L288.922,208.051z"/>
			</g>
			<g>
				<path style="fill:#92C8AC;" d="M313.694,233.567c-7.38,2.777-14.76,5.554-22.14,8.331c-0.444,0.167-0.252,0.887,0.197,0.718
					c7.38-2.777,14.76-5.554,22.141-8.331C314.336,234.117,314.144,233.398,313.694,233.567L313.694,233.567z"/>
			</g>
		</g>
		<g>
			<path style="fill:#75C2E8;" d="M261.913,273.459c-0.564-24.46-12.438-48.429-31.555-63.697
				c-8.479-6.772-18.291-11.923-25.87-19.689c-9.299-9.53-14.622-22.38-23.935-31.895c-9.314-9.516-25.951-14.626-35.539-5.387
				c8.873-3.106,18.785,9.069,21.671,18.017c2.886,8.948,1.274,18.621,0.89,28.015c-0.385,9.394,0.971,19.833,8.026,26.047
				c6.786,5.977,16.667,6.245,25.663,7.158c8.996,0.913,19.185,3.747,22.922,11.98c3.984,8.777-1.429,19.159,0.508,28.601
				c4.502,21.951,42.409,23.199,46.364,45.255C267.714,303.353,262.257,288.345,261.913,273.459z"/>
			<g>
				<path style="fill:#55A2C0;" d="M165.295,152.406c5.939,10.306,11.885,20.628,18.614,30.446
					c6.551,9.56,13.954,18.335,22.097,26.573c8.452,8.55,17.334,16.707,25.1,25.909c7.316,8.67,13.583,18.22,18.671,28.358
					c5.772,11.501,9.959,23.727,12.54,36.329c0.096,0.47,0.813,0.27,0.718-0.197c-4.443-21.697-13.753-42.286-27.251-59.86
					c-14.607-19.018-34.035-33.572-48.127-53.073c-8.028-11.109-14.883-22.999-21.718-34.861
					C165.698,151.615,165.055,151.989,165.295,152.406L165.295,152.406z"/>
			</g>
			<g>
				<path style="fill:#55A2C0;" d="M172.835,186.736c7.597,3.725,15.194,7.449,22.79,11.174c0.429,0.21,0.806-0.432,0.376-0.643
					c-7.597-3.725-15.194-7.449-22.791-11.174C172.782,185.883,172.404,186.525,172.835,186.736L172.835,186.736z"/>
			</g>
			<g>
				<path style="fill:#55A2C0;" d="M204.797,192.383c0.769,6.121,1.538,12.241,2.308,18.361c0.059,0.469,0.804,0.475,0.744,0
					c-0.77-6.12-1.539-12.24-2.308-18.361C205.482,191.915,204.738,191.909,204.797,192.383L204.797,192.383z"/>
			</g>
			<g>
				<path style="fill:#55A2C0;" d="M186.045,218.895c11.067,1.334,22.134,2.669,33.202,4.002c0.475,0.057,0.47-0.688,0-0.744
					c-11.067-1.334-22.134-2.668-33.202-4.002C185.57,218.094,185.575,218.839,186.045,218.895L186.045,218.895z"/>
			</g>
			<g>
				<path style="fill:#55A2C0;" d="M231.106,215.724c-0.349,6.053-0.698,12.107-1.047,18.161c-0.027,0.478,0.717,0.477,0.744,0
					c0.349-6.054,0.698-12.107,1.047-18.161C231.878,215.245,231.134,215.247,231.106,215.724L231.106,215.724z"/>
			</g>
			<g>
				<path style="fill:#55A2C0;" d="M231.806,259.81c6.196,1.384,12.392,2.768,18.588,4.15c0.466,0.104,0.666-0.613,0.198-0.718
					c-6.196-1.384-12.392-2.767-18.588-4.149C231.538,258.989,231.338,259.707,231.806,259.81L231.806,259.81z"/>
			</g>
		</g>
		<g>
			<g>
				<path style="fill:#F8B6A9;" d="M167.431,211.743c20.797,25.867,37.754,54.662,50.29,85.395c0.535,1.313,2.564,0.455,2.028-0.858
					c-12.605-30.902-29.679-59.893-50.591-85.903C168.271,209.273,166.54,210.635,167.431,211.743L167.431,211.743z"/>
			</g>
			<path style="fill:#F8B6A9;" d="M170.396,202.499c4.282,5.31,2.454,13.89,2.454,13.89s-8.772-0.03-13.055-5.34
				c-4.282-5.31-2.453-13.889-2.453-13.889S166.114,197.189,170.396,202.499z"/>
			<path style="fill:#F8B6A9;" d="M189.69,215.888c-1.592,6.633-9.504,10.421-9.504,10.421s-5.33-6.966-3.739-13.6
				s9.504-10.422,9.504-10.422S191.282,209.255,189.69,215.888z"/>
			<path style="fill:#F8B6A9;" d="M203.077,235.328c-1.592,6.633-9.504,10.421-9.504,10.421s-5.331-6.966-3.739-13.6
				s9.504-10.422,9.504-10.422S204.668,228.695,203.077,235.328z"/>
			<path style="fill:#F8B6A9;" d="M216.371,258.737c-2.152,6.474-10.358,9.573-10.358,9.573s-4.717-7.396-2.565-13.869
				c2.152-6.474,10.358-9.573,10.358-9.573S218.523,252.264,216.371,258.737z"/>
			<path style="fill:#F8B6A9;" d="M173.419,225.32c6.785,0.704,11.583,8.048,11.583,8.048s-6.203,6.202-12.988,5.498
				c-6.786-0.704-11.583-8.047-11.583-8.047S166.634,224.616,173.419,225.32z"/>
			<path style="fill:#F8B6A9;" d="M185.931,245.13c6.785,0.704,11.583,8.047,11.583,8.047s-6.203,6.203-12.988,5.498
				c-6.785-0.703-11.583-8.047-11.583-8.047S179.145,244.426,185.931,245.13z"/>
			<path style="fill:#F8B6A9;" d="M197.533,268.377c6.82-0.129,12.478,6.575,12.478,6.575s-5.4,6.913-12.221,7.042
				c-6.821,0.128-12.479-6.575-12.479-6.575S190.712,268.506,197.533,268.377z"/>
		</g>
		<g>
			<g>
				<path style="fill:#C4E5E1;" d="M455.81,247.667c-20.797,25.867-37.754,54.662-50.29,85.394
					c-0.535,1.313-2.563,0.455-2.027-0.858c12.604-30.902,29.679-59.893,50.591-85.902
					C454.97,245.198,456.702,246.559,455.81,247.667L455.81,247.667z"/>
			</g>
			<path style="fill:#C4E5E1;" d="M452.845,238.423c-4.282,5.311-2.453,13.889-2.453,13.889s8.771-0.029,13.054-5.34
				c4.283-5.31,2.454-13.889,2.454-13.889S457.127,233.114,452.845,238.423z"/>
			<path style="fill:#C4E5E1;" d="M433.551,251.813c1.592,6.633,9.504,10.422,9.504,10.422s5.331-6.967,3.739-13.6
				c-1.592-6.633-9.504-10.421-9.504-10.421S431.959,245.179,433.551,251.813z"/>
			<path style="fill:#C4E5E1;" d="M420.165,271.253c1.592,6.633,9.504,10.421,9.504,10.421s5.33-6.966,3.738-13.6
				c-1.592-6.633-9.504-10.422-9.504-10.422S418.573,264.619,420.165,271.253z"/>
			<path style="fill:#C4E5E1;" d="M406.87,294.662c2.152,6.473,10.358,9.572,10.358,9.572s4.717-7.396,2.565-13.868
				c-2.152-6.474-10.358-9.573-10.358-9.573S404.719,288.189,406.87,294.662z"/>
			<path style="fill:#C4E5E1;" d="M449.822,261.244c-6.785,0.704-11.583,8.048-11.583,8.048s6.203,6.202,12.988,5.498
				c6.785-0.704,11.583-8.048,11.583-8.048S456.607,260.541,449.822,261.244z"/>
			<path style="fill:#C4E5E1;" d="M437.31,281.055c-6.785,0.704-11.583,8.048-11.583,8.048s6.203,6.202,12.988,5.498
				c6.785-0.704,11.583-8.048,11.583-8.048S444.096,280.351,437.31,281.055z"/>
			<path style="fill:#C4E5E1;" d="M425.709,304.302c-6.82-0.129-12.479,6.575-12.479,6.575s5.4,6.912,12.221,7.041
				c6.821,0.129,12.478-6.574,12.478-6.574S432.529,304.431,425.709,304.302z"/>
		</g>
		<g>
			<g>
				<path style="fill:#B0D4E4;" d="M71.609,229.682c10.994,31.316,26.501,60.918,45.988,87.786c0.833,1.147-0.966,2.417-1.799,1.268
					c-19.595-27.017-35.207-56.818-46.261-88.309C69.067,229.092,71.138,228.34,71.609,229.682L71.609,229.682z"/>
			</g>
			<path style="fill:#B0D4E4;" d="M62.192,227.322c2.25,6.44,10.502,9.415,10.502,9.415s4.604-7.466,2.354-13.906
				c-2.25-6.44-10.502-9.415-10.502-9.415S59.942,220.882,62.192,227.322z"/>
			<path style="fill:#B0D4E4;" d="M63.381,250.776c6.474,2.149,13.868-2.571,13.868-2.571s-3.104-8.205-9.578-10.354
				c-6.475-2.149-13.868,2.572-13.868,2.572S56.906,248.627,63.381,250.776z"/>
			<path style="fill:#B0D4E4;" d="M72.827,272.406c6.474,2.148,13.868-2.571,13.868-2.571s-3.104-8.205-9.578-10.354
				c-6.475-2.148-13.868,2.572-13.868,2.572S66.353,270.258,72.827,272.406z"/>
			<path style="fill:#B0D4E4;" d="M85.693,296.054c6.634,1.589,13.598-3.745,13.598-3.745s-3.792-7.91-10.426-9.499
				c-6.634-1.589-13.599,3.745-13.599,3.745S79.059,294.465,85.693,296.054z"/>
			<path style="fill:#B0D4E4;" d="M79.979,241.934c-2.983,6.135,0.722,14.085,0.722,14.085s8.542-1.994,11.525-8.129
				c2.983-6.135-0.722-14.086-0.722-14.086S82.963,235.799,79.979,241.934z"/>
			<path style="fill:#B0D4E4;" d="M90.203,263.017c-2.983,6.135,0.722,14.086,0.722,14.086s8.542-1.995,11.525-8.13
				c2.983-6.135-0.722-14.086-0.722-14.086S93.186,256.882,90.203,263.017z"/>
			<path style="fill:#B0D4E4;" d="M103.824,285.141c-3.709,5.726-1.001,14.069-1.001,14.069s8.722-0.938,12.431-6.664
				c3.709-5.725,1.001-14.068,1.001-14.068S107.534,279.416,103.824,285.141z"/>
		</g>
		<g>
			<g>
				<path style="fill:#C4E5E1;" d="M256.34,170.924c-1.831,33.14,1.164,66.423,8.883,98.704c0.33,1.379-1.818,1.863-2.148,0.483
					c-7.761-32.459-10.776-65.968-8.935-99.292C254.218,169.407,256.418,169.504,256.34,170.924L256.34,170.924z"/>
			</g>
			<path style="fill:#C4E5E1;" d="M248.543,165.14c-0.387,6.811,6.099,12.718,6.099,12.718s7.111-5.136,7.498-11.946
				c0.387-6.811-6.099-12.718-6.099-12.718S248.93,158.329,248.543,165.14z"/>
			<path style="fill:#C4E5E1;" d="M240.664,187.263c5.159,4.463,13.796,2.933,13.796,2.933s0.273-8.768-4.886-13.231
				c-5.159-4.463-13.796-2.933-13.796-2.933S235.505,182.799,240.664,187.263z"/>
			<path style="fill:#C4E5E1;" d="M241.111,210.861c5.159,4.464,13.796,2.933,13.796,2.933s0.273-8.768-4.886-13.231
				c-5.159-4.464-13.796-2.933-13.796-2.933S235.952,206.398,241.111,210.861z"/>
			<path style="fill:#C4E5E1;" d="M243.946,237.633c5.52,4.007,13.996,1.745,13.996,1.745s-0.475-8.759-5.996-12.767
				c-5.52-4.007-13.996-1.745-13.996-1.745S238.425,233.626,243.946,237.633z"/>
			<path style="fill:#C4E5E1;" d="M259.383,185.448c-5.104,4.526-4.725,13.29-4.725,13.29s8.655,1.426,13.76-3.099
				c5.103-4.525,4.725-13.29,4.725-13.29S264.487,180.922,259.383,185.448z"/>
			<path style="fill:#C4E5E1;" d="M260.757,208.838c-5.105,4.525-4.725,13.289-4.725,13.289s8.655,1.426,13.76-3.1
				c5.104-4.525,4.725-13.289,4.725-13.289S265.861,204.313,260.757,208.838z"/>
			<path style="fill:#C4E5E1;" d="M264.873,234.491c-5.618,3.869-6.31,12.614-6.31,12.614s8.417,2.471,14.035-1.398
				c5.618-3.87,6.311-12.614,6.311-12.614S270.491,230.622,264.873,234.491z"/>
		</g>
		<g>
			<g>
				<path style="fill:#92C3DC;" d="M391.699,194.637c-5.152,35.455-5.129,71.527,0.067,106.974c0.223,1.514-2.134,1.829-2.355,0.315
					c-5.226-35.645-5.248-71.961-0.067-107.612C389.563,192.802,391.92,193.118,391.699,194.637L391.699,194.637z"/>
			</g>
			<path style="fill:#92C3DC;" d="M383.873,187.669c-1.07,7.286,5.335,14.259,5.335,14.259s8.14-4.838,9.21-12.123
				c1.069-7.286-5.336-14.26-5.336-14.26S384.943,180.383,383.873,187.669z"/>
			<path style="fill:#92C3DC;" d="M373.275,210.697c5.118,5.294,14.552,4.479,14.552,4.479s1.136-9.4-3.981-14.695
				c-5.117-5.294-14.551-4.479-14.551-4.479S368.158,205.402,373.275,210.697z"/>
			<path style="fill:#92C3DC;" d="M371.489,236.112c5.117,5.294,14.551,4.479,14.551,4.479s1.137-9.4-3.98-14.695
				c-5.118-5.295-14.552-4.479-14.552-4.479S366.372,230.818,371.489,236.112z"/>
			<path style="fill:#92C3DC;" d="M371.965,265.168c5.551,4.839,14.88,3.221,14.88,3.221s0.331-9.463-5.22-14.302
				c-5.55-4.839-14.88-3.221-14.88-3.221S366.414,260.329,371.965,265.168z"/>
			<path style="fill:#92C3DC;" d="M393.576,210.544c-5.923,4.376-6.357,13.835-6.357,13.835s9.168,2.365,15.091-2.01
				c5.923-4.376,6.358-13.834,6.358-13.834S399.499,206.169,393.576,210.544z"/>
			<path style="fill:#92C3DC;" d="M392.807,235.824c-5.923,4.376-6.357,13.835-6.357,13.835s9.169,2.365,15.092-2.01
				c5.923-4.376,6.357-13.834,6.357-13.834S398.729,231.449,392.807,235.824z"/>
			<path style="fill:#92C3DC;" d="M394.767,263.801c-6.412,3.621-7.996,12.956-7.996,12.956s8.812,3.466,15.224-0.154
				c6.412-3.621,7.996-12.956,7.996-12.956S401.179,260.181,394.767,263.801z"/>
		</g>
		<g>
			<path style="fill:#FFCF85;" d="M204.244,279.976c10.803,26.877-4.934,58.511-4.934,58.511s-33.251-11.944-44.054-38.821
				c-10.803-26.877,4.934-58.511,4.934-58.511S193.441,253.098,204.244,279.976z"/>
			<g>
				<path style="fill:#FFF8EE;" d="M161.977,245.065c12.129,30.177,24.258,60.354,36.387,90.531c0.179,0.444,0.869,0.168,0.69-0.277
					c-12.129-30.177-24.258-60.354-36.387-90.531C162.489,244.344,161.798,244.621,161.977,245.065L161.977,245.065z"/>
			</g>
			<g>
				<path style="fill:#FFF8EE;" d="M157.391,258.359c4.071,1.748,8.142,3.496,12.213,5.245c0.44,0.189,0.733-0.495,0.292-0.685
					c-4.071-1.748-8.142-3.497-12.213-5.246C157.243,257.485,156.951,258.17,157.391,258.359L157.391,258.359z"/>
			</g>
			<g>
				<path style="fill:#FFF8EE;" d="M179.54,258.612c-1.975,4.631-3.951,9.262-5.927,13.893c-0.188,0.441,0.497,0.733,0.685,0.292
					c1.975-4.631,3.951-9.262,5.927-13.893C180.413,258.463,179.728,258.171,179.54,258.612L179.54,258.612z"/>
			</g>
			<g>
				<path style="fill:#FFF8EE;" d="M159.277,281.653c6.952,2.95,13.904,5.9,20.856,8.851c0.441,0.188,0.733-0.497,0.291-0.685
					c-6.952-2.95-13.904-5.9-20.856-8.85C159.128,280.781,158.835,281.466,159.277,281.653L159.277,281.653z"/>
			</g>
			<g>
				<path style="fill:#FFF8EE;" d="M194.88,281.906c-3.1,7.224-6.2,14.447-9.299,21.671c0.228,0.097,0.456,0.194,0.684,0.292
					c0.389-0.99,0.779-1.98,1.168-2.971c0.175-0.445-0.508-0.738-0.684-0.292c-0.39,0.99-0.779,1.98-1.168,2.971
					c-0.175,0.444,0.495,0.733,0.684,0.292c3.1-7.224,6.199-14.447,9.299-21.671C195.754,281.758,195.069,281.466,194.88,281.906
					L194.88,281.906z"/>
			</g>
			<g>
				<path style="fill:#FFF8EE;" d="M168.654,308.942c7.445,3.207,14.89,6.414,22.334,9.621c0.44,0.189,0.732-0.495,0.292-0.685
					c-7.444-3.207-14.889-6.414-22.334-9.621C168.506,308.068,168.214,308.752,168.654,308.942L168.654,308.942z"/>
			</g>
		</g>
		<g>
			<path style="fill:#F8B6A9;" d="M428.714,293.552c-9.443,27.384-42.055,40.978-42.055,40.978s-17.302-30.805-7.858-58.189
				c9.443-27.385,42.056-40.979,42.056-40.979S438.157,266.166,428.714,293.552z"/>
			<g>
				<path style="fill:#FFF8EE;" d="M419.645,239.487c-10.603,30.746-21.205,61.493-31.808,92.24
					c-0.156,0.452,0.547,0.695,0.703,0.242c10.603-30.747,21.205-61.493,31.808-92.24
					C420.504,239.277,419.801,239.034,419.645,239.487L419.645,239.487z"/>
			</g>
			<g>
				<path style="fill:#FFF8EE;" d="M407.472,246.527c1.931,3.988,3.861,7.977,5.792,11.964c0.209,0.432,0.878,0.105,0.669-0.326
					c-1.931-3.987-3.861-7.976-5.792-11.963C407.932,245.77,407.263,246.096,407.472,246.527L407.472,246.527z"/>
			</g>
			<g>
				<path style="fill:#FFF8EE;" d="M424.041,261.227c-4.526,2.205-9.052,4.41-13.578,6.615c-0.432,0.211-0.105,0.879,0.325,0.67
					c4.526-2.205,9.053-4.41,13.579-6.615C424.798,261.685,424.473,261.018,424.041,261.227L424.041,261.227z"/>
			</g>
			<g>
				<path style="fill:#FFF8EE;" d="M393.638,265.363c3.32,6.783,6.641,13.566,9.961,20.35c0.211,0.431,0.88,0.105,0.669-0.326
					c-3.32-6.782-6.641-13.565-9.961-20.349C394.096,264.607,393.427,264.933,393.638,265.363L393.638,265.363z"/>
			</g>
			<g>
				<path style="fill:#FFF8EE;" d="M420.374,288.877c-7.074,3.427-14.147,6.854-21.222,10.282c0.108,0.224,0.218,0.446,0.326,0.669
					c0.942-0.493,1.886-0.985,2.828-1.478c0.424-0.222,0.1-0.892-0.326-0.669c-0.942,0.493-1.886,0.985-2.828,1.479
					c-0.424,0.222-0.106,0.879,0.326,0.669c7.073-3.428,14.148-6.855,21.221-10.282
					C421.131,289.337,420.806,288.667,420.374,288.877L420.374,288.877z"/>
			</g>
			<g>
				<path style="fill:#FFF8EE;" d="M382.848,292.126c3.524,7.3,7.049,14.6,10.573,21.899c0.209,0.432,0.878,0.105,0.669-0.326
					c-3.524-7.3-7.049-14.6-10.572-21.899C383.309,291.368,382.64,291.693,382.848,292.126L382.848,292.126z"/>
			</g>
		</g>
		<g>
			<path style="fill:#F6E0A9;" d="M379.379,237.826c16.187,24.023,7.416,58.248,7.416,58.248s-35.015-4.724-51.201-28.746
				c-16.187-24.023-7.415-58.248-7.415-58.248S363.193,213.803,379.379,237.826z"/>
			<g>
				<path style="fill:#FFF8EE;" d="M330.745,212.531c18.173,26.972,36.347,53.944,54.521,80.916
					c0.268,0.397,0.885-0.019,0.617-0.416c-18.174-26.973-36.348-53.944-54.521-80.917
					C331.095,211.718,330.477,212.133,330.745,212.531L330.745,212.531z"/>
			</g>
			<g>
				<path style="fill:#FFF8EE;" d="M329.041,226.489c4.347,0.858,8.693,1.717,13.04,2.575c0.471,0.093,0.613-0.637,0.143-0.73
					c-4.347-0.858-8.693-1.717-13.04-2.575C328.713,225.666,328.57,226.396,329.041,226.489L329.041,226.489z"/>
			</g>
			<g>
				<path style="fill:#FFF8EE;" d="M350.753,222.104c-0.963,4.942-1.927,9.884-2.89,14.825c-0.092,0.471,0.639,0.613,0.73,0.143
					c0.963-4.942,1.926-9.883,2.89-14.825C351.575,221.775,350.845,221.633,350.753,222.104L350.753,222.104z"/>
			</g>
			<g>
				<path style="fill:#FFF8EE;" d="M335.758,248.874c7.416,1.431,14.831,2.861,22.246,4.292c0.471,0.09,0.613-0.64,0.143-0.73
					c-7.415-1.432-14.831-2.862-22.246-4.292C335.43,248.052,335.287,248.783,335.758,248.874L335.758,248.874z"/>
			</g>
			<g>
				<path style="fill:#FFF8EE;" d="M370.627,241.673c-1.521,7.712-3.04,15.424-4.561,23.136c0.244,0.048,0.487,0.095,0.731,0.142
					c0.174-1.049,0.348-2.099,0.521-3.148c0.078-0.473-0.652-0.615-0.73-0.143c-0.174,1.05-0.348,2.1-0.522,3.149
					c-0.078,0.472,0.638,0.614,0.731,0.142c1.52-7.711,3.04-15.423,4.56-23.136C371.449,241.345,370.72,241.203,370.627,241.673
					L370.627,241.673z"/>
			</g>
			<g>
				<path style="fill:#FFF8EE;" d="M350.637,273.597c7.951,1.579,15.901,3.158,23.853,4.736c0.471,0.094,0.613-0.637,0.143-0.73
					c-7.951-1.578-15.902-3.157-23.853-4.736C350.309,272.773,350.166,273.504,350.637,273.597L350.637,273.597z"/>
			</g>
		</g>
		<g>
			<path style="fill:#506F8E;" d="M182.868,314.218c18.384,22.386,12.885,57.287,12.885,57.287s-35.304-1.395-53.688-23.78
				c-18.383-22.387-12.885-57.288-12.885-57.288S164.484,291.831,182.868,314.218z"/>
			<g>
				<path style="fill:#FFF8EE;" d="M132.061,293.63c20.64,25.135,41.281,50.27,61.921,75.403c0.304,0.37,0.879-0.102,0.575-0.472
					c-20.641-25.135-41.281-50.27-61.921-75.404C132.332,292.787,131.757,293.259,132.061,293.63L132.061,293.63z"/>
			</g>
			<g>
				<path style="fill:#FFF8EE;" d="M131.684,307.686c4.408,0.444,8.817,0.888,13.225,1.332c0.477,0.048,0.55-0.692,0.073-0.741
					c-4.408-0.443-8.817-0.887-13.225-1.331C131.279,306.898,131.206,307.639,131.684,307.686L131.684,307.686z"/>
			</g>
			<g>
				<path style="fill:#FFF8EE;" d="M152.884,301.27c-0.492,5.011-0.984,10.021-1.476,15.032c-0.047,0.478,0.693,0.55,0.74,0.072
					c0.492-5.011,0.984-10.021,1.476-15.031C153.671,300.865,152.931,300.792,152.884,301.27L152.884,301.27z"/>
			</g>
			<g>
				<path style="fill:#FFF8EE;" d="M140.485,329.337c7.518,0.724,15.035,1.447,22.552,2.171c0.477,0.046,0.55-0.694,0.073-0.74
					c-7.518-0.725-15.035-1.448-22.552-2.172C140.081,328.55,140.008,329.29,140.485,329.337L140.485,329.337z"/>
			</g>
			<g>
				<path style="fill:#FFF8EE;" d="M174.518,318.874c-0.785,7.821-1.569,15.643-2.354,23.464c0.247,0.024,0.494,0.048,0.74,0.072
					c0.074-1.062,0.147-2.122,0.221-3.184c0.033-0.478-0.707-0.552-0.74-0.073c-0.074,1.062-0.148,2.123-0.221,3.185
					c-0.033,0.478,0.692,0.551,0.74,0.072c0.785-7.821,1.569-15.643,2.354-23.463C175.306,318.47,174.565,318.397,174.518,318.874
					L174.518,318.874z"/>
			</g>
			<g>
				<path style="fill:#FFF8EE;" d="M157.633,352.544c8.064,0.82,16.129,1.641,24.193,2.462c0.477,0.048,0.55-0.692,0.073-0.741
					c-8.064-0.82-16.129-1.641-24.193-2.461C157.229,351.755,157.156,352.495,157.633,352.544L157.633,352.544z"/>
			</g>
		</g>
		<g>
			<path style="fill:#506F8E;" d="M418.746,360.953c-22.387,18.384-57.287,12.885-57.287,12.885s1.394-35.304,23.78-53.688
				c22.387-18.383,57.287-12.885,57.287-12.885S441.132,342.569,418.746,360.953z"/>
			<g>
				<path style="fill:#FFF8EE;" d="M439.334,310.147c-25.135,20.64-50.27,41.28-75.404,61.921c-0.37,0.304,0.102,0.88,0.473,0.575
					c25.135-20.641,50.27-41.281,75.403-61.922C440.176,310.417,439.704,309.842,439.334,310.147L439.334,310.147z"/>
			</g>
			<g>
				<path style="fill:#FFF8EE;" d="M425.276,309.769c-0.443,4.408-0.888,8.817-1.331,13.226c-0.048,0.477,0.692,0.55,0.74,0.072
					c0.444-4.408,0.888-8.816,1.332-13.225C426.065,309.364,425.324,309.292,425.276,309.769L425.276,309.769z"/>
			</g>
			<g>
				<path style="fill:#FFF8EE;" d="M431.693,330.969c-5.011-0.492-10.021-0.983-15.031-1.476c-0.477-0.047-0.551,0.693-0.073,0.74
					c5.011,0.492,10.021,0.984,15.032,1.477C432.099,331.757,432.171,331.016,431.693,330.969L431.693,330.969z"/>
			</g>
			<g>
				<path style="fill:#FFF8EE;" d="M403.627,318.57c-0.724,7.518-1.447,15.035-2.171,22.553c-0.046,0.477,0.694,0.55,0.74,0.072
					c0.724-7.518,1.447-15.034,2.171-22.552C404.413,318.166,403.673,318.093,403.627,318.57L403.627,318.57z"/>
			</g>
			<g>
				<path style="fill:#FFF8EE;" d="M414.09,352.603c-7.821-0.784-15.642-1.569-23.464-2.354c-0.024,0.247-0.049,0.494-0.073,0.74
					c1.062,0.074,2.123,0.147,3.185,0.222c0.477,0.033,0.552-0.707,0.072-0.74c-1.062-0.074-2.122-0.147-3.184-0.222
					c-0.478-0.033-0.551,0.692-0.073,0.74c7.821,0.785,15.643,1.569,23.464,2.355C414.494,353.392,414.566,352.65,414.09,352.603
					L414.09,352.603z"/>
			</g>
			<g>
				<path style="fill:#FFF8EE;" d="M380.42,335.719c-0.82,8.064-1.642,16.129-2.462,24.193c-0.049,0.477,0.692,0.55,0.74,0.072
					c0.821-8.065,1.642-16.129,2.462-24.193C381.209,335.315,380.469,335.241,380.42,335.719L380.42,335.719z"/>
			</g>
		</g>
	</g>
	<g>
		<path style="fill:#4A8CCA;" d="M378.183,244.505h-175.5c-5.256,0-9.516,4.261-9.516,9.516v109.156c0,5.256,4.26,9.517,9.516,9.517
			h175.5c5.256,0,9.517-4.261,9.517-9.517V254.021C387.699,248.766,383.438,244.505,378.183,244.505z"/>
		<rect x="200.677" y="252.768" style="fill:#88CBF0;" width="179.512" height="105.153"/>
		<path style="fill:#30749E;" d="M193.352,365.045c0.868,4.361,4.714,7.649,9.331,7.649h175.5c4.616,0,8.463-3.288,9.331-7.649
			H193.352z"/>
		<g>
			<g>
				<g>
					<path style="fill:#CAEBFB;" d="M293.764,298.137l18.712-25.926l0.533,0.385c7.13,5.156,11.693,13.111,12.521,21.828
						l0.063,0.653L293.764,298.137z M312.768,274.053l-16.238,22.497l27.623-2.654C323.225,286.028,319.112,278.86,312.768,274.053z
						"/>
				</g>
				<g>
					<path style="fill:#CAEBFB;" d="M294.685,297.607l15.568-21.57l0.178,0.129c6.102,4.412,10.007,11.221,10.715,18.679
						l0.021,0.218L294.685,297.607z M310.352,276.65l-14.744,20.429l25.081-2.411C319.945,287.493,316.19,280.947,310.352,276.65z"
						/>
				</g>
				<g>
					<g>
						<path style="fill:#CAEBFB;" d="M314.773,295.566l-0.021-0.218l2.507-0.24c-0.083-0.833-0.215-1.666-0.39-2.476l0.214-0.047
							c0.185,0.854,0.321,1.732,0.404,2.61l0.011,0.108L314.773,295.566z"/>
					</g>
					<g>
						<path style="fill:#CAEBFB;" d="M315.459,288.313c-0.615-1.381-1.377-2.706-2.265-3.939l0.178-0.128
							c0.896,1.244,1.665,2.582,2.287,3.977L315.459,288.313z"/>
					</g>
					<g>
						<path style="fill:#CAEBFB;" d="M306.768,281.43l-0.178-0.128l1.602-2.221l0.09,0.064c0.709,0.513,1.396,1.074,2.045,1.669
							l-0.148,0.162c-0.614-0.564-1.266-1.099-1.937-1.589L306.768,281.43z"/>
					</g>
					<g>
						
							<rect x="298.835" y="288.179" transform="matrix(0.5845 -0.8114 0.8114 0.5845 -108.5645 364.5797)" style="fill:#CAEBFB;" width="5.692" height="0.219"/>
					</g>
					<g>
						<polygon style="fill:#CAEBFB;" points="294.916,297.476 296.596,295.147 296.773,295.276 295.377,297.211 297.752,296.982 
							297.773,297.201 						"/>
					</g>
					<g>
						<polygon style="fill:#CAEBFB;" points="303.439,296.656 303.419,296.438 309.086,295.894 309.106,296.111 						"/>
					</g>
				</g>
			</g>
			<g>
				<g>
					<path style="fill:#CAEBFB;" d="M285.799,333.251c-16.832,0-30.525-13.693-30.525-30.526c0-16.831,13.693-30.525,30.525-30.525
						c6.457,0,12.634,1.998,17.862,5.778l0.532,0.385l-17.012,23.569l28.939-2.781l0.061,0.655c0.095,0.994,0.143,1.977,0.143,2.919
						C316.324,319.558,302.631,333.251,285.799,333.251z M285.799,273.514c-16.107,0-29.212,13.104-29.212,29.211
						c0,16.108,13.105,29.212,29.212,29.212c16.107,0,29.211-13.103,29.211-29.212c0-0.693-0.027-1.41-0.081-2.139l-30.513,2.933
						l17.939-24.854C297.468,275.292,291.758,273.514,285.799,273.514z"/>
				</g>
				<g>
					<path style="fill:#CAEBFB;" d="M285.799,328.848c-14.403,0-26.122-11.719-26.122-26.123c0-14.403,11.719-26.121,26.122-26.121
						c5.525,0,10.811,1.71,15.285,4.944l0.178,0.129l-15.002,20.784l25.518-2.453l0.021,0.219c0.081,0.849,0.122,1.689,0.122,2.498
						C311.921,317.129,300.202,328.848,285.799,328.848z M285.799,277.041c-14.162,0-25.684,11.522-25.684,25.684
						c0,14.162,11.521,25.685,25.684,25.685s25.684-11.523,25.684-25.685c0-0.726-0.033-1.478-0.1-2.238l-26.045,2.503
						l15.311-21.214C296.288,278.678,291.158,277.041,285.799,277.041z"/>
				</g>
				<g>
					<g>
						<polygon style="fill:#CAEBFB;" points="285.568,302.857 287.248,300.529 287.426,300.657 286.029,302.593 288.405,302.365 
							288.426,302.583 						"/>
					</g>
					<g>
						
							<rect x="289.487" y="293.561" transform="matrix(0.5872 -0.8095 0.8095 0.5872 -117.0316 357.8698)" style="fill:#CAEBFB;" width="5.692" height="0.219"/>
					</g>
					<g>
						<path style="fill:#CAEBFB;" d="M297.42,286.811l-0.178-0.128l1.474-2.043c-0.679-0.485-1.39-0.935-2.114-1.34l0.107-0.192
							c0.764,0.427,1.512,0.904,2.225,1.419l0.089,0.063L297.42,286.811z"/>
					</g>
					<g>
						<path style="fill:#CAEBFB;" d="M285.005,325.159c-1.694-0.06-3.378-0.31-5.005-0.743l0.057-0.211
							c1.61,0.429,3.278,0.676,4.956,0.734L285.005,325.159z M290.05,324.771l-0.041-0.215c1.643-0.315,3.253-0.819,4.782-1.496
							l0.089,0.2C293.335,323.943,291.71,324.452,290.05,324.771z M275.291,322.566c-1.489-0.791-2.893-1.753-4.173-2.859
							l0.143-0.166c1.267,1.096,2.657,2.049,4.132,2.832L275.291,322.566z M299.247,320.7l-0.132-0.175
							c1.338-1.003,2.565-2.159,3.647-3.436l0.167,0.142C301.837,318.521,300.598,319.688,299.247,320.7z M267.688,315.988
							c-1.001-1.365-1.847-2.843-2.515-4.393l0.201-0.086c0.661,1.534,1.498,2.997,2.489,4.349L267.688,315.988z M305.746,313.029
							l-0.194-0.102c0.771-1.487,1.37-3.063,1.784-4.681l0.212,0.054C307.13,309.936,306.524,311.527,305.746,313.029z
							 M263.712,306.751c-0.239-1.318-0.36-2.673-0.36-4.026c0-0.338,0.008-0.682,0.022-1.022l0.22,0.009
							c-0.016,0.338-0.023,0.679-0.023,1.013c0,1.34,0.121,2.682,0.357,3.987L263.712,306.751z M264.379,296.765l-0.212-0.059
							c0.452-1.626,1.091-3.204,1.899-4.69l0.192,0.104C265.458,293.592,264.826,295.154,264.379,296.765z M269.132,288.018
							l-0.164-0.146c1.119-1.267,2.382-2.408,3.754-3.393l0.127,0.178C271.491,285.632,270.241,286.763,269.132,288.018z
							 M277.224,282.212l-0.085-0.202c1.559-0.652,3.193-1.127,4.86-1.411l0.037,0.216
							C280.386,281.096,278.767,281.566,277.224,282.212z M291.978,281.37c-1.603-0.464-3.267-0.746-4.94-0.839l0.012-0.219
							c1.691,0.094,3.37,0.378,4.989,0.847L291.978,281.37z"/>
					</g>
					<g>
						<path style="fill:#CAEBFB;" d="M308.24,303.217l-0.219-0.005c0.004-0.162,0.005-0.324,0.005-0.487
							c0-0.652-0.031-1.33-0.093-2.017l-2.507,0.241l-0.021-0.219l2.726-0.262l0.011,0.109c0.069,0.73,0.104,1.453,0.104,2.147
							C308.246,302.89,308.244,303.054,308.24,303.217z"/>
					</g>
					<g>
						<polygon style="fill:#CAEBFB;" points="294.092,302.038 294.071,301.82 299.738,301.275 299.759,301.494 						"/>
					</g>
				</g>
			</g>
		</g>
		<g>
			<rect x="333.551" y="307.815" style="fill:#CAEBFB;" width="6.581" height="23.212"/>
			<rect x="367.149" y="312.609" style="fill:#CAEBFB;" width="6.589" height="18.417"/>
			<rect x="344.635" y="298.063" style="fill:#CAEBFB;" width="6.556" height="32.964"/>
			<rect x="356.412" y="290.153" style="fill:#CAEBFB;" width="6.679" height="40.873"/>
		</g>
		<g>
			<g>
				<path style="fill:#CAEBFB;" d="M248.869,331.621h-40.797v-31.104h40.797V331.621z M209.263,330.431h38.415v-28.724h-38.415
					V330.431z"/>
			</g>
			<g>
				<rect x="215.259" y="300.911" style="fill:#CAEBFB;" width="1.191" height="29.711"/>
			</g>
			<g>
				<rect x="208.388" y="305.228" style="fill:#CAEBFB;" width="40.167" height="1.19"/>
			</g>
			<g>
				<rect x="223.709" y="300.911" style="fill:#CAEBFB;" width="1.19" height="29.711"/>
			</g>
			<g>
				<rect x="232.159" y="300.911" style="fill:#CAEBFB;" width="1.19" height="29.711"/>
			</g>
			<g>
				<rect x="240.609" y="300.911" style="fill:#CAEBFB;" width="1.19" height="29.711"/>
			</g>
		</g>
		<g>
			<path style="fill:#CAEBFB;" d="M215.225,279.236c-4.727,0-8.572,3.846-8.572,8.572s3.846,8.573,8.572,8.573
				c4.727,0,8.573-3.847,8.573-8.573S219.952,279.236,215.225,279.236z M215.225,280.353c4.112,0,7.456,3.345,7.456,7.456
				s-3.345,7.456-7.456,7.456c-4.111,0-7.456-3.345-7.456-7.456S211.114,280.353,215.225,280.353z"/>
			<path style="fill:#CAEBFB;" d="M215.225,294.225c3.538,0,6.417-2.878,6.417-6.416c0-0.308-0.251-0.559-0.559-0.559
				s-0.559,0.251-0.559,0.559c0,2.922-2.377,5.299-5.299,5.299c-2.921,0-5.298-2.377-5.298-5.299s2.377-5.299,5.298-5.299
				c0.308,0,0.559-0.251,0.559-0.559c0-0.309-0.251-0.559-0.559-0.559c-3.537,0-6.415,2.878-6.415,6.416
				C208.81,291.347,211.688,294.225,215.225,294.225z"/>
			<path style="fill:#CAEBFB;" d="M237.051,279.236c-4.727,0-8.573,3.846-8.573,8.572s3.846,8.573,8.573,8.573
				c4.727,0,8.574-3.847,8.574-8.573S241.779,279.236,237.051,279.236z M237.051,280.353c4.111,0,7.456,3.345,7.456,7.456
				s-3.345,7.456-7.456,7.456c-4.111,0-7.455-3.345-7.455-7.456S232.94,280.353,237.051,280.353z"/>
			<path style="fill:#CAEBFB;" d="M237.041,294.221h0.003c0.061,0.002,0.11-0.047,0.11-0.107v-0.902
				c0-0.058-0.046-0.105-0.104-0.107l0,0c-2.77-0.096-5.137-2.228-5.29-4.996c-0.169-3.057,2.27-5.598,5.29-5.598
				c0.308,0,0.559-0.251,0.559-0.559c0-0.309-0.251-0.559-0.559-0.559c-3.719,0-6.709,3.181-6.392,6.965
				C230.933,291.635,233.754,294.121,237.041,294.221z"/>
		</g>
		<path style="fill:#CAEBFB;" d="M356.221,342.211H237.428c-0.672,0-1.221-0.55-1.221-1.222l0,0c0-0.672,0.549-1.222,1.221-1.222
			h118.793c0.672,0,1.222,0.55,1.222,1.222l0,0C357.442,341.661,356.893,342.211,356.221,342.211z"/>
		<path style="fill:#CAEBFB;" d="M356.221,349.234H225.523c-0.672,0-1.222-0.55-1.222-1.222l0,0c0-0.672,0.55-1.222,1.222-1.222
			h130.698c0.672,0,1.222,0.55,1.222,1.222l0,0C357.442,348.685,356.893,349.234,356.221,349.234z"/>
		<path style="fill:#345799;" d="M396.697,392.615H184.774c-5.574,0-10.093-4.518-10.093-10.093l0,0
			c0-5.574,4.519-10.093,10.093-10.093h211.923c5.574,0,10.093,4.519,10.093,10.093l0,0
			C406.79,388.097,402.271,392.615,396.697,392.615z"/>
	</g>
	<g>
		<g>
			<rect x="431.958" y="368.627" style="fill:#454599;" width="2.088" height="24.012"/>
			<path style="fill:#454599;" d="M441.694,370.998H424.31c-1.649,0-2.986-1.337-2.986-2.986l0,0c0-1.649,1.337-2.986,2.986-2.986
				h17.384c1.65,0,2.986,1.337,2.986,2.986l0,0C444.681,369.661,443.344,370.998,441.694,370.998z"/>
			<path style="fill:#454599;" d="M438.358,389.172h-10.712c-0.786,0-1.424,0.637-1.424,1.423v0.62c0,0.787,0.638,1.424,1.424,1.424
				h10.712c0.786,0,1.423-0.637,1.423-1.424v-0.62C439.781,389.809,439.145,389.172,438.358,389.172z"/>
		</g>
		<g>
			<path style="fill:#484FA1;" d="M424.898,355.139l-13.559,13.277l-5.529,25.03l7.769,0.565c0,0,7.647-11.188,7.365-20.228
				c0,0,15.537-4.379,16.667-9.604C438.741,358.953,424.898,355.139,424.898,355.139z"/>
			<path style="fill:#3D437D;" d="M413.949,393.929c0,0,1.291,3.594,0.458,5.212c-0.832,1.617-17.46-1.53-17.46-1.53
				s3.096-4.406,9.368-4.341L413.949,393.929z"/>
			<polygon style="fill:#FCBC5F;" points="422.087,331.091 417.695,345.73 402.893,349.96 415.503,352.853 420.623,351.587 
				428.431,343.779 			"/>
			<g>
				<polygon style="fill:#FCBC5F;" points="433.467,325.993 429.056,317.851 423.627,321.243 426.002,328.029 				"/>
				<path style="fill:#F8A71A;" d="M430.867,356.358l-8.544-16.464c-2.712-5.228-0.86-11.742,4.292-14.593
					c1.579-0.874,3.237-1.513,4.837-1.643c2.228-0.181,4.263,0.263,5.951,0.901c2.99,1.132,5.037,3.902,5.34,7.085
					c0.707,7.443,1.517,22.662-2.818,28.956L430.867,356.358z"/>
				<path style="fill:#6363A8;" d="M431.43,354.012c-1.643-0.064-19.314,5.591-22.19,10.384c-2.876,4.793-16.11,28.324-16.11,28.324
					l7.397,1.997c0,0,16.11-13.547,18.165-25.129c0,0,25.066,1.198,25.889-5.592C445.4,357.206,441.702,354.41,431.43,354.012z"/>
				<g>
					<path style="fill:#444A86;" d="M436.099,312.446c0.047,1.94-1.198,3.98-2.623,5.3c-0.879,0.814-2.098,1.183-3.294,1.248
						c-1.196,0.065-2.389-0.145-3.568-0.355c1.59-0.899,2.106-2.954,2.098-4.78c-0.008-1.826-0.377-3.69,0.088-5.456
						c0.605-2.307,3.166-4.325,5.489-2.758c0.854,0.576,1.821-0.057,2.314,0.764C437.508,307.919,436.064,311.013,436.099,312.446z"
						/>
					<path style="fill:#FCBC5F;" d="M418.238,307.778c2.729,3.473-0.491,9.358,2.407,12.691c1.544,1.775,4.399,1.977,6.482,0.88
						c2.081-1.097,3.455-3.223,4.217-5.448c1.247,0.577,3.247-0.582,3.246-1.957c0-1.374-1.675-2.443-2.922-1.865
						c0.514-3.18-1.471-6.537-4.507-7.614C424.125,303.388,419.845,304.985,418.238,307.778z"/>
					<path style="fill:#444A86;" d="M432.052,312.067c-1.252,0.419-2.438-0.785-3.073-1.941c-0.636-1.156-1.27-2.544-2.551-2.863
						c-1.418-0.353-2.704,0.813-4.029,1.425c-2.096,0.969-4.78,0.462-6.378-1.203c-1.599-1.665-1.994-4.368-0.94-6.422
						c0.657-1.281,2.167,0.175,3.551-0.225c0.842-0.242,1.684-0.485,2.526-0.727c2.875-0.829,5.974-1.656,8.804-0.683
						c1.763,0.605,3.22,1.85,4.63,3.067c0.984,0.85,2.021,1.78,2.335,3.042C437.295,307.019,433.499,311.583,432.052,312.067z"/>
				</g>
			</g>
			<path style="fill:#FCBC5F;" d="M448.518,341.94l1.17,6.02c0.189,0.967,0.133,1.965-0.161,2.904l-0.593,1.898h-28.928l3.399-2.012
				l4.855-0.417l14.36-1.873l-2.504-7.081L448.518,341.94z"/>
			<path style="fill:#FAAF53;" d="M437.989,341.709c0,0-9.376-14.777-3.866-17.246c5.51-2.468,13.176,5.198,15.914,18.889
				L437.989,341.709z"/>
			<path style="fill:#494C89;" d="M400.525,394.717c0,0,0.637,3.766-0.469,5.211c-1.104,1.444-16.915-4.591-16.915-4.591
				s3.825-3.79,9.987-2.617L400.525,394.717z"/>
		</g>
		<g>
			<path style="fill:#E28CBA;" d="M450.534,360.272H350.383c-2.063,0-3.751-1.688-3.751-3.751l0,0c0-2.064,1.688-3.752,3.751-3.752
				h100.151c2.064,0,3.752,1.689,3.752,3.752l0,0C454.286,358.585,452.598,360.272,450.534,360.272z"/>
			<g>
				<path style="fill:#E28CBA;" d="M376.845,358.046c-0.522,0.523-0.548,1.354-0.056,1.847l45.436,45.436
					c0.493,0.493,1.323,0.468,1.847-0.056c0.523-0.523,0.549-1.354,0.056-1.847l-45.437-45.437
					C378.199,357.498,377.368,357.523,376.845,358.046z"/>
				<path style="fill:#E28CBA;" d="M424.072,358.046c0.523,0.523,0.549,1.354,0.056,1.847l-45.437,45.436
					c-0.492,0.493-1.323,0.468-1.847-0.056c-0.522-0.523-0.548-1.354-0.056-1.847l45.436-45.437
					C422.719,357.498,423.549,357.523,424.072,358.046z"/>
			</g>
		</g>
		<g>
			<path style="fill:#9C7DB8;" d="M402.419,347.902l-7.042-21.197c-0.22-0.661-0.837-1.107-1.533-1.107h-34.865
				c-1.102,0-1.881,1.079-1.533,2.125l7.042,21.197c0.22,0.66,0.837,1.105,1.533,1.105h34.866
				C401.988,350.026,402.767,348.948,402.419,347.902z"/>
			<path style="fill:#8162A9;" d="M416.719,351.169l-0.267-0.802c-0.174-0.524-0.663-0.878-1.216-0.878h-48.784
				c-0.874,0-1.491,0.856-1.216,1.686l0.267,0.802c0.174,0.523,0.664,0.877,1.216,0.877h48.784
				C416.377,352.853,416.994,351.998,416.719,351.169z"/>
		</g>
	</g>
	<g>
		<g>
			<path style="fill:#F9C180;" d="M235.929,319.042c1.214-0.693,7.268,1.961,7.268,1.961c0.722,0.361,2.165,0.556,3.41,0.66v2.622
				c0,0.993,0.067,1.969,0.195,2.926c-2.771-0.484-5.025-1.235-5.025-1.235c-2.129-0.003-3.073-1.385-3.767-1.818
				C237.316,323.724,234.715,319.735,235.929,319.042z"/>
			<path style="fill:#F9C180;" d="M338.599,342.277c-0.406-1.338-6.63-3.566-6.63-3.566c-0.772-0.233-1.955-1.083-2.932-1.862
				l-1.801,1.905c-0.683,0.723-1.401,1.386-2.151,1.992c2.347,1.552,4.501,2.555,4.501,2.555c1.549,1.46,3.185,1.103,3.986,1.266
				C334.374,344.728,339.004,343.615,338.599,342.277z"/>
			<path style="fill:#F9C180;" d="M335.574,342.703c0.331,0.453,0.607,1.071,0.318,1.554c-0.162,0.271-0.476,0.425-0.79,0.464
				c-0.313,0.038-0.631-0.025-0.937-0.104c-0.683-0.176-1.362-0.44-1.881-0.918c-0.519-0.477-0.853-1.198-0.722-1.891
				C332.055,339.19,334.845,341.701,335.574,342.703z"/>
			<path style="fill:#667BAE;" d="M289.734,298.427l-1.507,7.521c0,0-11.985,0.567-19.213,5.327
				c-7.228,4.76-17.629,9.695-23.8,10.225l-1.058,5.465c0,0,20.45,4.584,31.027-1.586l-2.115,32.613h33.849l-1.764-30.675
				c0,0,10.754,14.456,22.037,15.866l3.702-6.17c0,0-7.581-6.699-8.991-10.401c-1.41-3.702-10.257-17.916-24.256-19.095
				l-1.243-10.099L289.734,298.427z"/>
			<path style="fill:#F9C180;" d="M291.756,312.509c4.038,1.173,7.207-2.561,8.589-4.592c-0.878-0.184-1.776-0.321-2.698-0.399
				l-1.243-10.099l-6.669,1.008l-1.507,7.521c0,0-0.718,0.034-1.903,0.155C286.744,308.085,288.003,311.42,291.756,312.509z"/>
			<path style="fill:#EF658D;" d="M321.902,326.612c-1.317-3.458-9.125-16.085-21.558-18.695c-1.382,2.031-4.551,5.765-8.589,4.592
				c-3.753-1.089-5.012-4.424-5.432-6.405c-3.669,0.372-11.847,1.574-17.31,5.172c-7.228,4.76-17.629,9.695-23.8,10.225
				l-1.058,5.465c0,0,20.45,4.584,31.027-1.586l-2.115,32.613h33.848l-1.763-30.675c0,0,10.754,14.456,22.037,15.866l3.702-6.17
				C330.894,337.014,323.313,330.315,321.902,326.612z"/>
			<path style="fill:#F9C180;" d="M285.604,286.743c0,0,0.099,13.592,2.198,14.771c2.1,1.18,10.681-1.899,10.681-1.899l0.277-7.082
				l-0.852-6.446L285.604,286.743z"/>
			<path style="fill:#F9C180;" d="M296.325,295.355c0.183,1.385,1.454,2.358,2.839,2.175c1.385-0.183,2.358-1.454,2.175-2.839
				c-0.183-1.384-1.454-2.358-2.839-2.175C297.116,292.7,296.142,293.971,296.325,295.355z"/>
			<path style="fill:#324A5B;" d="M298.501,293.091c-1.595-1.186-3.19-2.372-4.784-3.559c-0.927-0.689-1.913-1.402-3.061-1.528
				c-1.678-0.186-3.223,0.922-4.895,1.152c-2.115,0.292-4.347-1.019-5.122-3.008c-0.775-1.989-0.02-4.464,1.735-5.681
				c2.132-1.477,4.973-0.925,7.357-1.942c2.33-0.995,4.773-2.01,7.301-1.822c3.165,0.234,6.075,2.551,7.015,5.583
				c0.937,3.024,0.073,6.564,1.74,9.255c1.637,2.643,5.468,4.022,5.695,7.121c0.219,2.985-3.226,5.209-3.268,8.201
				c-0.025,1.799,1.192,3.355,1.689,5.085c0.548,1.909,0.155,4.065-1.031,5.658c-0.049,0.066-0.099,0.142-0.147,0.224
				c-2.521,4.213-8.406,4.693-11.298,0.725c-0.667-0.915-1.279-1.793-1.81-2.543c-1.574-2.227-2.751-6.276-2.567-8.998
				C293.379,302.134,295.418,296.911,298.501,293.091z"/>
			<path style="fill:#F9C180;" d="M300.395,293.117c0,1.363-1.104,2.468-2.468,2.468c-1.363,0-2.469-1.104-2.469-2.468
				c0-1.363,1.105-2.469,2.469-2.469C299.29,290.648,300.395,291.754,300.395,293.117z"/>
			
				<rect x="235.575" y="301.226" transform="matrix(0.8644 -0.5028 0.5028 0.8644 -127.2643 161.578)" style="fill:#4C86AA;" width="0.726" height="31.028"/>
			<path style="fill:#F9C180;" d="M238.54,321.428c-0.552,0.103-1.178,0.362-1.299,0.91c-0.068,0.31,0.054,0.637,0.256,0.88
				c0.202,0.244,0.476,0.416,0.752,0.569c0.616,0.342,1.292,0.615,1.997,0.625s1.443-0.285,1.824-0.879
				C243.51,321.292,239.758,321.201,238.54,321.428z"/>
		</g>
		<g>
			<path style="fill:#58BBA9;" d="M388.865,248.471h-57.214c-3.929,0-7.144,3.214-7.144,7.143v10.227v18.58l12.702-11.436h51.655
				c3.929,0,7.143-3.215,7.143-7.144v-10.227C396.008,251.686,392.794,248.471,388.865,248.471z"/>
			<g>
				<path style="fill:#BFE3DB;" d="M353.04,254.945h-18.212c-0.459,0-0.835-0.377-0.835-0.836l0,0c0-0.459,0.376-0.836,0.835-0.836
					h18.212c0.46,0,0.836,0.377,0.836,0.836l0,0C353.876,254.568,353.5,254.945,353.04,254.945z"/>
				<path style="fill:#BFE3DB;" d="M388.189,260.125h-53.361c-0.459,0-0.835-0.377-0.835-0.836l0,0c0-0.459,0.376-0.836,0.835-0.836
					h53.361c0.46,0,0.836,0.377,0.836,0.836l0,0C389.025,259.748,388.649,260.125,388.189,260.125z"/>
				<path style="fill:#BFE3DB;" d="M388.189,266.709h-53.361c-0.459,0-0.835-0.377-0.835-0.836l0,0c0-0.459,0.376-0.836,0.835-0.836
					h53.361c0.46,0,0.836,0.377,0.836,0.836l0,0C389.025,266.332,388.649,266.709,388.189,266.709z"/>
			</g>
		</g>
	</g>
	<g>
		<g>
			<rect x="64.772" y="360.799" style="fill:#E15F5F;" width="134.129" height="31.816"/>
			
				<rect x="82.097" y="346.45" transform="matrix(-1.836970e-16 1 -1 -1.836970e-16 471.7354 281.6778)" style="fill:#C4403F;" width="25.864" height="60.514"/>
			
				<rect x="83.055" y="347.736" transform="matrix(-1.836970e-16 1 -1 -1.836970e-16 470.4497 282.9643)" style="fill:#FFFFFF;" width="21.375" height="57.941"/>
			<rect x="140.96" y="360.799" style="fill:#F5B619;" width="41.938" height="31.816"/>
			<rect x="149.57" y="360.799" style="fill:#E15F5F;" width="5.878" height="31.816"/>
			<rect x="171.093" y="360.799" style="fill:#E15F5F;" width="5.878" height="31.816"/>
			<rect x="64.772" y="368.381" style="fill:#D7C9C9;" width="56.034" height="0.959"/>
			<rect x="64.772" y="373.561" style="fill:#D7C9C9;" width="56.034" height="0.96"/>
			<rect x="64.772" y="378.743" style="fill:#D7C9C9;" width="56.034" height="0.96"/>
			<rect x="64.772" y="383.925" style="fill:#D7C9C9;" width="56.034" height="0.959"/>
			<polygon style="fill:#F5B619;" points="99.233,386.439 92.901,382.867 86.76,386.439 86.76,368.4 99.233,368.4 			"/>
		</g>
		<g>
			<path style="fill:#F49F62;" d="M67.094,328.844c0-4.813,3.901-8.714,8.714-8.714h109.898v-1.89H75.468
				c-5.856,0-10.603,4.748-10.603,10.604c0,5.856,4.747,10.604,10.603,10.604h110.238v-1.89H75.808
				C70.995,337.559,67.094,333.657,67.094,328.844z"/>
			<path style="fill:#FFFFFF;" d="M179.005,328.844c0-4.118,2.861-7.561,6.701-8.471v-0.243H75.808
				c-4.813,0-8.714,3.901-8.714,8.714c0,4.813,3.901,8.715,8.714,8.715h109.898v-0.243
				C181.866,336.405,179.005,332.963,179.005,328.844z"/>
			<path style="fill:#D7C9C9;" d="M174.478,324.48H74.335c-0.381,0-0.692-0.312-0.692-0.692l0,0c0-0.381,0.312-0.692,0.692-0.692
				h100.143c0.38,0,0.692,0.311,0.692,0.692l0,0C175.17,324.169,174.858,324.48,174.478,324.48z"/>
			<path style="fill:#D7C9C9;" d="M174.478,329.557H74.335c-0.381,0-0.692-0.312-0.692-0.692l0,0c0-0.38,0.312-0.691,0.692-0.691
				h100.143c0.38,0,0.692,0.311,0.692,0.691l0,0C175.17,329.245,174.858,329.557,174.478,329.557z"/>
			<path style="fill:#D7C9C9;" d="M174.478,334.634H74.335c-0.381,0-0.692-0.311-0.692-0.692l0,0c0-0.381,0.312-0.692,0.692-0.692
				h100.143c0.38,0,0.692,0.311,0.692,0.692l0,0C175.17,334.322,174.858,334.634,174.478,334.634z"/>
		</g>
		<g>
			<rect x="56.762" y="339.415" style="fill:#76C6EE;" width="120.842" height="21.208"/>
			<g>
				<rect x="67.078" y="339.415" style="fill:#49B0DE;" width="2.852" height="21.208"/>
				<rect x="75.884" y="339.415" style="fill:#49B0DE;" width="2.852" height="21.208"/>
			</g>
			<g>
				<rect x="153.184" y="339.415" style="fill:#49B0DE;" width="2.851" height="21.208"/>
				<rect x="161.99" y="339.415" style="fill:#49B0DE;" width="2.852" height="21.208"/>
			</g>
			<rect x="87.094" y="345.127" style="fill:#49B0DE;" width="54.795" height="9.784"/>
		</g>
		<polygon style="fill:#EF4F4E;" points="166.171,343.171 158.557,339.478 151.403,343.171 151.403,322.865 166.171,322.865 		"/>
		<g>
			<rect x="61.232" y="306.546" style="fill:#9C7DB8;" width="116.504" height="11.602"/>
			<rect x="164.592" y="306.546" style="fill:#CFB8D9;" width="2.515" height="11.602"/>
			<rect x="158.518" y="306.546" style="fill:#CFB8D9;" width="2.515" height="11.602"/>
			<rect x="104.583" y="310.808" style="fill:#CFB8D9;" width="47.54" height="3.079"/>
			<rect x="61.232" y="306.546" style="fill:#8567A5;" width="39.224" height="11.602"/>
			<rect x="61.232" y="307.893" style="fill:#FFFFFF;" width="36.872" height="8.909"/>
			<g>
				<rect x="61.907" y="308.762" style="fill:#D7C9C9;" width="35.45" height="0.646"/>
				<rect x="61.907" y="310.94" style="fill:#D7C9C9;" width="35.45" height="0.646"/>
				<rect x="61.907" y="313.118" style="fill:#D7C9C9;" width="35.45" height="0.646"/>
				<rect x="61.907" y="315.296" style="fill:#D7C9C9;" width="35.45" height="0.646"/>
			</g>
		</g>
		<g>
			
				<rect x="34.411" y="301.054" transform="matrix(0.9775 0.2107 -0.2107 0.9775 73.9767 -1.3673)" style="fill:#667BAE;" width="17.984" height="90.68"/>
			
				<rect x="34.265" y="370.643" transform="matrix(0.2108 -0.9775 0.9775 0.2108 -342.5066 335.0285)" style="fill:#EEC34B;" width="3.942" height="17.984"/>
			
				<rect x="36.342" y="361.008" transform="matrix(0.2108 -0.9775 0.9775 0.2108 -331.4477 329.4483)" style="fill:#EEC34B;" width="3.943" height="17.984"/>
			
				<rect x="40.32" y="309.188" transform="matrix(0.9775 0.2108 -0.2108 0.9775 71.7522 -2.1028)" style="fill:#EEC34B;" width="10.842" height="52.733"/>
		</g>
		<path style="opacity:0.58;fill:#667BAE;" d="M105.824,306.083c-1.942,1.711-3.728,4.253-3.468,7.741
			C102.903,321.15,114.391,338,114.391,338s-5.744,3.418-5.197,6.349l13.129-3.663c0,0,0.273-0.732-1.914-2.685
			c0,0-4.103-20.024-0.547-22.711c0.016-0.012,0.032-0.023,0.048-0.036c2.806-2.091,6.945-2.091,9.751,0
			c0.016,0.013,0.032,0.024,0.048,0.036c3.512,2.653-0.443,22.201-0.542,22.688c-0.01,0.009-0.021,0.015-0.03,0.023
			c-2.188,1.953-1.914,2.685-1.914,2.685l13.129,3.663c0.547-2.931-5.197-6.349-5.197-6.349h0.026c0,0,11.488-16.85,12.035-24.176
			c0.261-3.488-1.525-6.03-3.468-7.741H105.824z"/>
		<g>
			<path style="fill:#36639B;" d="M114.391,336.536c0,0-5.744,3.829-5.197,7.111l13.129-4.103c0,0,0.273-0.82-1.914-3.009
				C118.22,334.348,114.391,336.536,114.391,336.536z"/>
			<path style="fill:#36639B;" d="M135.153,336.536c0,0,5.744,3.829,5.197,7.111l-13.129-4.103c0,0-0.273-0.82,1.915-3.009
				C131.324,334.348,135.153,336.536,135.153,336.536z"/>
			<path style="fill:#627DA4;" d="M139.282,297.695l-11.214-3.105v-1.817l-3.282,0.908l-3.282-0.908v1.817l-11.215,3.105
				c0,0-8.479,3.556-7.932,11.762c0.547,8.206,12.035,27.079,12.035,27.079h6.018c0,0-4.103-22.429-0.547-25.438
				c0.016-0.013,0.032-0.026,0.048-0.04c2.806-2.343,6.945-2.343,9.751,0c0.016,0.014,0.032,0.027,0.048,0.04
				c3.556,3.01-0.547,25.438-0.547,25.438h6.017c0,0,11.488-18.873,12.035-27.079C147.761,301.251,139.282,297.695,139.282,297.695z
				"/>
			<path style="fill:#EF658D;" d="M136.82,263.778c0,0-2.015-4.026-6.626-5.786c-0.378,2.651-2.652,4.692-5.409,4.692
				c-2.756,0-5.03-2.041-5.409-4.692c-4.611,1.76-6.626,5.786-6.626,5.786l-4.923,35.285h16.958h16.959L136.82,263.778z"/>
			<path style="fill:#FCBC5F;" d="M105.365,274.72c0,0-2.735,9.026-1.094,14.771c1.642,5.743,10.394,8.752,10.394,8.752l0.273-6.564
				c0,0-6.018-4.649-3.009-15.591L105.365,274.72z"/>
			<path style="fill:#EF658D;" d="M119.376,257.992c0,0-12.644,3.871-15.652,17.821l10.668,3.282L119.376,257.992z"/>
			<path style="fill:#FCBC5F;" d="M144.54,274.72c0,0,2.735,9.026,1.094,14.771c-1.641,5.743-10.394,8.752-10.394,8.752
				l-0.274-6.564c0,0,6.018-4.649,3.009-15.591L144.54,274.72z"/>
			<path style="fill:#EF658D;" d="M130.529,257.992c0,0,12.644,3.871,15.653,17.821l-10.667,3.282L130.529,257.992z"/>
			<polygon style="fill:#C1BEBC;" points="140.649,300.605 111.656,300.605 109.741,284.293 143.074,284.293 			"/>
			<g>
				<path style="fill:#B48039;" d="M114.194,246.858c0.892,1.114,0.516,2.734,0.121,4.105c-0.395,1.371-0.702,3.028,0.269,4.073
					c0.584,0.628,1.531,0.889,1.967,1.628c0.501,0.85,0.112,1.945,0.326,2.908c0.26,1.176,1.411,1.986,2.593,2.22
					c1.182,0.233,2.4,0.005,3.583-0.225c-1.11-3.665-2.061-7.302-3.17-10.966c-0.364-1.201-0.748-2.44-1.569-3.389
					S115.35,246.371,114.194,246.858z"/>
				<path style="fill:#B48039;" d="M135.884,246.858c-0.891,1.114-0.515,2.734-0.121,4.105c0.395,1.371,0.703,3.028-0.268,4.073
					c-0.584,0.628-1.531,0.889-1.967,1.628c-0.501,0.85-0.113,1.945-0.326,2.908c-0.26,1.176-1.412,1.986-2.593,2.22
					c-1.182,0.233-2.4,0.005-3.583-0.225c1.11-3.665,2.06-7.302,3.17-10.966c0.363-1.201,0.748-2.44,1.568-3.389
					C132.585,246.264,134.729,246.371,135.884,246.858z"/>
				<path style="fill:#FCBC5F;" d="M117.542,253.279l0.325-0.06c-0.787-0.347-1.82,0.066-2.152,0.858
					c-0.332,0.793,0.098,1.818,0.896,2.137c0.798,0.318,1.816-0.129,2.12-0.934C119.051,254.438,118.442,253.338,117.542,253.279z"
					/>
				<path style="fill:#FCBC5F;" d="M133.419,253.279l0.325-0.06c-0.787-0.347-1.819,0.066-2.152,0.858
					c-0.333,0.793,0.098,1.818,0.896,2.137c0.799,0.318,1.816-0.129,2.121-0.934C134.928,254.438,134.319,253.338,133.419,253.279z"
					/>
				<path style="fill:#FCBC5F;" d="M134.137,247.43l-8.723,1.73l-8.723-1.73c0,0-1.006,2.595,1.342,9.227
					c1.359,3.838,3.618,6.033,5.28,7.203c1.262,0.887,2.941,0.887,4.203,0c1.662-1.17,3.92-3.365,5.28-7.203
					C135.144,250.024,134.137,247.43,134.137,247.43z"/>
				<path style="fill:#B48039;" d="M117.057,253.082c1.519-0.912,2.233-2.395,2.618-4.122c0.044-0.198,0.303-0.252,0.41-0.079
					c1.425,2.311,4.837,3.481,7.261,2.262c0.821-0.412,1.522-1.025,2.287-1.535c0.765-0.51,1.648-0.928,2.565-0.869
					c0.917,0.059,1.996,1.367,2.069,2.283c1.009-0.949,1.855-3.229,1.673-4.603c-0.182-1.374-0.556-3.603-1.778-4.256
					c-1.368-0.732-2.264-2.251-3.645-2.961c-1.564-0.804-3.847,0.053-5.439-0.693c-1.323-0.62-2.901-0.515-4.263,0.013
					c-1.362,0.528-3.338,3.115-4.42,4.097c-1.851,1.681-2.759,2.071-3.121,4.545C112.912,249.636,114.586,252.698,117.057,253.082z"
					/>
			</g>
		</g>
	</g>
	<text transform="matrix(1 0 0 1 179.8062 57.1392)" style="fill:#345799; font-family:'ChunkFive-Roman'; font-size:21.3683px;">UNIVERSITY</text>
</g>
<g id="DESIGNED_BY_FREEPIK">
	<g>
		<g id="XMLID_319_">
			<g id="XMLID_338_">
				<path id="XMLID_346_" style="fill:#020202;" d="M260.103,465.466c-0.432,0.442-0.803,0.932-1.107,1.453l-0.465-0.241
					c-0.068-0.297-0.35-0.502-0.66-0.466c-0.33,0.038-0.566,0.339-0.529,0.67c0.04,0.331,0.34,0.567,0.67,0.528
					c0.066-0.007,0.128-0.025,0.184-0.053l0.452,0.234c-0.251,0.555-0.433,1.14-0.54,1.744l0.748,0.131
					c0.229-1.306,0.85-2.506,1.792-3.472L260.103,465.466z"/>
				<path id="XMLID_345_" style="fill:#020202;" d="M265.591,463.164c-0.171,0-0.341,0.006-0.508,0.016l-0.075-0.625
					c0.188-0.15,0.297-0.389,0.267-0.645c-0.046-0.393-0.403-0.674-0.796-0.628c-0.393,0.046-0.674,0.401-0.627,0.796
					c0.03,0.254,0.189,0.461,0.404,0.563l0.073,0.625c-0.714,0.116-1.402,0.332-2.06,0.646l0.326,0.684
					c0.936-0.446,1.941-0.673,2.995-0.673c0.497,0,0.994,0.052,1.476,0.158l0.161-0.742
					C266.691,463.223,266.143,463.164,265.591,463.164z"/>
				<path id="XMLID_344_" style="fill:#020202;" d="M272.194,465.711c0.331-0.041,0.566-0.341,0.525-0.672
					c-0.04-0.332-0.341-0.566-0.672-0.525c-0.31,0.038-0.536,0.303-0.53,0.607l-0.416,0.364c-0.418-0.431-0.89-0.813-1.407-1.141
					l-0.404,0.642c1.135,0.716,2.02,1.727,2.563,2.925l0.69-0.313c-0.251-0.554-0.567-1.07-0.942-1.544l0.402-0.352
					C272.065,465.716,272.129,465.72,272.194,465.711z"/>
				<path id="XMLID_343_" style="fill:#020202;" d="M265.045,473.371c-0.387,0.023-0.775,0.036-1.158,0.036
					c-0.879,0-1.732-0.061-2.478-0.18c-0.39-0.062-0.845-0.154-1.27-0.292c1.047,1.861,3.069,3.125,5.389,3.125
					c2.855,0,5.263-1.916,5.949-4.503c-0.682,0.449-1.506,0.824-2.458,1.122C267.838,473.048,266.463,473.286,265.045,473.371z"/>
				<path id="XMLID_339_" style="fill:#020202;" d="M265.591,464.68c-3.351,0-6.079,2.666-6.079,5.944
					c0,0.425,0.047,0.849,0.138,1.261c0.674,0.482,2.706,0.891,5.347,0.73c2.881-0.174,5.298-0.958,6.673-2.158
					c-0.005-0.195-0.02-0.391-0.045-0.582C271.244,466.914,268.65,464.68,265.591,464.68z M263.433,471.194
					c-1.021,0-1.85-0.829-1.85-1.85s0.829-1.85,1.85-1.85c1.02,0,1.85,0.829,1.85,1.85S264.452,471.194,263.433,471.194z
					 M268.17,470.286c-0.75,0-1.361-0.609-1.361-1.359s0.611-1.361,1.361-1.361s1.359,0.611,1.359,1.361
					S268.92,470.286,268.17,470.286z"/>
			</g>
			<path id="XMLID_336_" style="fill:#020202;" d="M281.596,466.548c-0.295-0.116-0.806-0.31-1.383-0.239
				c-0.551,0.069-0.844,0.342-0.844,1.007v0.867h2.229v1.717h-2.229v5.455h-1.932v-5.455h-1.339v-1.717h1.339v-0.889
				c0-1.68,0.896-2.782,2.568-2.782c0.643,0,1.156,0.12,1.59,0.308V466.548z"/>
			<path id="XMLID_334_" style="fill:#020202;" d="M286.298,469.878c-0.177-0.029-0.357-0.046-0.525-0.046
				c-0.895,0-1.511,0.549-1.511,1.613v3.909h-1.932v-7.172h1.873v0.783c0.45-0.672,1.139-0.976,2.021-0.976
				c0.413,0,0.847,0.127,1.095,0.337L286.298,469.878z"/>
			<path id="XMLID_331_" style="fill:#020202;" d="M293.966,471.757c0,0.223-0.017,0.488-0.037,0.651h-5.085
				c0.207,1.036,0.932,1.488,1.843,1.488c0.622,0,1.295-0.252,1.813-0.69l1.134,1.244c-0.814,0.748-1.851,1.089-3.057,1.089
				c-2.198,0-3.724-1.496-3.724-3.754s1.481-3.796,3.626-3.796C292.544,467.99,293.958,469.522,293.966,471.757z M288.852,471.091
				h3.174c-0.177-0.917-0.732-1.436-1.561-1.436C289.555,469.654,289.021,470.203,288.852,471.091z"/>
			<path id="XMLID_328_" style="fill:#020202;" d="M301.619,471.757c0,0.223-0.016,0.488-0.037,0.651h-5.086
				c0.208,1.036,0.934,1.488,1.844,1.488c0.622,0,1.296-0.252,1.814-0.69l1.133,1.244c-0.815,0.748-1.851,1.089-3.058,1.089
				c-2.199,0-3.723-1.496-3.723-3.754s1.48-3.796,3.627-3.796C300.197,467.99,301.611,469.522,301.619,471.757z M296.504,471.091
				h3.176c-0.178-0.917-0.734-1.436-1.561-1.436C297.208,469.654,296.675,470.203,296.504,471.091z"/>
			<path id="XMLID_325_" style="fill:#020202;" d="M309.965,471.765c0,2.154-1.495,3.775-3.472,3.775
				c-0.962,0-1.644-0.379-2.11-0.933v3.708h-1.924v-10.133h1.887v0.791c0.468-0.584,1.154-0.983,2.14-0.983
				C308.47,467.99,309.965,469.611,309.965,471.765z M304.287,471.765c0,1.133,0.748,1.976,1.844,1.976c1.14,0,1.85-0.88,1.85-1.976
				c0-1.095-0.71-1.975-1.85-1.975C305.035,469.789,304.287,470.632,304.287,471.765z"/>
			<path id="XMLID_322_" style="fill:#020202;" d="M313.068,465.836c0,0.696-0.541,1.229-1.236,1.229
				c-0.696,0-1.229-0.533-1.229-1.229c0-0.695,0.532-1.244,1.229-1.244C312.527,464.592,313.068,465.141,313.068,465.836z
				 M312.809,475.354h-1.932v-7.172h1.932V475.354z"/>
			<path id="XMLID_320_" style="fill:#020202;" d="M316.032,470.736l2.702-2.554h2.368l-3.478,3.375l3.5,3.797h-2.375l-2.717-2.901
				v2.901H314.1v-10.659h1.933V470.736z"/>
		</g>
		<g>
			<path style="fill:#020202;" d="M184.412,475.29v-1.055c-0.527,0.718-1.391,1.23-2.387,1.23c-1.846,0-3.149-1.407-3.149-3.706
				c0-2.257,1.289-3.721,3.149-3.721c0.952,0,1.816,0.468,2.387,1.244v-3.764h1.099v9.771H184.412z M184.412,473.37v-3.208
				c-0.395-0.614-1.245-1.143-2.124-1.143c-1.42,0-2.27,1.172-2.27,2.74c0,1.567,0.85,2.725,2.27,2.725
				C183.167,474.484,184.017,473.986,184.412,473.37z"/>
			<path style="fill:#020202;" d="M186.932,471.745c0-2.051,1.465-3.706,3.486-3.706c2.139,0,3.398,1.67,3.398,3.793v0.279h-5.727
				c0.088,1.333,1.025,2.446,2.549,2.446c0.806,0,1.626-0.322,2.182-0.893l0.527,0.718c-0.703,0.703-1.655,1.084-2.812,1.084
				C188.44,475.466,186.932,473.957,186.932,471.745z M190.403,468.947c-1.509,0-2.256,1.273-2.314,2.357h4.643
				C192.718,470.25,192.015,468.947,190.403,468.947z"/>
			<path style="fill:#020202;" d="M194.607,474.353l0.571-0.791c0.469,0.542,1.362,1.011,2.329,1.011c1.085,0,1.67-0.514,1.67-1.216
				c0-1.714-4.38-0.659-4.38-3.282c0-1.098,0.952-2.035,2.636-2.035c1.202,0,2.051,0.453,2.623,1.025l-0.513,0.762
				c-0.424-0.513-1.201-0.894-2.109-0.894c-0.966,0-1.567,0.483-1.567,1.112c0,1.554,4.379,0.528,4.379,3.282
				c0,1.187-0.952,2.139-2.783,2.139C196.306,475.466,195.325,475.114,194.607,474.353z"/>
			<path style="fill:#020202;" d="M201.477,466.471c0-0.409,0.337-0.747,0.732-0.747c0.41,0,0.747,0.338,0.747,0.747
				c0,0.411-0.337,0.732-0.747,0.732C201.814,467.203,201.477,466.882,201.477,466.471z M201.667,475.29v-7.075h1.099v7.075H201.667
				z"/>
			<path style="fill:#020202;" d="M204.582,477.106l0.556-0.82c0.586,0.703,1.289,0.967,2.3,0.967c1.172,0,2.27-0.571,2.27-2.125
				v-1.011c-0.513,0.719-1.377,1.261-2.373,1.261c-1.846,0-3.149-1.378-3.149-3.662c0-2.271,1.289-3.677,3.149-3.677
				c0.952,0,1.802,0.468,2.373,1.244v-1.068h1.099v6.87c0,2.343-1.641,3.076-3.369,3.076
				C206.237,478.161,205.416,477.926,204.582,477.106z M209.708,473.253v-3.091c-0.381-0.614-1.23-1.143-2.109-1.143
				c-1.421,0-2.27,1.129-2.27,2.696c0,1.553,0.849,2.695,2.27,2.695C208.478,474.411,209.328,473.869,209.708,473.253z"/>
			<path style="fill:#020202;" d="M217.413,475.29v-4.629c0-1.245-0.63-1.642-1.582-1.642c-0.864,0-1.685,0.528-2.094,1.1v5.171
				h-1.099v-7.075h1.099v1.025c0.498-0.587,1.464-1.201,2.519-1.201c1.48,0,2.256,0.747,2.256,2.285v4.966H217.413z"/>
			<path style="fill:#020202;" d="M219.932,471.745c0-2.051,1.465-3.706,3.486-3.706c2.139,0,3.398,1.67,3.398,3.793v0.279h-5.727
				c0.088,1.333,1.025,2.446,2.548,2.446c0.806,0,1.626-0.322,2.183-0.893l0.527,0.718c-0.703,0.703-1.655,1.084-2.813,1.084
				C221.441,475.466,219.932,473.957,219.932,471.745z M223.404,468.947c-1.509,0-2.256,1.273-2.314,2.357h4.643
				C225.718,470.25,225.015,468.947,223.404,468.947z"/>
			<path style="fill:#020202;" d="M233.35,475.29v-1.055c-0.527,0.718-1.392,1.23-2.388,1.23c-1.845,0-3.149-1.407-3.149-3.706
				c0-2.257,1.289-3.721,3.149-3.721c0.952,0,1.817,0.468,2.388,1.244v-3.764h1.098v9.771H233.35z M233.35,473.37v-3.208
				c-0.396-0.614-1.245-1.143-2.124-1.143c-1.421,0-2.27,1.172-2.27,2.74c0,1.567,0.85,2.725,2.27,2.725
				C232.105,474.484,232.954,473.986,233.35,473.37z"/>
			<path style="fill:#020202;" d="M239.692,475.29v-9.771h1.099v3.764c0.571-0.776,1.421-1.244,2.388-1.244
				c1.845,0,3.149,1.464,3.149,3.721c0,2.299-1.304,3.706-3.149,3.706c-0.996,0-1.86-0.513-2.388-1.23v1.055H239.692z
				 M242.9,474.484c1.436,0,2.285-1.157,2.285-2.725c0-1.568-0.85-2.74-2.285-2.74c-0.864,0-1.729,0.528-2.109,1.143v3.208
				C241.171,473.986,242.036,474.484,242.9,474.484z"/>
			<path style="fill:#020202;" d="M247.528,477.063c0.161,0.073,0.425,0.117,0.601,0.117c0.483,0,0.806-0.161,1.055-0.747
				l0.469-1.069l-2.959-7.148h1.187l2.358,5.801l2.345-5.801h1.2l-3.545,8.51c-0.425,1.024-1.143,1.422-2.08,1.436
				c-0.234,0-0.601-0.044-0.806-0.104L247.528,477.063z"/>
		</g>
	</g>
</g>
</svg>
