<?xml version="1.0" encoding="UTF-8"?>
<svg version="1.1" viewBox="0 0 2000 2000" width="1280" height="1280" xmlns="http://www.w3.org/2000/svg">
<path transform="translate(0)" d="m0 0h2e3v2e3h-2e3z" fill="#FEFEFE"/>
<path transform="translate(433,947)" d="m0 0h13l1 1 1 36v128l-3 16-4 9-7 9-11 7-10 3h-20l-10-3-10-6-8-9-4-9-2-11v-170z" fill="#C70554"/>
<path transform="translate(1300,897)" d="m0 0h29l5 12 19 49 1 5 2-1 12-31 9-23 4-11h30l3 31 7 82v6h-27l-1-5-3-41-2-21-2-1-2 9-13 37-7 20-1 1h-16l-6-16-15-43-3-9h-2v20l-4 45-1 4h-26v-10l7-83 2-25z" fill="#83878E"/>
<path transform="translate(1106,897)" d="m0 0h42l16 4 11 6 10 9 8 11 5 11 2 9v18l-4 16-6 10-9 10-9 7-11 5-14 3h-41l-1-118z" fill="#83878E"/>
<path transform="translate(499,897)" d="m0 0h27l7 10 10 16 16 25 13 20 1-3v-68h27l1 2v116l-1 1h-26l-3-3-13-21-11-17-13-20-7-11-1 71-1 1h-26z" fill="#83878E"/>
<path transform="translate(224,1031)" d="m0 0h17l1 204 205 1 1 1v12l-1 5-189 1h-31l-3-1-1-181v-41z" fill="#C60554"/>
<path transform="translate(1028,897)" d="m0 0h25l5 10 15 38 17 42 10 26v3h-28l-5-12-4-11h-45l-8 22-2 1h-27l-1-2 5-13 10-23 11-28 11-27 10-25z" fill="#83878E"/>
<path transform="translate(826,896)" d="m0 0 5 1 5 10 11 28 25 62 7 17v2h-28l-2-1-7-20v-2l-46-1-3 9-5 14-2 1h-27l1-6 14-35 22-54 9-23 1-1z" fill="#83878E"/>
<path transform="translate(653,897)" d="m0 0h25l4 8 14 35 11 27 12 30 7 18-1 1h-27l-2-1-7-20-1-2h-45l-8 22-2 1h-27l1-6 11-28 12-29 20-50z" fill="#83878E"/>
<path transform="translate(1466,746)" d="m0 0h211v214l-1 9h-16l-1-99v-105l-192-1-1-1z" fill="#C60554"/>
<path transform="translate(931,895)" d="m0 0h23l16 4 12 6-4 9-7 14-15-5h-20l-10 4-6 4-7 8-4 11v13l5 12 7 8 10 5 7 2h16l13-4 4-1 10 19-1 4-8 5-12 4-6 1h-21l-12-3-14-7-10-8-7-8-8-14-3-9-1-6v-13l3-12 8-16 11-12 14-9 13-5z" fill="#83878E"/>
<path transform="translate(1213,897)" d="m0 0h68v15l-1 8-3 1h-37v23h39v23l-1 1h-38v24h40v23l-1 1h-66l-1-118z" fill="#83878E"/>
<path transform="translate(1443,896)" d="m0 0h8l4 4 13 20 8 12 3 2 2-6 13-20 7-11h33l-5 9-29 43-8 13-1 53-2 1h-25l-1-53-5-9-8-11-7-11-10-15-13-19v-1z" fill="#83878E"/>
<path transform="translate(446,1112)" d="m0 0h1v8l-4 14-8 11-10 7-7 3-5 1h-20l-10-3-10-6-8-9-4-9-2-11v-5z" fill="#83878E"/>
<path transform="translate(1134,921)" d="m0 0h7l13 4 8 6 6 9 3 10v12l-3 10-5 8-8 7-10 4-11 1-1-1v-69z" fill="#FEFEFE"/>
<path transform="translate(542,1061)" d="m0 0h13l1 53 2 4 4 3v3h-20v-4l5-2v-50l-9-3v12l-4 1-2-3v-5l-24 1v19l23 1v5l-2 2-21 1v19l5 2v4h-19l-1-5 5-2v-49l-5-1-1-4 49-1z" fill="#C70554"/>
<path transform="translate(1286,1062)" d="m0 0h17l1 5-4 3-1 20 31-1v-19l-5-3-1-4 6-1 17 1-2 4-4 2-1 9v33l2 7 4 4v2h-20l-1-4 4-3 1-3v-17h-31v14l2 7 3 3v3h-20l1-5 3-2v-48l-4-2v-4z" fill="#C60554"/>
<path transform="translate(402,813)" d="m0 0h2l20 58 2 6-1 4-44-1 2-9 15-44z" fill="#83868D"/>
<path transform="translate(767,1062)" d="m0 0h40l1 1v15l-4-1-3-6-23-1v20l22 1 1 2-1 5h-22v14l2 6 4 4-1 2h-20v-4l5-2v-45l-1-4-4-2-1-4z" fill="#C60554"/>
<path transform="translate(1097,1062)" d="m0 0h8l10 2 2 2v13l-4 1-2-2-3-7-2-1h-9l-6 3-1 2v7l3 3 11 4 8 4 4 4 2 6-1 10-7 8-6 3h-16l-7-3-1-3v-11l1-2 4 2 2 9 14 1 6-3 2-2v-9l-5-4-15-6-5-5-3-7 1-8 5-7 5-3z" fill="#C70554"/>
<path transform="translate(1166,1080)" d="m0 0h11l6 4 3 5 1 5 1 24 3 1 1 5h-10l-3-4-8 4-6 1-7-2-4-5-1-8 3-5 8-4 13-2 2-1-1-7-4-4-9 1-5 2h-4l1-5 6-4z" fill="#C70554"/>
<path transform="translate(1444,1080)" d="m0 0h10l8 5 4 7 1 9-5 2h-18l-8-1 2 9 4 5 8 2 12-3h4l-1 4-6 4-8 2-10-1-8-7-4-8-1-10 3-9 4-5 6-4z" fill="#C60554"/>
<path transform="translate(998,1080)" d="m0 0h10l7 4 4 6 2 10-1 2-21 1h-7l-1 2 2 8 5 4 8 1 10-3h4l-1 4-3 3-11 3-9-1-5-3-6-7-2-4-1-9 1-7 6-9 6-4z" fill="#C60554"/>
<path transform="translate(633,1080)" d="m0 0h10l8 5 4 7v9l-1 1-7 1h-21l1 8 4 5 6 2 8-1 6-2h4l-1 4-8 5-11 1-6-2-7-6-4-8v-15l6-9 6-4z" fill="#C70554"/>
<path transform="translate(1365,1080)" d="m0 0h10l8 5 4 7v9l-1 1-7 1h-11l-10-1 1 9 4 5 6 2 8-1 10-2-1 4-6 4-11 2-8-2-7-6-3-5-1-4v-14l6-9 6-4z" fill="#C70554"/>
<path transform="translate(811,1080)" d="m0 0h13l1 1 1 31 3 5 7 1 6-3 2-2v-25l-4-5v-2l5-1 7 1 1 1 1 34 5 4v4h-10l-4-4-6 4-10 1-7-3-4-7-3-27-4-6z" fill="#C70554"/>
<path transform="translate(668,1080)" d="m0 0 4 1 1 4 8-4 4-1h9l6 5 2 5 1 6 1 21 5 4v3h-13l-1-1-1-31-1-4-9-1-9 3v22l2 5 3 3v4h-19l1-4 3-3 1-3v-26l-5-3v-4z" fill="#C70554"/>
<path transform="translate(902,1080)" d="m0 0h5l1 6 1 27 3 4h10l5-3v-26l-5-5v-2l13-1 1 1 1 36 5 3-1 4h-9l-3-3-6 2-7 2-10-2-5-8-1-5-1-24-5-2-1-3z" fill="#C60554"/>
<path transform="translate(566,1080)" d="m0 0h12l1 1 1 31 3 5 5 1 7-2 3-2 1-4v-19l-1-5-4-2-1-3 13-1 1 1 1 33 3 5 3 3-1 2h-10l-2-1-2-3-7 4-7 1-8-2-5-8-1-4-1-25-4-1-1-4z" fill="#C60554"/>
<path transform="translate(1038,1080)" d="m0 0h10l6 3v9l-4 1-3-6h-9l-4 3 1 5 6 3 11 4 4 6v6l-4 6-6 4-9 1-7-1-3-3-1-9h4l3 5 2 1h8l5-3v-5l-4-3-12-5-5-6v-8l4-5z" fill="#C60554"/>
<path transform="translate(872,1067)" d="m0 0h5l1 5v8l12 2-2 5h-10v26l1 4 5 1 6-1 1 2-2 4-2 1h-13l-4-6-1-8-1-22-5-3v-3l7-1 1-11z" fill="#C70554"/>
<path transform="translate(722,1067)" d="m0 0h4l1 13 12 2-1 4-1 1-9 1-1 1v22l1 6 4 1 7-1-1 5-2 2h-12l-4-4-2-9v-23l-6-2 1-4 6-1 1-12z" fill="#C60554"/>
<path transform="translate(1242,1067)" d="m0 0h4l1 13 10 1 2 1-1 5-10 1-1 1v23l1 5 11 1-1 4-2 2h-12l-4-4-1-2-1-22v-7l-6-3 2-4 5-2 2-12z" fill="#C60554"/>
<path transform="translate(1133,1066)" d="m0 0 2 1v14l13 1-1 5-11 1v26l1 3h10l1 3-1 3-2 1h-11l-5-4-1-3-1-29-7-2 1-3 6-2 3-14z" fill="#C60554"/>
<path transform="translate(1222,1080)" d="m0 0h5l1 1v6l-1 1-9 1-6 4-1 3v14l1 7 5 5-1 2h-19l1-5 4-4v-29l-5-2v-3h11l2 5 8-5z" fill="#C70554"/>
<path transform="translate(1417,1080)" d="m0 0h6l2 2-1 5-11 2-5 4-1 3v17l1 5 4 2 1 4h-20l1-5 4-4v-27l-5-4v-3h11l1 1v5l9-6z" fill="#C70554"/>
<path transform="translate(973,1080)" d="m0 0h6l1 7-5 1-7 1-5 4-1 3v19l5 5 1 4h-19l-1-4 2-2h3v-30l-5-4v-3h11l1 1v5l5-3 4-3z" fill="#C70554"/>
<path transform="translate(665,935)" d="m0 0 3 3 10 26v4h-25l1-6 8-20z" fill="#FEFEFE"/>
<path transform="translate(1040,936)" d="m0 0h2l8 20 3 8v4h-25l1-6 10-25z" fill="#FEFEFE"/>
<path transform="translate(817,936)" d="m0 0 3 1 12 29-1 2h-25l1-6 8-21z" fill="#FEFEFE"/>
<path transform="translate(1366,1086)" d="m0 0h9l5 5 1 6-1 1h-22l-1-3 3-5 3-3z" fill="#FEFEFE"/>
<path transform="translate(634,1086)" d="m0 0h9l5 5 1 5-1 2h-22l-1-3 3-5 3-3z" fill="#FEFEFE"/>
<path transform="translate(1445,1086)" d="m0 0h8l6 5 1 6-1 1h-23l1-6 6-5z" fill="#FEFEFE"/>
<path transform="translate(1175,1104)" d="m0 0 5 1v7l-1 3-8 4h-8l-3-3v-6l3-3z" fill="#FEFEFE"/>
<path transform="translate(999,1086)" d="m0 0h9l5 5 1 6-2 1h-21v-6l6-5z" fill="#FEFEFE"/>
</svg>
