<svg height="50" viewBox="0 0 50 50" width="50" xml:space="preserve" xmlns="http://www.w3.org/2000/svg">
  <path fill="none" d="M0 0h50v50H0z"/>
  <circle cx="39" cy="11" fill="none" r="3" stroke="#000" stroke-linecap="round" stroke-miterlimit="10" stroke-width="2"/>
  <path d="M47 5.5A2.5 2.5 0 0 0 44.5 3l-14.876.002c-1.33 0-2.603-.07-3.341.668L3.554 26.398a1.89 1.89 0 0 0 0 2.674l17.374 17.374a1.89 1.89 0 0 0 2.674 0L46.33 23.717c.738-.737.668-1.98.668-3.34z" fill="none" stroke="#000" stroke-linecap="round" stroke-miterlimit="10" stroke-width="2"/>
  <path d="M19.109 27.444q.01 1.291.83 2.441l4.357-4.357a16 16 0 0 1-1.035-1.972q-.38-.89-.445-1.662a3 3 0 0 1 .248-1.479q.312-.708 1.035-1.432.74-.74 1.619-1.093c.879-.353 1.181-.354 1.784-.354q.904 0 1.784.354a5.8 5.8 0 0 1 1.636 1.011l1.085-1.085.904.905-1.102 1.102q1.167 1.495 1.135 3.106-.033 1.612-1.151 3.387l-1.397-1.397q1.298-1.957.066-3.748l-4.045 4.045.723 1.248q.247.412.486 1.062.237.648.287 1.422.05.771-.205 1.603c-.255.832-.508 1.082-1.012 1.586q-.805.806-1.702 1.159a4.6 4.6 0 0 1-1.824.329 5 5 0 0 1-1.851-.419 7.1 7.1 0 0 1-1.775-1.117l-1.348 1.348-.905-.904 1.348-1.349q-1.48-1.809-1.471-3.757t1.603-3.807l1.397 1.397q-1.066 1.137-1.059 2.427m2.746 4.029q.517.255 1.061.287.542.033 1.085-.197t1.069-.756q.475-.477.633-.963.156-.484.106-.994t-.288-1.061c-.238-.551-.343-.742-.551-1.125l-4.126 4.126q.493.427 1.011.683M27.7 19.445q-1.036-.066-1.973.871-.427.428-.592.872-.165.443-.116.903.05.461.247.954c.197.493.296.669.493 1.019l3.848-3.847q-.872-.707-1.907-.772"/>
</svg>
