<svg height="65" viewBox="0 0 65 65" width="65" xml:space="preserve" xmlns="http://www.w3.org/2000/svg">
  <circle cx="55.765" cy="12.384" r="1.081"/>
  <circle cx="9.237" cy="45.593" r="1.081"/>
  <path d="M63.129 8.764c-.721-2.032-2.548-4.493-7.126-4.782l-.015-.001c-.051-.003-.097-.01-.147-.012-.026-.001-.052.003-.078.003-.025 0-.049-.004-.074-.003-.047.002-.089.008-.135.011l-.026.002c-4.58.288-6.407 2.751-7.128 4.783-1.837 5.172 1.643 13.401 5.268 17.542-2.943 1.982-11.965 3.514-18.767 4.667-12.511 2.12-19.039 3.398-19.039 7.091s5.97 4.893 16.522 6.693c4.954.846 13.209 2.255 14 3.689-1.175 1.717-11.853 3.463-18.27 4.511-5.948.973-10.687 1.783-14.124 2.719 2.395-4.297 3.979-9.851 2.612-13.704-.73-2.057-2.587-4.558-7.289-4.797-.026-.001-.051.004-.077.004-.025 0-.05-.005-.075-.004-4.703.239-6.56 2.741-7.29 4.798-2.02 5.693 2.398 15.106 6.363 18.675.01.009.023.012.034.021.025.021.046.047.074.067l.008.004q.159.116.338.185l.053.019q.042.014.084.024c.134.038.27.064.409.065h.003q.162-.001.321-.037.05-.014.1-.032l.057-.018.071-.022.08-.033q.06-.032.118-.067a1.4 1.4 0 0 0 .162-.104q.037-.027.072-.059c.006-.005.014-.006.02-.012a12 12 0 0 0 .578-.569c2.228-1.617 11.145-3.076 17.779-4.16 13.29-2.172 20.809-3.588 20.809-7.427 0-3.692-5.969-4.891-16.518-6.691-4.955-.846-13.212-2.255-14.004-3.691 1.095-1.565 10.356-3.135 16.518-4.179 11.832-2.004 19.25-3.471 21.472-6.593 3.938-3.641 8.261-12.934 6.257-18.576M9.237 49.674a4.086 4.086 0 0 1-4.082-4.082c0-2.25 1.831-4.08 4.082-4.08s4.08 1.83 4.08 4.08a4.085 4.085 0 0 1-4.08 4.082m46.528-33.209c-2.251 0-4.082-1.831-4.082-4.081s1.831-4.081 4.082-4.081 4.08 1.831 4.08 4.081-1.83 4.081-4.08 4.081"/>
</svg>
