<svg viewBox="0 0 256 256" xmlns="http://www.w3.org/2000/svg">
  <path fill="none" d="M0 0h256v256H0z"/>
  <circle cx="128" cy="120" fill="none" r="40" stroke="#000" stroke-miterlimit="10" stroke-width="16"/>
  <path d="M63.8 199.4a72 72 0 0 1 128.4 0" fill="none" stroke="#000" stroke-linecap="round" stroke-linejoin="round" stroke-width="16"/>
  <circle cx="200" cy="56" fill="none" r="16" stroke="#000" stroke-linecap="round" stroke-linejoin="round" stroke-width="16"/>
  <path fill="none" stroke="#000" stroke-linecap="round" stroke-linejoin="round" stroke-width="16" d="M200 40V28m-13.9 20-10.3-6m10.3 22-10.3 6m24.2 2v12m13.9-20 10.3 6m-10.3-22 10.3-6m-.9 74.5a88 88 0 0 1 .7 11.5 96 96 0 1 1-96-96 87 87 0 0 1 8.9.4"/>
</svg>
