<svg xmlns="http://www.w3.org/2000/svg" viewBox="0 0 48 48" xml:space="preserve">
  <path d="M35 2H17a1 1 0 0 0-.707.293l-8 8A1 1 0 0 0 8 11v30c0 2.757 2.243 5 5 5h22c2.757 0 5-2.243 5-5V7c0-2.757-2.243-5-5-5m3 39c0 1.654-1.346 3-3 3H13c-1.654 0-3-1.346-3-3V11.414L17.414 4H35c1.654 0 3 1.346 3 3zM17 14h-5a1 1 0 1 1 0-2h5c.551 0 1-.448 1-1V6a1 1 0 1 1 2 0v5c0 1.654-1.346 3-3 3m4.707 17.293a1 1 0 0 1 0 1.414l-4 4a.997.997 0 0 1-1.414 0l-2-2a1 1 0 1 1 1.414-1.414L17 34.586l3.293-3.293a1 1 0 0 1 1.414 0M34 35a1 1 0 0 1-1 1h-9a1 1 0 1 1 0-2h9a1 1 0 0 1 1 1M21.707 23.293a1 1 0 0 1 0 1.414l-4 4a.997.997 0 0 1-1.414 0l-2-2a1 1 0 1 1 1.414-1.414L17 26.586l3.293-3.293a1 1 0 0 1 1.414 0M34 27a1 1 0 0 1-1 1h-9a1 1 0 1 1 0-2h9a1 1 0 0 1 1 1M21.707 15.293a1 1 0 0 1 0 1.414l-4 4a.997.997 0 0 1-1.414 0l-2-2a1 1 0 1 1 1.414-1.414L17 18.586l3.293-3.293a1 1 0 0 1 1.414 0M34 19a1 1 0 0 1-1 1h-9a1 1 0 1 1 0-2h9a1 1 0 0 1 1 1"/>
</svg>
