<svg viewBox="0 0 32 32" xml:space="preserve" xmlns="http://www.w3.org/2000/svg" fill-rule="evenodd" clip-rule="evenodd" stroke-linejoin="round" stroke-miterlimit="2">
  <path d="M21.997 14H8.989a3 3 0 0 0-3 3v9.916a3 3 0 0 0 3 3h14a3 3 0 0 0 3-3V17a3 3 0 0 0-1.992-2.827V9.959A7.96 7.96 0 0 0 16.038 2h-.082a7.96 7.96 0 0 0-7.959 7.959V11a1 1 0 0 0 2 0V9.959A5.96 5.96 0 0 1 15.956 4h.082a5.96 5.96 0 0 1 5.959 5.959zm-7.01 9.786V25a1 1 0 0 0 2 0v-1.212a3.001 3.001 0 1 0-3.998-2.83c0 1.304.835 2.416 1.998 2.828" fill="#71b3fa" class="fill-000000"/>
</svg>
