<svg viewBox="0 0 32 32" xmlns="http://www.w3.org/2000/svg">
  <g data-name="Layer 35" fill="#fff">
    <path d="M18 29a1 1 0 0 1-.57-.18l-10-7A1 1 0 0 1 7 21V11a1 1 0 0 1 .43-.82l10-7a1 1 0 0 1 1-.07A1 1 0 0 1 19 4v24a1 1 0 0 1-.54.89A1 1 0 0 1 18 29m-9-8.52 8 5.6V5.92l-8 5.6Z" class="fill-101820"/>
    <path d="M8 22H4a3 3 0 0 1-3-3v-6a3 3 0 0 1 3-3h4a1 1 0 0 1 1 1v10a1 1 0 0 1-1 1M4 12a1 1 0 0 0-1 1v6a1 1 0 0 0 1 1h3v-8Zm16.81.463 1.414-1.414 8.485 8.485-1.414 1.414z" class="fill-101820"/>
    <path d="m20.81 19.534 8.485-8.485 1.414 1.414-8.485 8.485z" class="fill-101820"/>
  </g>
</svg>
